%TF.GenerationSoftware,KiCad,Pcbnew,9.0.4*%
%TF.CreationDate,2025-09-02T02:13:18+05:30*%
%TF.ProjectId,ESP32 project,45535033-3220-4707-926f-6a6563742e6b,rev?*%
%TF.SameCoordinates,Original*%
%TF.FileFunction,Copper,L2,Inr*%
%TF.FilePolarity,Positive*%
%FSLAX46Y46*%
G04 Gerber Fmt 4.6, Leading zero omitted, Abs format (unit mm)*
G04 Created by KiCad (PCBNEW 9.0.4) date 2025-09-02 02:13:18*
%MOMM*%
%LPD*%
G01*
G04 APERTURE LIST*
%TA.AperFunction,ComponentPad*%
%ADD10R,1.700000X1.700000*%
%TD*%
%TA.AperFunction,ComponentPad*%
%ADD11C,0.650000*%
%TD*%
%TA.AperFunction,ComponentPad*%
%ADD12C,0.600000*%
%TD*%
%TA.AperFunction,ViaPad*%
%ADD13C,0.500000*%
%TD*%
%TA.AperFunction,ViaPad*%
%ADD14C,0.600000*%
%TD*%
%TA.AperFunction,ViaPad*%
%ADD15C,0.800000*%
%TD*%
G04 APERTURE END LIST*
D10*
%TO.N,+3.3V*%
%TO.C,J5*%
X135250000Y-93980000D03*
%TD*%
D11*
%TO.N,/vBUS*%
%TO.C,J1*%
X169450000Y-116870000D03*
X167050000Y-116870000D03*
%TD*%
D12*
%TO.N,Net-(U3-GND-Pad12)*%
%TO.C,U3*%
X171000000Y-98527500D03*
X171450000Y-98077500D03*
X171450000Y-98527500D03*
X171450000Y-98977500D03*
X171900000Y-98527500D03*
%TD*%
D10*
%TO.N,+3.3V*%
%TO.C,J4*%
X135250000Y-81190000D03*
%TD*%
D13*
%TO.N,/+5v_USB*%
X146830331Y-105569669D03*
%TO.N,/ESP32-C3-02/RTS*%
X179832000Y-112776000D03*
X179832000Y-112776000D03*
D14*
%TO.N,+3.3V*%
X207600000Y-97850000D03*
X216650000Y-96500000D03*
D13*
%TO.N,/vBUS*%
X160750000Y-113800000D03*
D14*
X161544000Y-119126000D03*
D13*
X171850000Y-113250000D03*
D14*
X160020000Y-119097979D03*
D13*
%TO.N,+3.3V*%
X144272000Y-94488000D03*
X166850000Y-103250000D03*
X156150000Y-77050000D03*
X180050000Y-92300000D03*
X146939710Y-97055231D03*
X148336000Y-93980000D03*
X192500000Y-89400000D03*
X175768000Y-79248000D03*
X155900000Y-84300000D03*
X143256000Y-94488000D03*
X176276000Y-79248000D03*
X167600000Y-103450000D03*
X143764000Y-94996000D03*
X180450000Y-78000000D03*
X146450000Y-98389560D03*
X175260000Y-79248000D03*
X146304000Y-96520000D03*
X189300000Y-103050000D03*
X182050000Y-78100000D03*
X148844000Y-95504000D03*
X188600000Y-102500000D03*
X195100000Y-95150000D03*
X137250000Y-81150000D03*
X176900000Y-95600000D03*
X148844000Y-94488000D03*
X176900000Y-96800000D03*
X170180000Y-100584000D03*
X180700000Y-115200000D03*
X192450000Y-90500000D03*
X146450000Y-97600000D03*
X164600000Y-77150000D03*
D14*
%TO.N,/+5v_USB*%
X157988000Y-124206000D03*
X157988000Y-123444000D03*
D15*
X154800000Y-116800000D03*
D14*
X157988000Y-122682000D03*
%TD*%
%TA.AperFunction,Conductor*%
%TO.N,+3.3V*%
G36*
X186078483Y-73683725D02*
G01*
X186124568Y-73734400D01*
X186158928Y-73804076D01*
X186165133Y-73819057D01*
X186235571Y-74026561D01*
X186239769Y-74042228D01*
X186282518Y-74257140D01*
X186284636Y-74273221D01*
X186299235Y-74495956D01*
X186299500Y-74504066D01*
X186299500Y-78633108D01*
X186302316Y-78656297D01*
X186331588Y-78897376D01*
X186360003Y-79012658D01*
X186395298Y-79155857D01*
X186459914Y-79326233D01*
X186489697Y-79404764D01*
X186613411Y-79640483D01*
X186613414Y-79640488D01*
X186613415Y-79640489D01*
X186620325Y-79650500D01*
X186764637Y-79859570D01*
X186764639Y-79859572D01*
X186764641Y-79859575D01*
X186941166Y-80058831D01*
X186941168Y-80058833D01*
X187140424Y-80235358D01*
X187140430Y-80235363D01*
X187359517Y-80386589D01*
X187595236Y-80510303D01*
X187738585Y-80564668D01*
X187844142Y-80604701D01*
X187844144Y-80604701D01*
X187844148Y-80604703D01*
X188102624Y-80668412D01*
X188323696Y-80695254D01*
X188366892Y-80700500D01*
X188366894Y-80700500D01*
X188460118Y-80700500D01*
X201460118Y-80700500D01*
X221460118Y-80700500D01*
X221493908Y-80700500D01*
X221506061Y-80701097D01*
X221516051Y-80702080D01*
X221643824Y-80714665D01*
X221667652Y-80719404D01*
X221794277Y-80757815D01*
X221816725Y-80767114D01*
X221933406Y-80829482D01*
X221953616Y-80842986D01*
X222002366Y-80882993D01*
X222055891Y-80926920D01*
X222073079Y-80944108D01*
X222157012Y-81046381D01*
X222170517Y-81066593D01*
X222232883Y-81183271D01*
X222242186Y-81205728D01*
X222255767Y-81250500D01*
X222280593Y-81332338D01*
X222285335Y-81356180D01*
X222298903Y-81493938D01*
X222299500Y-81506092D01*
X222299500Y-83525027D01*
X222299477Y-83527388D01*
X221503477Y-125317487D01*
X221502317Y-125378361D01*
X221481359Y-125445014D01*
X221427693Y-125489755D01*
X221378339Y-125500000D01*
X191203279Y-125500000D01*
X191136240Y-125480315D01*
X191090485Y-125427511D01*
X191080541Y-125358353D01*
X191088718Y-125328548D01*
X191125499Y-125239748D01*
X191125501Y-125239744D01*
X191150500Y-125114069D01*
X191150500Y-124985931D01*
X191150500Y-124985928D01*
X191125502Y-124860261D01*
X191125501Y-124860260D01*
X191125501Y-124860256D01*
X191076465Y-124741873D01*
X191076464Y-124741872D01*
X191076461Y-124741866D01*
X191005276Y-124635331D01*
X191005273Y-124635327D01*
X190914672Y-124544726D01*
X190914668Y-124544723D01*
X190808133Y-124473538D01*
X190808124Y-124473533D01*
X190689744Y-124424499D01*
X190689738Y-124424497D01*
X190564071Y-124399500D01*
X190564069Y-124399500D01*
X190435931Y-124399500D01*
X190435929Y-124399500D01*
X190310261Y-124424497D01*
X190310255Y-124424499D01*
X190191875Y-124473533D01*
X190191866Y-124473538D01*
X190085331Y-124544723D01*
X190085327Y-124544726D01*
X189994726Y-124635327D01*
X189994723Y-124635331D01*
X189923538Y-124741866D01*
X189923533Y-124741875D01*
X189874499Y-124860255D01*
X189874497Y-124860261D01*
X189849500Y-124985928D01*
X189849500Y-124985931D01*
X189849500Y-125114069D01*
X189849500Y-125114071D01*
X189849499Y-125114071D01*
X189874497Y-125239738D01*
X189874500Y-125239748D01*
X189906055Y-125315928D01*
X189913524Y-125385397D01*
X189882249Y-125447876D01*
X189822160Y-125483528D01*
X189784132Y-125487161D01*
X188388626Y-125404165D01*
X188322874Y-125380535D01*
X188280334Y-125325108D01*
X188277685Y-125315961D01*
X188277270Y-125316088D01*
X188275502Y-125310262D01*
X188275501Y-125310256D01*
X188226465Y-125191873D01*
X188226464Y-125191872D01*
X188226461Y-125191866D01*
X188155276Y-125085331D01*
X188155273Y-125085327D01*
X188064672Y-124994726D01*
X188064668Y-124994723D01*
X187958133Y-124923538D01*
X187958124Y-124923533D01*
X187839744Y-124874499D01*
X187839738Y-124874497D01*
X187714071Y-124849500D01*
X187714069Y-124849500D01*
X187585931Y-124849500D01*
X187585929Y-124849500D01*
X187460261Y-124874497D01*
X187460255Y-124874499D01*
X187341875Y-124923533D01*
X187341866Y-124923538D01*
X187235331Y-124994723D01*
X187235327Y-124994726D01*
X187144726Y-125085327D01*
X187144723Y-125085331D01*
X187073538Y-125191866D01*
X187073530Y-125191881D01*
X187053118Y-125241160D01*
X187009277Y-125295563D01*
X186942982Y-125317627D01*
X186931196Y-125317487D01*
X183348623Y-125104419D01*
X183282871Y-125080789D01*
X183240331Y-125025362D01*
X183234368Y-125004830D01*
X183225502Y-124960261D01*
X183225501Y-124960260D01*
X183225501Y-124960256D01*
X183176465Y-124841873D01*
X183176464Y-124841872D01*
X183176461Y-124841866D01*
X183105276Y-124735331D01*
X183105273Y-124735327D01*
X183014672Y-124644726D01*
X183014668Y-124644723D01*
X182908133Y-124573538D01*
X182908124Y-124573533D01*
X182789744Y-124524499D01*
X182789738Y-124524497D01*
X182664071Y-124499500D01*
X182664069Y-124499500D01*
X182535931Y-124499500D01*
X182535929Y-124499500D01*
X182410261Y-124524497D01*
X182410255Y-124524499D01*
X182291875Y-124573533D01*
X182291866Y-124573538D01*
X182185331Y-124644723D01*
X182185327Y-124644726D01*
X182094726Y-124735327D01*
X182094723Y-124735331D01*
X182023538Y-124841866D01*
X182023533Y-124841876D01*
X181983044Y-124939625D01*
X181939203Y-124994029D01*
X181872908Y-125016093D01*
X181861121Y-125015953D01*
X176883183Y-124719898D01*
X176817431Y-124696268D01*
X176774891Y-124640841D01*
X176768137Y-124615920D01*
X176193701Y-121064071D01*
X186599499Y-121064071D01*
X186624497Y-121189738D01*
X186624499Y-121189744D01*
X186673533Y-121308124D01*
X186673538Y-121308133D01*
X186744723Y-121414668D01*
X186744726Y-121414672D01*
X186835327Y-121505273D01*
X186835331Y-121505276D01*
X186941866Y-121576461D01*
X186941872Y-121576464D01*
X186941873Y-121576465D01*
X187060256Y-121625501D01*
X187060260Y-121625501D01*
X187060261Y-121625502D01*
X187185928Y-121650500D01*
X187185931Y-121650500D01*
X187314071Y-121650500D01*
X187398615Y-121633682D01*
X187439744Y-121625501D01*
X187558127Y-121576465D01*
X187664669Y-121505276D01*
X187693874Y-121476071D01*
X189341499Y-121476071D01*
X189366497Y-121601738D01*
X189366499Y-121601744D01*
X189415533Y-121720124D01*
X189415538Y-121720133D01*
X189486723Y-121826668D01*
X189486726Y-121826672D01*
X189577327Y-121917273D01*
X189577331Y-121917276D01*
X189683866Y-121988461D01*
X189683872Y-121988464D01*
X189683873Y-121988465D01*
X189802256Y-122037501D01*
X189802260Y-122037501D01*
X189802261Y-122037502D01*
X189927928Y-122062500D01*
X189927931Y-122062500D01*
X190056071Y-122062500D01*
X190140615Y-122045682D01*
X190181744Y-122037501D01*
X190300127Y-121988465D01*
X190406669Y-121917276D01*
X190497276Y-121826669D01*
X190568465Y-121720127D01*
X190617501Y-121601744D01*
X190642500Y-121476069D01*
X190642500Y-121347931D01*
X190642500Y-121347928D01*
X190617502Y-121222261D01*
X190617501Y-121222260D01*
X190617501Y-121222256D01*
X190568465Y-121103873D01*
X190568464Y-121103872D01*
X190568461Y-121103866D01*
X190497276Y-120997331D01*
X190497273Y-120997327D01*
X190406672Y-120906726D01*
X190406668Y-120906723D01*
X190300133Y-120835538D01*
X190300124Y-120835533D01*
X190181744Y-120786499D01*
X190181738Y-120786497D01*
X190056071Y-120761500D01*
X190056069Y-120761500D01*
X189927931Y-120761500D01*
X189927929Y-120761500D01*
X189802261Y-120786497D01*
X189802255Y-120786499D01*
X189683875Y-120835533D01*
X189683866Y-120835538D01*
X189577331Y-120906723D01*
X189577327Y-120906726D01*
X189486726Y-120997327D01*
X189486723Y-120997331D01*
X189415538Y-121103866D01*
X189415533Y-121103875D01*
X189366499Y-121222255D01*
X189366497Y-121222261D01*
X189341500Y-121347928D01*
X189341500Y-121347931D01*
X189341500Y-121476069D01*
X189341500Y-121476071D01*
X189341499Y-121476071D01*
X187693874Y-121476071D01*
X187755276Y-121414669D01*
X187826465Y-121308127D01*
X187875501Y-121189744D01*
X187900500Y-121064069D01*
X187900500Y-120935931D01*
X187900500Y-120935928D01*
X187875502Y-120810261D01*
X187875501Y-120810260D01*
X187875501Y-120810256D01*
X187826465Y-120691873D01*
X187826464Y-120691872D01*
X187826461Y-120691866D01*
X187755276Y-120585331D01*
X187755273Y-120585327D01*
X187664672Y-120494726D01*
X187664668Y-120494723D01*
X187558133Y-120423538D01*
X187558124Y-120423533D01*
X187439744Y-120374499D01*
X187439738Y-120374497D01*
X187314071Y-120349500D01*
X187314069Y-120349500D01*
X187185931Y-120349500D01*
X187185929Y-120349500D01*
X187060261Y-120374497D01*
X187060255Y-120374499D01*
X186941875Y-120423533D01*
X186941866Y-120423538D01*
X186835331Y-120494723D01*
X186835327Y-120494726D01*
X186744726Y-120585327D01*
X186744723Y-120585331D01*
X186673538Y-120691866D01*
X186673533Y-120691875D01*
X186624499Y-120810255D01*
X186624497Y-120810261D01*
X186599500Y-120935928D01*
X186599500Y-120935931D01*
X186599500Y-121064069D01*
X186599500Y-121064071D01*
X186599499Y-121064071D01*
X176193701Y-121064071D01*
X175336538Y-115764071D01*
X178899499Y-115764071D01*
X178924497Y-115889738D01*
X178924499Y-115889744D01*
X178973533Y-116008124D01*
X178973538Y-116008133D01*
X179044723Y-116114668D01*
X179044726Y-116114672D01*
X179135327Y-116205273D01*
X179135331Y-116205276D01*
X179241866Y-116276461D01*
X179241872Y-116276464D01*
X179241873Y-116276465D01*
X179360256Y-116325501D01*
X179360260Y-116325501D01*
X179360261Y-116325502D01*
X179485928Y-116350500D01*
X179485931Y-116350500D01*
X179614071Y-116350500D01*
X179698615Y-116333682D01*
X179739744Y-116325501D01*
X179858127Y-116276465D01*
X179964669Y-116205276D01*
X180055276Y-116114669D01*
X180126465Y-116008127D01*
X180175501Y-115889744D01*
X180200500Y-115764069D01*
X180200500Y-115635931D01*
X180200500Y-115635928D01*
X180186206Y-115564071D01*
X181599499Y-115564071D01*
X181624497Y-115689738D01*
X181624499Y-115689744D01*
X181673533Y-115808124D01*
X181673538Y-115808133D01*
X181744723Y-115914668D01*
X181744726Y-115914672D01*
X181835327Y-116005273D01*
X181835331Y-116005276D01*
X181941866Y-116076461D01*
X181941872Y-116076464D01*
X181941873Y-116076465D01*
X182060256Y-116125501D01*
X182060260Y-116125501D01*
X182060261Y-116125502D01*
X182185928Y-116150500D01*
X182185931Y-116150500D01*
X182314071Y-116150500D01*
X182398615Y-116133682D01*
X182439744Y-116125501D01*
X182558127Y-116076465D01*
X182664669Y-116005276D01*
X182755276Y-115914669D01*
X182826465Y-115808127D01*
X182875501Y-115689744D01*
X182900500Y-115564069D01*
X182900500Y-115435931D01*
X182900500Y-115435928D01*
X182875502Y-115310261D01*
X182875501Y-115310260D01*
X182875501Y-115310256D01*
X182826465Y-115191873D01*
X182826464Y-115191872D01*
X182826461Y-115191866D01*
X182755276Y-115085331D01*
X182755273Y-115085327D01*
X182664672Y-114994726D01*
X182664668Y-114994723D01*
X182558133Y-114923538D01*
X182558124Y-114923533D01*
X182439744Y-114874499D01*
X182439738Y-114874497D01*
X182314071Y-114849500D01*
X182314069Y-114849500D01*
X182185931Y-114849500D01*
X182185929Y-114849500D01*
X182060261Y-114874497D01*
X182060255Y-114874499D01*
X181941875Y-114923533D01*
X181941866Y-114923538D01*
X181835331Y-114994723D01*
X181835327Y-114994726D01*
X181744726Y-115085327D01*
X181744723Y-115085331D01*
X181673538Y-115191866D01*
X181673533Y-115191875D01*
X181624499Y-115310255D01*
X181624497Y-115310261D01*
X181599500Y-115435928D01*
X181599500Y-115435931D01*
X181599500Y-115564069D01*
X181599500Y-115564071D01*
X181599499Y-115564071D01*
X180186206Y-115564071D01*
X180175502Y-115510261D01*
X180175501Y-115510260D01*
X180175501Y-115510256D01*
X180175499Y-115510251D01*
X180161847Y-115477291D01*
X180126466Y-115391876D01*
X180126466Y-115391875D01*
X180126465Y-115391873D01*
X180126463Y-115391870D01*
X180126461Y-115391866D01*
X180055276Y-115285331D01*
X180055273Y-115285327D01*
X179964672Y-115194726D01*
X179964668Y-115194723D01*
X179858133Y-115123538D01*
X179858124Y-115123533D01*
X179739744Y-115074499D01*
X179739738Y-115074497D01*
X179614071Y-115049500D01*
X179614069Y-115049500D01*
X179485931Y-115049500D01*
X179485929Y-115049500D01*
X179360261Y-115074497D01*
X179360255Y-115074499D01*
X179241875Y-115123533D01*
X179241866Y-115123538D01*
X179135331Y-115194723D01*
X179135327Y-115194726D01*
X179044726Y-115285327D01*
X179044723Y-115285331D01*
X178973538Y-115391866D01*
X178973533Y-115391875D01*
X178924499Y-115510255D01*
X178924497Y-115510261D01*
X178899500Y-115635928D01*
X178899500Y-115635931D01*
X178899500Y-115764069D01*
X178899500Y-115764071D01*
X178899499Y-115764071D01*
X175336538Y-115764071D01*
X175118204Y-114414071D01*
X184898499Y-114414071D01*
X184923497Y-114539738D01*
X184923499Y-114539744D01*
X184972533Y-114658124D01*
X184972538Y-114658133D01*
X185043723Y-114764668D01*
X185043726Y-114764672D01*
X185134327Y-114855273D01*
X185134331Y-114855276D01*
X185240866Y-114926461D01*
X185240872Y-114926464D01*
X185240873Y-114926465D01*
X185359256Y-114975501D01*
X185359260Y-114975501D01*
X185359261Y-114975502D01*
X185484928Y-115000500D01*
X185484931Y-115000500D01*
X185613071Y-115000500D01*
X185697615Y-114983682D01*
X185738744Y-114975501D01*
X185857127Y-114926465D01*
X185963669Y-114855276D01*
X186054276Y-114764669D01*
X186125465Y-114658127D01*
X186174501Y-114539744D01*
X186199500Y-114414069D01*
X186199500Y-114285931D01*
X186199500Y-114285928D01*
X186174502Y-114160261D01*
X186174501Y-114160260D01*
X186174501Y-114160256D01*
X186125465Y-114041873D01*
X186125464Y-114041872D01*
X186125461Y-114041866D01*
X186054276Y-113935331D01*
X186054273Y-113935327D01*
X185963672Y-113844726D01*
X185963668Y-113844723D01*
X185857133Y-113773538D01*
X185857124Y-113773533D01*
X185738744Y-113724499D01*
X185738738Y-113724497D01*
X185613071Y-113699500D01*
X185613069Y-113699500D01*
X185484931Y-113699500D01*
X185484929Y-113699500D01*
X185359261Y-113724497D01*
X185359255Y-113724499D01*
X185240875Y-113773533D01*
X185240866Y-113773538D01*
X185134331Y-113844723D01*
X185134327Y-113844726D01*
X185043726Y-113935327D01*
X185043723Y-113935331D01*
X184972538Y-114041866D01*
X184972533Y-114041875D01*
X184923499Y-114160255D01*
X184923497Y-114160261D01*
X184898500Y-114285928D01*
X184898500Y-114285931D01*
X184898500Y-114414069D01*
X184898500Y-114414071D01*
X184898499Y-114414071D01*
X175118204Y-114414071D01*
X175021167Y-113814071D01*
X180599499Y-113814071D01*
X180624497Y-113939738D01*
X180624499Y-113939744D01*
X180673533Y-114058124D01*
X180673538Y-114058133D01*
X180744723Y-114164668D01*
X180744726Y-114164672D01*
X180835327Y-114255273D01*
X180835331Y-114255276D01*
X180941866Y-114326461D01*
X180941872Y-114326464D01*
X180941873Y-114326465D01*
X181060256Y-114375501D01*
X181060260Y-114375501D01*
X181060261Y-114375502D01*
X181185928Y-114400500D01*
X181185931Y-114400500D01*
X181314071Y-114400500D01*
X181398615Y-114383682D01*
X181439744Y-114375501D01*
X181558127Y-114326465D01*
X181664669Y-114255276D01*
X181664672Y-114255273D01*
X181727788Y-114192158D01*
X181755273Y-114164672D01*
X181755276Y-114164669D01*
X181826465Y-114058127D01*
X181875501Y-113939744D01*
X181894402Y-113844724D01*
X181900500Y-113814071D01*
X181900500Y-113685928D01*
X181875502Y-113560261D01*
X181875501Y-113560260D01*
X181875501Y-113560256D01*
X181826465Y-113441873D01*
X181826464Y-113441872D01*
X181826461Y-113441866D01*
X181755276Y-113335331D01*
X181755273Y-113335327D01*
X181664672Y-113244726D01*
X181664668Y-113244723D01*
X181558133Y-113173538D01*
X181558124Y-113173533D01*
X181439744Y-113124499D01*
X181439738Y-113124497D01*
X181314071Y-113099500D01*
X181314069Y-113099500D01*
X181185931Y-113099500D01*
X181185929Y-113099500D01*
X181060261Y-113124497D01*
X181060255Y-113124499D01*
X180941875Y-113173533D01*
X180941866Y-113173538D01*
X180835331Y-113244723D01*
X180835327Y-113244726D01*
X180744726Y-113335327D01*
X180744723Y-113335331D01*
X180673538Y-113441866D01*
X180673533Y-113441875D01*
X180624499Y-113560255D01*
X180624497Y-113560261D01*
X180599500Y-113685928D01*
X180599500Y-113685931D01*
X180599500Y-113814069D01*
X180599500Y-113814071D01*
X180599499Y-113814071D01*
X175021167Y-113814071D01*
X174865236Y-112849920D01*
X179081499Y-112849920D01*
X179110340Y-112994907D01*
X179110343Y-112994917D01*
X179166912Y-113131488D01*
X179166919Y-113131501D01*
X179249048Y-113254415D01*
X179249051Y-113254419D01*
X179353580Y-113358948D01*
X179353584Y-113358951D01*
X179476498Y-113441080D01*
X179476511Y-113441087D01*
X179613082Y-113497656D01*
X179613087Y-113497658D01*
X179613091Y-113497658D01*
X179613092Y-113497659D01*
X179758079Y-113526500D01*
X179758082Y-113526500D01*
X179905920Y-113526500D01*
X180003462Y-113507096D01*
X180050913Y-113497658D01*
X180156547Y-113453902D01*
X180187488Y-113441087D01*
X180187488Y-113441086D01*
X180187495Y-113441084D01*
X180310416Y-113358951D01*
X180414951Y-113254416D01*
X180497084Y-113131495D01*
X180553658Y-112994913D01*
X180582500Y-112849918D01*
X180582500Y-112702082D01*
X180582500Y-112702079D01*
X180553659Y-112557092D01*
X180553658Y-112557091D01*
X180553658Y-112557087D01*
X180553656Y-112557082D01*
X180497087Y-112420511D01*
X180497080Y-112420498D01*
X180414951Y-112297584D01*
X180414948Y-112297580D01*
X180310419Y-112193051D01*
X180310415Y-112193048D01*
X180187501Y-112110919D01*
X180187488Y-112110912D01*
X180050917Y-112054343D01*
X180050907Y-112054340D01*
X179905920Y-112025500D01*
X179905918Y-112025500D01*
X179758082Y-112025500D01*
X179758080Y-112025500D01*
X179613092Y-112054340D01*
X179613082Y-112054343D01*
X179476511Y-112110912D01*
X179476498Y-112110919D01*
X179353584Y-112193048D01*
X179353580Y-112193051D01*
X179249051Y-112297580D01*
X179249048Y-112297584D01*
X179166919Y-112420498D01*
X179166912Y-112420511D01*
X179110343Y-112557082D01*
X179110340Y-112557092D01*
X179081500Y-112702079D01*
X179081500Y-112702082D01*
X179081500Y-112849918D01*
X179081500Y-112849920D01*
X179081499Y-112849920D01*
X174865236Y-112849920D01*
X174505996Y-110628672D01*
X174514724Y-110559354D01*
X174559527Y-110505769D01*
X174562905Y-110503512D01*
X174653512Y-110412905D01*
X174724701Y-110306363D01*
X174773737Y-110187980D01*
X174798736Y-110062305D01*
X174798736Y-109934167D01*
X174798736Y-109934164D01*
X174773738Y-109808497D01*
X174773737Y-109808496D01*
X174773737Y-109808492D01*
X174724701Y-109690109D01*
X174724700Y-109690108D01*
X174724697Y-109690102D01*
X174653512Y-109583567D01*
X174653509Y-109583563D01*
X174562908Y-109492962D01*
X174562904Y-109492959D01*
X174456369Y-109421774D01*
X174456359Y-109421769D01*
X174364265Y-109383622D01*
X174309861Y-109339781D01*
X174289310Y-109288861D01*
X174241217Y-108991491D01*
X174249946Y-108922171D01*
X174294737Y-108868593D01*
X174314669Y-108855276D01*
X174405276Y-108764669D01*
X174476465Y-108658127D01*
X174525501Y-108539744D01*
X174540554Y-108464071D01*
X174799499Y-108464071D01*
X174824497Y-108589738D01*
X174824499Y-108589744D01*
X174873533Y-108708124D01*
X174873538Y-108708133D01*
X174944723Y-108814668D01*
X174944726Y-108814672D01*
X175035327Y-108905273D01*
X175035331Y-108905276D01*
X175141866Y-108976461D01*
X175141872Y-108976464D01*
X175141873Y-108976465D01*
X175260256Y-109025501D01*
X175260260Y-109025501D01*
X175260261Y-109025502D01*
X175385928Y-109050500D01*
X175385931Y-109050500D01*
X175514071Y-109050500D01*
X175598615Y-109033682D01*
X175639744Y-109025501D01*
X175758127Y-108976465D01*
X175864669Y-108905276D01*
X175955276Y-108814669D01*
X176026465Y-108708127D01*
X176075501Y-108589744D01*
X176090494Y-108514371D01*
X176100500Y-108464071D01*
X176100500Y-108335928D01*
X176075502Y-108210261D01*
X176075501Y-108210260D01*
X176075501Y-108210256D01*
X176026465Y-108091873D01*
X176026464Y-108091872D01*
X176026461Y-108091866D01*
X175955276Y-107985331D01*
X175955273Y-107985327D01*
X175864672Y-107894726D01*
X175864668Y-107894723D01*
X175758133Y-107823538D01*
X175758124Y-107823533D01*
X175639744Y-107774499D01*
X175639738Y-107774497D01*
X175514071Y-107749500D01*
X175514069Y-107749500D01*
X175385931Y-107749500D01*
X175385929Y-107749500D01*
X175260261Y-107774497D01*
X175260255Y-107774499D01*
X175141875Y-107823533D01*
X175141866Y-107823538D01*
X175035331Y-107894723D01*
X175035327Y-107894726D01*
X174944726Y-107985327D01*
X174944723Y-107985331D01*
X174873538Y-108091866D01*
X174873533Y-108091875D01*
X174824499Y-108210255D01*
X174824497Y-108210261D01*
X174799500Y-108335928D01*
X174799500Y-108335931D01*
X174799500Y-108464069D01*
X174799500Y-108464071D01*
X174799499Y-108464071D01*
X174540554Y-108464071D01*
X174543511Y-108449206D01*
X174550500Y-108414071D01*
X174550500Y-108285928D01*
X174525502Y-108160261D01*
X174525501Y-108160260D01*
X174525501Y-108160256D01*
X174476465Y-108041873D01*
X174476464Y-108041872D01*
X174476461Y-108041866D01*
X174405276Y-107935331D01*
X174405273Y-107935327D01*
X174314672Y-107844726D01*
X174314668Y-107844723D01*
X174208133Y-107773538D01*
X174208124Y-107773533D01*
X174096383Y-107727249D01*
X174041980Y-107683408D01*
X174021427Y-107632487D01*
X174000000Y-107500000D01*
X173999999Y-107499999D01*
X167472645Y-107264071D01*
X186099499Y-107264071D01*
X186124497Y-107389738D01*
X186124499Y-107389744D01*
X186173533Y-107508124D01*
X186173538Y-107508133D01*
X186244723Y-107614668D01*
X186244726Y-107614672D01*
X186335327Y-107705273D01*
X186335331Y-107705276D01*
X186441866Y-107776461D01*
X186441872Y-107776464D01*
X186441873Y-107776465D01*
X186560256Y-107825501D01*
X186560260Y-107825501D01*
X186560261Y-107825502D01*
X186685928Y-107850500D01*
X186685931Y-107850500D01*
X186814071Y-107850500D01*
X186898615Y-107833682D01*
X186939744Y-107825501D01*
X187058127Y-107776465D01*
X187164669Y-107705276D01*
X187255276Y-107614669D01*
X187268284Y-107595199D01*
X187321893Y-107550396D01*
X187391217Y-107541686D01*
X187395579Y-107542473D01*
X187435930Y-107550500D01*
X187435931Y-107550500D01*
X187564071Y-107550500D01*
X187648615Y-107533682D01*
X187689744Y-107525501D01*
X187808127Y-107476465D01*
X187914669Y-107405276D01*
X188005276Y-107314669D01*
X188076465Y-107208127D01*
X188125501Y-107089744D01*
X188150500Y-106964069D01*
X188150500Y-106835931D01*
X188150500Y-106835928D01*
X188125502Y-106710261D01*
X188125501Y-106710260D01*
X188125501Y-106710256D01*
X188076465Y-106591873D01*
X188076464Y-106591872D01*
X188076461Y-106591866D01*
X188005276Y-106485331D01*
X188005273Y-106485327D01*
X187914672Y-106394726D01*
X187914668Y-106394723D01*
X187808133Y-106323538D01*
X187808124Y-106323533D01*
X187689744Y-106274499D01*
X187689738Y-106274497D01*
X187564071Y-106249500D01*
X187564069Y-106249500D01*
X187435931Y-106249500D01*
X187435929Y-106249500D01*
X187310261Y-106274497D01*
X187310255Y-106274499D01*
X187191875Y-106323533D01*
X187191866Y-106323538D01*
X187085331Y-106394723D01*
X187085327Y-106394726D01*
X186994726Y-106485327D01*
X186994719Y-106485336D01*
X186981712Y-106504802D01*
X186928099Y-106549606D01*
X186858774Y-106558312D01*
X186854420Y-106557526D01*
X186814071Y-106549500D01*
X186814069Y-106549500D01*
X186685931Y-106549500D01*
X186685929Y-106549500D01*
X186560261Y-106574497D01*
X186560255Y-106574499D01*
X186441875Y-106623533D01*
X186441866Y-106623538D01*
X186335331Y-106694723D01*
X186335327Y-106694726D01*
X186244726Y-106785327D01*
X186244723Y-106785331D01*
X186173538Y-106891866D01*
X186173533Y-106891875D01*
X186124499Y-107010255D01*
X186124497Y-107010261D01*
X186099500Y-107135928D01*
X186099500Y-107135931D01*
X186099500Y-107264069D01*
X186099500Y-107264071D01*
X186099499Y-107264071D01*
X167472645Y-107264071D01*
X167187318Y-107253758D01*
X148546154Y-106579981D01*
X148479869Y-106557888D01*
X148459833Y-106539388D01*
X148459584Y-106539638D01*
X148364672Y-106444726D01*
X148364668Y-106444723D01*
X148258133Y-106373538D01*
X148258124Y-106373533D01*
X148139744Y-106324499D01*
X148139738Y-106324497D01*
X148014071Y-106299500D01*
X148014069Y-106299500D01*
X147885931Y-106299500D01*
X147885929Y-106299500D01*
X147760261Y-106324497D01*
X147760255Y-106324499D01*
X147641875Y-106373533D01*
X147641866Y-106373538D01*
X147535331Y-106444723D01*
X147535327Y-106444726D01*
X147478242Y-106501812D01*
X147416919Y-106535297D01*
X147386082Y-106538050D01*
X147097497Y-106527619D01*
X147031212Y-106505526D01*
X146987395Y-106451104D01*
X146979956Y-106381631D01*
X147011257Y-106319165D01*
X147054517Y-106289142D01*
X147185826Y-106234753D01*
X147308747Y-106152620D01*
X147413282Y-106048085D01*
X147495415Y-105925164D01*
X147551989Y-105788582D01*
X147577939Y-105658127D01*
X147580831Y-105643589D01*
X147580831Y-105495748D01*
X147564584Y-105414071D01*
X165699499Y-105414071D01*
X165724497Y-105539738D01*
X165724499Y-105539744D01*
X165773533Y-105658124D01*
X165773538Y-105658133D01*
X165844723Y-105764668D01*
X165844726Y-105764672D01*
X165935327Y-105855273D01*
X165935331Y-105855276D01*
X166041866Y-105926461D01*
X166041872Y-105926464D01*
X166041873Y-105926465D01*
X166160256Y-105975501D01*
X166160260Y-105975501D01*
X166160261Y-105975502D01*
X166285928Y-106000500D01*
X166285931Y-106000500D01*
X166414071Y-106000500D01*
X166498615Y-105983682D01*
X166539744Y-105975501D01*
X166651155Y-105929352D01*
X166720622Y-105921884D01*
X166780326Y-105951770D01*
X166780621Y-105951411D01*
X166782203Y-105952709D01*
X166783101Y-105953159D01*
X166785093Y-105955081D01*
X166785331Y-105955276D01*
X166891866Y-106026461D01*
X166891872Y-106026464D01*
X166891873Y-106026465D01*
X167010256Y-106075501D01*
X167010260Y-106075501D01*
X167010261Y-106075502D01*
X167135928Y-106100500D01*
X167135931Y-106100500D01*
X167264071Y-106100500D01*
X167361526Y-106081114D01*
X167389744Y-106075501D01*
X167508127Y-106026465D01*
X167614669Y-105955276D01*
X167705276Y-105864669D01*
X167776465Y-105758127D01*
X167825501Y-105639744D01*
X167850500Y-105514069D01*
X167850500Y-105385931D01*
X167850500Y-105385928D01*
X167825502Y-105260261D01*
X167825501Y-105260260D01*
X167825501Y-105260256D01*
X167776465Y-105141873D01*
X167776464Y-105141872D01*
X167776461Y-105141866D01*
X167705276Y-105035331D01*
X167705273Y-105035327D01*
X167614672Y-104944726D01*
X167614668Y-104944723D01*
X167508133Y-104873538D01*
X167508124Y-104873533D01*
X167389744Y-104824499D01*
X167389738Y-104824497D01*
X167264071Y-104799500D01*
X167264069Y-104799500D01*
X167135931Y-104799500D01*
X167135929Y-104799500D01*
X167010261Y-104824497D01*
X167010251Y-104824500D01*
X166898845Y-104870646D01*
X166829376Y-104878115D01*
X166769674Y-104848229D01*
X166769379Y-104848589D01*
X166767793Y-104847287D01*
X166766897Y-104846839D01*
X166764907Y-104844919D01*
X166764668Y-104844723D01*
X166658133Y-104773538D01*
X166658124Y-104773533D01*
X166539744Y-104724499D01*
X166539738Y-104724497D01*
X166414071Y-104699500D01*
X166414069Y-104699500D01*
X166285931Y-104699500D01*
X166285929Y-104699500D01*
X166160261Y-104724497D01*
X166160255Y-104724499D01*
X166041875Y-104773533D01*
X166041866Y-104773538D01*
X165935331Y-104844723D01*
X165935327Y-104844726D01*
X165844726Y-104935327D01*
X165844723Y-104935331D01*
X165773538Y-105041866D01*
X165773533Y-105041875D01*
X165724499Y-105160255D01*
X165724497Y-105160261D01*
X165699500Y-105285928D01*
X165699500Y-105285931D01*
X165699500Y-105414069D01*
X165699500Y-105414071D01*
X165699499Y-105414071D01*
X147564584Y-105414071D01*
X147551990Y-105350761D01*
X147551989Y-105350760D01*
X147551989Y-105350756D01*
X147525138Y-105285931D01*
X147495418Y-105214180D01*
X147495411Y-105214167D01*
X147413282Y-105091253D01*
X147413279Y-105091249D01*
X147308750Y-104986720D01*
X147308746Y-104986717D01*
X147185832Y-104904588D01*
X147185819Y-104904581D01*
X147049248Y-104848012D01*
X147049238Y-104848009D01*
X146904251Y-104819169D01*
X146904249Y-104819169D01*
X146756413Y-104819169D01*
X146756411Y-104819169D01*
X146611423Y-104848009D01*
X146611413Y-104848012D01*
X146474842Y-104904581D01*
X146474829Y-104904588D01*
X146351915Y-104986717D01*
X146351911Y-104986720D01*
X146247382Y-105091249D01*
X146247379Y-105091253D01*
X146165250Y-105214167D01*
X146165243Y-105214180D01*
X146108674Y-105350751D01*
X146108671Y-105350761D01*
X146079831Y-105495748D01*
X146079831Y-105495751D01*
X146079831Y-105643587D01*
X146079831Y-105643589D01*
X146079830Y-105643589D01*
X146108671Y-105788576D01*
X146108674Y-105788586D01*
X146165243Y-105925157D01*
X146165250Y-105925170D01*
X146247379Y-106048084D01*
X146247382Y-106048088D01*
X146351911Y-106152617D01*
X146351915Y-106152620D01*
X146474829Y-106234749D01*
X146474842Y-106234756D01*
X146554196Y-106267625D01*
X146608600Y-106311465D01*
X146630665Y-106377759D01*
X146613386Y-106445459D01*
X146562249Y-106493070D01*
X146502265Y-106506105D01*
X145475096Y-106468979D01*
X145408811Y-106446886D01*
X145365014Y-106392512D01*
X145356465Y-106371873D01*
X145356461Y-106371866D01*
X145285276Y-106265331D01*
X145285273Y-106265327D01*
X145194672Y-106174726D01*
X145194668Y-106174723D01*
X145088133Y-106103538D01*
X145088124Y-106103533D01*
X144969744Y-106054499D01*
X144969738Y-106054497D01*
X144844071Y-106029500D01*
X144844069Y-106029500D01*
X144715931Y-106029500D01*
X144715929Y-106029500D01*
X144590262Y-106054497D01*
X144590254Y-106054499D01*
X144573450Y-106061460D01*
X144503980Y-106068927D01*
X144478550Y-106061460D01*
X144461745Y-106054499D01*
X144461737Y-106054497D01*
X144336071Y-106029500D01*
X144336069Y-106029500D01*
X144207931Y-106029500D01*
X144207929Y-106029500D01*
X144082261Y-106054497D01*
X144082255Y-106054499D01*
X143963875Y-106103533D01*
X143963866Y-106103538D01*
X143857331Y-106174723D01*
X143857327Y-106174726D01*
X143766723Y-106265330D01*
X143712584Y-106346357D01*
X143658972Y-106391162D01*
X143605003Y-106401385D01*
X133320021Y-106029638D01*
X133253736Y-106007545D01*
X133209919Y-105953123D01*
X133200500Y-105905719D01*
X133200500Y-104238543D01*
X134249499Y-104238543D01*
X134287947Y-104431829D01*
X134287950Y-104431839D01*
X134363364Y-104613907D01*
X134363371Y-104613920D01*
X134472860Y-104777781D01*
X134472863Y-104777785D01*
X134612214Y-104917136D01*
X134612218Y-104917139D01*
X134776079Y-105026628D01*
X134776092Y-105026635D01*
X134932086Y-105091249D01*
X134958165Y-105102051D01*
X134958169Y-105102051D01*
X134958170Y-105102052D01*
X135151456Y-105140500D01*
X135151459Y-105140500D01*
X135348543Y-105140500D01*
X135478582Y-105114632D01*
X135541835Y-105102051D01*
X135723914Y-105026632D01*
X135887782Y-104917139D01*
X136027139Y-104777782D01*
X136136632Y-104613914D01*
X136212051Y-104431835D01*
X136230369Y-104339744D01*
X136250500Y-104238543D01*
X136250500Y-104214071D01*
X136999499Y-104214071D01*
X137024497Y-104339738D01*
X137024499Y-104339744D01*
X137073533Y-104458124D01*
X137073538Y-104458133D01*
X137144723Y-104564668D01*
X137144726Y-104564672D01*
X137235327Y-104655273D01*
X137235331Y-104655276D01*
X137341866Y-104726461D01*
X137341872Y-104726464D01*
X137341873Y-104726465D01*
X137460256Y-104775501D01*
X137460260Y-104775501D01*
X137460261Y-104775502D01*
X137585928Y-104800500D01*
X137585931Y-104800500D01*
X137714071Y-104800500D01*
X137798615Y-104783682D01*
X137839744Y-104775501D01*
X137958127Y-104726465D01*
X138064669Y-104655276D01*
X138105874Y-104614071D01*
X147549499Y-104614071D01*
X147574497Y-104739738D01*
X147574499Y-104739744D01*
X147623533Y-104858124D01*
X147623538Y-104858133D01*
X147694723Y-104964668D01*
X147694726Y-104964672D01*
X147785327Y-105055273D01*
X147785331Y-105055276D01*
X147891866Y-105126461D01*
X147891872Y-105126464D01*
X147891873Y-105126465D01*
X148010256Y-105175501D01*
X148010260Y-105175501D01*
X148010261Y-105175502D01*
X148135928Y-105200500D01*
X148135931Y-105200500D01*
X148264071Y-105200500D01*
X148348615Y-105183682D01*
X148389744Y-105175501D01*
X148508127Y-105126465D01*
X148614669Y-105055276D01*
X148705276Y-104964669D01*
X148776465Y-104858127D01*
X148825501Y-104739744D01*
X148850500Y-104614069D01*
X148850500Y-104485931D01*
X148850500Y-104485928D01*
X148825502Y-104360261D01*
X148825501Y-104360260D01*
X148825501Y-104360256D01*
X148776465Y-104241873D01*
X148776464Y-104241872D01*
X148776461Y-104241866D01*
X148705276Y-104135331D01*
X148705273Y-104135327D01*
X148614672Y-104044726D01*
X148614668Y-104044723D01*
X148508133Y-103973538D01*
X148508124Y-103973533D01*
X148389744Y-103924499D01*
X148389738Y-103924497D01*
X148264071Y-103899500D01*
X148264069Y-103899500D01*
X148135931Y-103899500D01*
X148135929Y-103899500D01*
X148010261Y-103924497D01*
X148010255Y-103924499D01*
X147891875Y-103973533D01*
X147891866Y-103973538D01*
X147785331Y-104044723D01*
X147785327Y-104044726D01*
X147694726Y-104135327D01*
X147694723Y-104135331D01*
X147623538Y-104241866D01*
X147623533Y-104241875D01*
X147574499Y-104360255D01*
X147574497Y-104360261D01*
X147549500Y-104485928D01*
X147549500Y-104485931D01*
X147549500Y-104614069D01*
X147549500Y-104614071D01*
X147549499Y-104614071D01*
X138105874Y-104614071D01*
X138155276Y-104564669D01*
X138226465Y-104458127D01*
X138275501Y-104339744D01*
X138294969Y-104241875D01*
X138300500Y-104214071D01*
X138300500Y-104085928D01*
X138275502Y-103960261D01*
X138275501Y-103960260D01*
X138275501Y-103960256D01*
X138232017Y-103855276D01*
X138226466Y-103841875D01*
X138226461Y-103841866D01*
X138155276Y-103735331D01*
X138155273Y-103735327D01*
X138064672Y-103644726D01*
X138064668Y-103644723D01*
X137958133Y-103573538D01*
X137958124Y-103573533D01*
X137839744Y-103524499D01*
X137839738Y-103524497D01*
X137714071Y-103499500D01*
X137714069Y-103499500D01*
X137585931Y-103499500D01*
X137585929Y-103499500D01*
X137460261Y-103524497D01*
X137460255Y-103524499D01*
X137341875Y-103573533D01*
X137341866Y-103573538D01*
X137235331Y-103644723D01*
X137235327Y-103644726D01*
X137144726Y-103735327D01*
X137144723Y-103735331D01*
X137073538Y-103841866D01*
X137073533Y-103841875D01*
X137024499Y-103960255D01*
X137024497Y-103960261D01*
X136999500Y-104085928D01*
X136999500Y-104085931D01*
X136999500Y-104214069D01*
X136999500Y-104214071D01*
X136999499Y-104214071D01*
X136250500Y-104214071D01*
X136250500Y-104041456D01*
X136212052Y-103848170D01*
X136212051Y-103848169D01*
X136212051Y-103848165D01*
X136190318Y-103795697D01*
X136136635Y-103666092D01*
X136136628Y-103666079D01*
X136027139Y-103502218D01*
X136027136Y-103502214D01*
X135938993Y-103414071D01*
X150749499Y-103414071D01*
X150774497Y-103539738D01*
X150774499Y-103539744D01*
X150823533Y-103658124D01*
X150823538Y-103658133D01*
X150894723Y-103764668D01*
X150894726Y-103764672D01*
X150985327Y-103855273D01*
X150985331Y-103855276D01*
X151091866Y-103926461D01*
X151091872Y-103926464D01*
X151091873Y-103926465D01*
X151210256Y-103975501D01*
X151210260Y-103975501D01*
X151210261Y-103975502D01*
X151335928Y-104000500D01*
X151335931Y-104000500D01*
X151464071Y-104000500D01*
X151548615Y-103983682D01*
X151589744Y-103975501D01*
X151708127Y-103926465D01*
X151814669Y-103855276D01*
X151905276Y-103764669D01*
X151976465Y-103658127D01*
X152025501Y-103539744D01*
X152050500Y-103414069D01*
X152050500Y-103285931D01*
X152050500Y-103285928D01*
X152025502Y-103160261D01*
X152025501Y-103160260D01*
X152025501Y-103160256D01*
X151976465Y-103041873D01*
X151976460Y-103041866D01*
X151972823Y-103036422D01*
X151972822Y-103036420D01*
X151972821Y-103036419D01*
X151930857Y-102973615D01*
X193974500Y-102973615D01*
X193974500Y-103126384D01*
X194004300Y-103276197D01*
X194004302Y-103276205D01*
X194062759Y-103417334D01*
X194062764Y-103417343D01*
X194147629Y-103544351D01*
X194147632Y-103544355D01*
X194255644Y-103652367D01*
X194255648Y-103652370D01*
X194382656Y-103737235D01*
X194382662Y-103737238D01*
X194382663Y-103737239D01*
X194523795Y-103795698D01*
X194673615Y-103825499D01*
X194673619Y-103825500D01*
X194673620Y-103825500D01*
X194826381Y-103825500D01*
X194826382Y-103825499D01*
X194976205Y-103795698D01*
X195117337Y-103737239D01*
X195244352Y-103652370D01*
X195352370Y-103544352D01*
X195437239Y-103417337D01*
X195495698Y-103276205D01*
X195525500Y-103126380D01*
X195525500Y-102973620D01*
X195524202Y-102967094D01*
X195524202Y-102967091D01*
X195520602Y-102948992D01*
X214724500Y-102948992D01*
X214724500Y-103151007D01*
X214763907Y-103349119D01*
X214763909Y-103349127D01*
X214841212Y-103535752D01*
X214841217Y-103535762D01*
X214953441Y-103703718D01*
X215096281Y-103846558D01*
X215264237Y-103958782D01*
X215264241Y-103958784D01*
X215264244Y-103958786D01*
X215450873Y-104036091D01*
X215648992Y-104075499D01*
X215648996Y-104075500D01*
X215648997Y-104075500D01*
X215851004Y-104075500D01*
X215851005Y-104075499D01*
X216049127Y-104036091D01*
X216235756Y-103958786D01*
X216403718Y-103846558D01*
X216546558Y-103703718D01*
X216658786Y-103535756D01*
X216736091Y-103349127D01*
X216775500Y-103151003D01*
X216775500Y-102948997D01*
X216736091Y-102750873D01*
X216658786Y-102564244D01*
X216658784Y-102564241D01*
X216658782Y-102564237D01*
X216546558Y-102396281D01*
X216403718Y-102253441D01*
X216235762Y-102141217D01*
X216235752Y-102141212D01*
X216049127Y-102063909D01*
X216049119Y-102063907D01*
X215851007Y-102024500D01*
X215851003Y-102024500D01*
X215648997Y-102024500D01*
X215648992Y-102024500D01*
X215450880Y-102063907D01*
X215450872Y-102063909D01*
X215264247Y-102141212D01*
X215264237Y-102141217D01*
X215096281Y-102253441D01*
X214953441Y-102396281D01*
X214841217Y-102564237D01*
X214841212Y-102564247D01*
X214763909Y-102750872D01*
X214763907Y-102750880D01*
X214724500Y-102948992D01*
X195520602Y-102948992D01*
X195495699Y-102823802D01*
X195495698Y-102823795D01*
X195437239Y-102682663D01*
X195437238Y-102682662D01*
X195437235Y-102682656D01*
X195352370Y-102555648D01*
X195352367Y-102555644D01*
X195244355Y-102447632D01*
X195244351Y-102447629D01*
X195117343Y-102362764D01*
X195117334Y-102362759D01*
X194976205Y-102304302D01*
X194976197Y-102304300D01*
X194826384Y-102274500D01*
X194826380Y-102274500D01*
X194673620Y-102274500D01*
X194673615Y-102274500D01*
X194523802Y-102304300D01*
X194523794Y-102304302D01*
X194382665Y-102362759D01*
X194382656Y-102362764D01*
X194255648Y-102447629D01*
X194255644Y-102447632D01*
X194147632Y-102555644D01*
X194147629Y-102555648D01*
X194062764Y-102682656D01*
X194062759Y-102682665D01*
X194004302Y-102823794D01*
X194004300Y-102823802D01*
X193974500Y-102973615D01*
X151930857Y-102973615D01*
X151905276Y-102935330D01*
X151814672Y-102844726D01*
X151814668Y-102844723D01*
X151708133Y-102773538D01*
X151708124Y-102773533D01*
X151589744Y-102724499D01*
X151589738Y-102724497D01*
X151464071Y-102699500D01*
X151464069Y-102699500D01*
X151335931Y-102699500D01*
X151335929Y-102699500D01*
X151210261Y-102724497D01*
X151210255Y-102724499D01*
X151091875Y-102773533D01*
X151091866Y-102773538D01*
X150985331Y-102844723D01*
X150985327Y-102844726D01*
X150894726Y-102935327D01*
X150894723Y-102935331D01*
X150823538Y-103041866D01*
X150823533Y-103041875D01*
X150774499Y-103160255D01*
X150774497Y-103160261D01*
X150749500Y-103285928D01*
X150749500Y-103285931D01*
X150749500Y-103414069D01*
X150749500Y-103414071D01*
X150749499Y-103414071D01*
X135938993Y-103414071D01*
X135887785Y-103362863D01*
X135887781Y-103362860D01*
X135723920Y-103253371D01*
X135723907Y-103253364D01*
X135541839Y-103177950D01*
X135541829Y-103177947D01*
X135348543Y-103139500D01*
X135348541Y-103139500D01*
X135151459Y-103139500D01*
X135151457Y-103139500D01*
X134958170Y-103177947D01*
X134958160Y-103177950D01*
X134776092Y-103253364D01*
X134776079Y-103253371D01*
X134612218Y-103362860D01*
X134612214Y-103362863D01*
X134472863Y-103502214D01*
X134472860Y-103502218D01*
X134363371Y-103666079D01*
X134363364Y-103666092D01*
X134287950Y-103848160D01*
X134287947Y-103848170D01*
X134249500Y-104041456D01*
X134249500Y-104041459D01*
X134249500Y-104238541D01*
X134249500Y-104238543D01*
X134249499Y-104238543D01*
X133200500Y-104238543D01*
X133200500Y-101698543D01*
X134249499Y-101698543D01*
X134287947Y-101891829D01*
X134287950Y-101891839D01*
X134363364Y-102073907D01*
X134363371Y-102073920D01*
X134472860Y-102237781D01*
X134472863Y-102237785D01*
X134612214Y-102377136D01*
X134612218Y-102377139D01*
X134776079Y-102486628D01*
X134776092Y-102486635D01*
X134958160Y-102562049D01*
X134958165Y-102562051D01*
X134958169Y-102562051D01*
X134958170Y-102562052D01*
X135151456Y-102600500D01*
X135151459Y-102600500D01*
X135348543Y-102600500D01*
X135478582Y-102574632D01*
X135541835Y-102562051D01*
X135723914Y-102486632D01*
X135887782Y-102377139D01*
X136027139Y-102237782D01*
X136136632Y-102073914D01*
X136212051Y-101891835D01*
X136227401Y-101814668D01*
X136250500Y-101698543D01*
X136250500Y-101514071D01*
X169849499Y-101514071D01*
X169874497Y-101639738D01*
X169874499Y-101639744D01*
X169923533Y-101758124D01*
X169923538Y-101758133D01*
X169994723Y-101864668D01*
X169994726Y-101864672D01*
X170085327Y-101955273D01*
X170085331Y-101955276D01*
X170191866Y-102026461D01*
X170191872Y-102026464D01*
X170191873Y-102026465D01*
X170310256Y-102075501D01*
X170310260Y-102075501D01*
X170310261Y-102075502D01*
X170435928Y-102100500D01*
X170435931Y-102100500D01*
X170564071Y-102100500D01*
X170648615Y-102083682D01*
X170689744Y-102075501D01*
X170808127Y-102026465D01*
X170914669Y-101955276D01*
X171005276Y-101864669D01*
X171076465Y-101758127D01*
X171125501Y-101639744D01*
X171135448Y-101589738D01*
X171150500Y-101514071D01*
X171150500Y-101464071D01*
X187249499Y-101464071D01*
X187274497Y-101589738D01*
X187274499Y-101589744D01*
X187323533Y-101708124D01*
X187323538Y-101708133D01*
X187394723Y-101814668D01*
X187394726Y-101814672D01*
X187485327Y-101905273D01*
X187485331Y-101905276D01*
X187591866Y-101976461D01*
X187591872Y-101976464D01*
X187591873Y-101976465D01*
X187710256Y-102025501D01*
X187710260Y-102025501D01*
X187710261Y-102025502D01*
X187835928Y-102050500D01*
X187835931Y-102050500D01*
X187964071Y-102050500D01*
X188048615Y-102033682D01*
X188089744Y-102025501D01*
X188208127Y-101976465D01*
X188314669Y-101905276D01*
X188405276Y-101814669D01*
X188476465Y-101708127D01*
X188525501Y-101589744D01*
X188540554Y-101514069D01*
X188550500Y-101464071D01*
X188550500Y-101335928D01*
X188525502Y-101210261D01*
X188525501Y-101210260D01*
X188525501Y-101210256D01*
X188476465Y-101091873D01*
X188476464Y-101091872D01*
X188476461Y-101091866D01*
X188405276Y-100985331D01*
X188405273Y-100985327D01*
X188314672Y-100894726D01*
X188314668Y-100894723D01*
X188208133Y-100823538D01*
X188208124Y-100823533D01*
X188089744Y-100774499D01*
X188089738Y-100774497D01*
X187964071Y-100749500D01*
X187964069Y-100749500D01*
X187835931Y-100749500D01*
X187835929Y-100749500D01*
X187710261Y-100774497D01*
X187710255Y-100774499D01*
X187591875Y-100823533D01*
X187591866Y-100823538D01*
X187485331Y-100894723D01*
X187485327Y-100894726D01*
X187394726Y-100985327D01*
X187394723Y-100985331D01*
X187323538Y-101091866D01*
X187323533Y-101091875D01*
X187274499Y-101210255D01*
X187274497Y-101210261D01*
X187249500Y-101335928D01*
X187249500Y-101335931D01*
X187249500Y-101464069D01*
X187249500Y-101464071D01*
X187249499Y-101464071D01*
X171150500Y-101464071D01*
X171150500Y-101385928D01*
X171144155Y-101354031D01*
X171125502Y-101260261D01*
X171125501Y-101260260D01*
X171125501Y-101260256D01*
X171087574Y-101168692D01*
X171076466Y-101141875D01*
X171076461Y-101141866D01*
X171005276Y-101035331D01*
X171005273Y-101035327D01*
X170914672Y-100944726D01*
X170914668Y-100944723D01*
X170808133Y-100873538D01*
X170808124Y-100873533D01*
X170689744Y-100824499D01*
X170689738Y-100824497D01*
X170564071Y-100799500D01*
X170564069Y-100799500D01*
X170435931Y-100799500D01*
X170435929Y-100799500D01*
X170310261Y-100824497D01*
X170310255Y-100824499D01*
X170191875Y-100873533D01*
X170191866Y-100873538D01*
X170085331Y-100944723D01*
X170085327Y-100944726D01*
X169994726Y-101035327D01*
X169994723Y-101035331D01*
X169923538Y-101141866D01*
X169923533Y-101141875D01*
X169874499Y-101260255D01*
X169874497Y-101260261D01*
X169849500Y-101385928D01*
X169849500Y-101385931D01*
X169849500Y-101514069D01*
X169849500Y-101514071D01*
X169849499Y-101514071D01*
X136250500Y-101514071D01*
X136250500Y-101501456D01*
X136250499Y-101501454D01*
X136231121Y-101404030D01*
X136212052Y-101308170D01*
X136212051Y-101308169D01*
X136212051Y-101308165D01*
X136171184Y-101209502D01*
X136136635Y-101126092D01*
X136136628Y-101126079D01*
X136027139Y-100962218D01*
X136027136Y-100962214D01*
X135887785Y-100822863D01*
X135887781Y-100822860D01*
X135723920Y-100713371D01*
X135723907Y-100713364D01*
X135541839Y-100637950D01*
X135541829Y-100637947D01*
X135348543Y-100599500D01*
X135348541Y-100599500D01*
X135151459Y-100599500D01*
X135151457Y-100599500D01*
X134958170Y-100637947D01*
X134958160Y-100637950D01*
X134776092Y-100713364D01*
X134776079Y-100713371D01*
X134612218Y-100822860D01*
X134612214Y-100822863D01*
X134472863Y-100962214D01*
X134472860Y-100962218D01*
X134363371Y-101126079D01*
X134363364Y-101126092D01*
X134287950Y-101308160D01*
X134287947Y-101308170D01*
X134249500Y-101501456D01*
X134249500Y-101501459D01*
X134249500Y-101698541D01*
X134249500Y-101698543D01*
X134249499Y-101698543D01*
X133200500Y-101698543D01*
X133200500Y-99158543D01*
X134249499Y-99158543D01*
X134287947Y-99351829D01*
X134287950Y-99351839D01*
X134363364Y-99533907D01*
X134363371Y-99533920D01*
X134472860Y-99697781D01*
X134472863Y-99697785D01*
X134612214Y-99837136D01*
X134612218Y-99837139D01*
X134776079Y-99946628D01*
X134776092Y-99946635D01*
X134933733Y-100011931D01*
X134958165Y-100022051D01*
X134958169Y-100022051D01*
X134958170Y-100022052D01*
X135151456Y-100060500D01*
X135151459Y-100060500D01*
X135348543Y-100060500D01*
X135478582Y-100034632D01*
X135541835Y-100022051D01*
X135691010Y-99960261D01*
X135723907Y-99946635D01*
X135723907Y-99946634D01*
X135723914Y-99946632D01*
X135887782Y-99837139D01*
X135960850Y-99764071D01*
X141349499Y-99764071D01*
X141374497Y-99889738D01*
X141374499Y-99889744D01*
X141423533Y-100008124D01*
X141423538Y-100008133D01*
X141494723Y-100114668D01*
X141494726Y-100114672D01*
X141585327Y-100205273D01*
X141585331Y-100205276D01*
X141691866Y-100276461D01*
X141691872Y-100276464D01*
X141691873Y-100276465D01*
X141810256Y-100325501D01*
X141810260Y-100325501D01*
X141810261Y-100325502D01*
X141935928Y-100350500D01*
X141935931Y-100350500D01*
X142064071Y-100350500D01*
X142148615Y-100333682D01*
X142189744Y-100325501D01*
X142308127Y-100276465D01*
X142414669Y-100205276D01*
X142505276Y-100114669D01*
X142539084Y-100064071D01*
X154249499Y-100064071D01*
X154274497Y-100189738D01*
X154274499Y-100189744D01*
X154323533Y-100308124D01*
X154323538Y-100308133D01*
X154394723Y-100414668D01*
X154394726Y-100414672D01*
X154485327Y-100505273D01*
X154485331Y-100505276D01*
X154591866Y-100576461D01*
X154591875Y-100576466D01*
X154603488Y-100581276D01*
X154710256Y-100625501D01*
X154710260Y-100625501D01*
X154710261Y-100625502D01*
X154835928Y-100650500D01*
X154835931Y-100650500D01*
X154964071Y-100650500D01*
X155048615Y-100633682D01*
X155089744Y-100625501D01*
X155208127Y-100576465D01*
X155314669Y-100505276D01*
X155405276Y-100414669D01*
X155476465Y-100308127D01*
X155515424Y-100214071D01*
X160549499Y-100214071D01*
X160574497Y-100339738D01*
X160574499Y-100339744D01*
X160623533Y-100458124D01*
X160623538Y-100458133D01*
X160694723Y-100564668D01*
X160694726Y-100564672D01*
X160785327Y-100655273D01*
X160785331Y-100655276D01*
X160891866Y-100726461D01*
X160891872Y-100726464D01*
X160891873Y-100726465D01*
X161010256Y-100775501D01*
X161010260Y-100775501D01*
X161010261Y-100775502D01*
X161135928Y-100800500D01*
X161135931Y-100800500D01*
X161264071Y-100800500D01*
X161348615Y-100783682D01*
X161389744Y-100775501D01*
X161508127Y-100726465D01*
X161614669Y-100655276D01*
X161705276Y-100564669D01*
X161776465Y-100458127D01*
X161794714Y-100414071D01*
X166949499Y-100414071D01*
X166974497Y-100539738D01*
X166974499Y-100539744D01*
X167023533Y-100658124D01*
X167023538Y-100658133D01*
X167094723Y-100764668D01*
X167094726Y-100764672D01*
X167185327Y-100855273D01*
X167185331Y-100855276D01*
X167291866Y-100926461D01*
X167291872Y-100926464D01*
X167291873Y-100926465D01*
X167410256Y-100975501D01*
X167410260Y-100975501D01*
X167410261Y-100975502D01*
X167535928Y-101000500D01*
X167535931Y-101000500D01*
X167664071Y-101000500D01*
X167748615Y-100983682D01*
X167789744Y-100975501D01*
X167908127Y-100926465D01*
X168014669Y-100855276D01*
X168105276Y-100764669D01*
X168176465Y-100658127D01*
X168225501Y-100539744D01*
X168250500Y-100414069D01*
X168250500Y-100285931D01*
X168250500Y-100285928D01*
X168225502Y-100160261D01*
X168225501Y-100160260D01*
X168225501Y-100160256D01*
X168176465Y-100041873D01*
X168176464Y-100041872D01*
X168176461Y-100041866D01*
X168105276Y-99935331D01*
X168105273Y-99935327D01*
X168014672Y-99844726D01*
X168014668Y-99844723D01*
X167908133Y-99773538D01*
X167908124Y-99773533D01*
X167789744Y-99724499D01*
X167789738Y-99724497D01*
X167664071Y-99699500D01*
X167664069Y-99699500D01*
X167535931Y-99699500D01*
X167535929Y-99699500D01*
X167410261Y-99724497D01*
X167410255Y-99724499D01*
X167291875Y-99773533D01*
X167291866Y-99773538D01*
X167185331Y-99844723D01*
X167185327Y-99844726D01*
X167094726Y-99935327D01*
X167094723Y-99935331D01*
X167023538Y-100041866D01*
X167023533Y-100041875D01*
X166974499Y-100160255D01*
X166974497Y-100160261D01*
X166949500Y-100285928D01*
X166949500Y-100285931D01*
X166949500Y-100414069D01*
X166949500Y-100414071D01*
X166949499Y-100414071D01*
X161794714Y-100414071D01*
X161825501Y-100339744D01*
X161831818Y-100307987D01*
X161842230Y-100255647D01*
X161842230Y-100255646D01*
X161847736Y-100227964D01*
X161850500Y-100214069D01*
X161850500Y-100085931D01*
X161850500Y-100085928D01*
X161825502Y-99960261D01*
X161825501Y-99960260D01*
X161825501Y-99960256D01*
X161776465Y-99841873D01*
X161776464Y-99841872D01*
X161776461Y-99841866D01*
X161705276Y-99735331D01*
X161705273Y-99735327D01*
X161614672Y-99644726D01*
X161614668Y-99644723D01*
X161508133Y-99573538D01*
X161508124Y-99573533D01*
X161389744Y-99524499D01*
X161389738Y-99524497D01*
X161264071Y-99499500D01*
X161264069Y-99499500D01*
X161135931Y-99499500D01*
X161135929Y-99499500D01*
X161010261Y-99524497D01*
X161010255Y-99524499D01*
X160891875Y-99573533D01*
X160891866Y-99573538D01*
X160785331Y-99644723D01*
X160785327Y-99644726D01*
X160694726Y-99735327D01*
X160694723Y-99735331D01*
X160623538Y-99841866D01*
X160623533Y-99841875D01*
X160574499Y-99960255D01*
X160574497Y-99960261D01*
X160549500Y-100085928D01*
X160549500Y-100085931D01*
X160549500Y-100214069D01*
X160549500Y-100214071D01*
X160549499Y-100214071D01*
X155515424Y-100214071D01*
X155525501Y-100189744D01*
X155542134Y-100106129D01*
X155550500Y-100064071D01*
X155550500Y-99935928D01*
X155525502Y-99810261D01*
X155525501Y-99810260D01*
X155525501Y-99810256D01*
X155476465Y-99691873D01*
X155476464Y-99691872D01*
X155476461Y-99691866D01*
X155405276Y-99585331D01*
X155405273Y-99585327D01*
X155314672Y-99494726D01*
X155314668Y-99494723D01*
X155208133Y-99423538D01*
X155208124Y-99423533D01*
X155089744Y-99374499D01*
X155089738Y-99374497D01*
X154964071Y-99349500D01*
X154964069Y-99349500D01*
X154835931Y-99349500D01*
X154835929Y-99349500D01*
X154710261Y-99374497D01*
X154710255Y-99374499D01*
X154591875Y-99423533D01*
X154591866Y-99423538D01*
X154485331Y-99494723D01*
X154485327Y-99494726D01*
X154394726Y-99585327D01*
X154394723Y-99585331D01*
X154323538Y-99691866D01*
X154323533Y-99691875D01*
X154274499Y-99810255D01*
X154274497Y-99810261D01*
X154249500Y-99935928D01*
X154249500Y-99935931D01*
X154249500Y-100064069D01*
X154249500Y-100064071D01*
X154249499Y-100064071D01*
X142539084Y-100064071D01*
X142576465Y-100008127D01*
X142625501Y-99889744D01*
X142648415Y-99774550D01*
X142650500Y-99764071D01*
X142650500Y-99635928D01*
X142625502Y-99510261D01*
X142625501Y-99510260D01*
X142625501Y-99510256D01*
X142576465Y-99391873D01*
X142576464Y-99391872D01*
X142576461Y-99391866D01*
X142505276Y-99285331D01*
X142505273Y-99285327D01*
X142414672Y-99194726D01*
X142414668Y-99194723D01*
X142308133Y-99123538D01*
X142308124Y-99123533D01*
X142189744Y-99074499D01*
X142189738Y-99074497D01*
X142064071Y-99049500D01*
X142064069Y-99049500D01*
X141935931Y-99049500D01*
X141935929Y-99049500D01*
X141810261Y-99074497D01*
X141810255Y-99074499D01*
X141691875Y-99123533D01*
X141691866Y-99123538D01*
X141585331Y-99194723D01*
X141585327Y-99194726D01*
X141494726Y-99285327D01*
X141494723Y-99285331D01*
X141423538Y-99391866D01*
X141423533Y-99391875D01*
X141374499Y-99510255D01*
X141374497Y-99510261D01*
X141349500Y-99635928D01*
X141349500Y-99635931D01*
X141349500Y-99764069D01*
X141349500Y-99764071D01*
X141349499Y-99764071D01*
X135960850Y-99764071D01*
X136027139Y-99697782D01*
X136096241Y-99594364D01*
X136118569Y-99560948D01*
X136136628Y-99533920D01*
X136136628Y-99533919D01*
X136136632Y-99533914D01*
X136212051Y-99351835D01*
X136231846Y-99252321D01*
X136250500Y-99158543D01*
X136250500Y-98961456D01*
X136212052Y-98768170D01*
X136212051Y-98768169D01*
X136212051Y-98768165D01*
X136161172Y-98645331D01*
X136136635Y-98586092D01*
X136136628Y-98586079D01*
X136086767Y-98511457D01*
X136044802Y-98448653D01*
X170199500Y-98448653D01*
X170199500Y-98606346D01*
X170230261Y-98760989D01*
X170230264Y-98761001D01*
X170290602Y-98906672D01*
X170290609Y-98906685D01*
X170378210Y-99037788D01*
X170378213Y-99037792D01*
X170489707Y-99149286D01*
X170489711Y-99149289D01*
X170620814Y-99236890D01*
X170620826Y-99236897D01*
X170658067Y-99252322D01*
X170712471Y-99296162D01*
X170725175Y-99319429D01*
X170740602Y-99356672D01*
X170740607Y-99356681D01*
X170828207Y-99487784D01*
X170828213Y-99487792D01*
X170939707Y-99599286D01*
X170939711Y-99599289D01*
X171070814Y-99686890D01*
X171070827Y-99686897D01*
X171161603Y-99724497D01*
X171216503Y-99747237D01*
X171320257Y-99767875D01*
X171371153Y-99777999D01*
X171371156Y-99778000D01*
X171371158Y-99778000D01*
X171528844Y-99778000D01*
X171528845Y-99777999D01*
X171683497Y-99747237D01*
X171817159Y-99691873D01*
X171829172Y-99686897D01*
X171829172Y-99686896D01*
X171829179Y-99686894D01*
X171911227Y-99632071D01*
X201025499Y-99632071D01*
X201050497Y-99757737D01*
X201050499Y-99757745D01*
X201057460Y-99774550D01*
X201064927Y-99844020D01*
X201057460Y-99869450D01*
X201050499Y-99886254D01*
X201050497Y-99886262D01*
X201025500Y-100011928D01*
X201025500Y-100011931D01*
X201025500Y-100140069D01*
X201025500Y-100140071D01*
X201025499Y-100140071D01*
X201050497Y-100265737D01*
X201050499Y-100265745D01*
X201057460Y-100282550D01*
X201064927Y-100352020D01*
X201057460Y-100377450D01*
X201050499Y-100394254D01*
X201050497Y-100394262D01*
X201025500Y-100519928D01*
X201025500Y-100519931D01*
X201025500Y-100648069D01*
X201025500Y-100648071D01*
X201025499Y-100648071D01*
X201050496Y-100773733D01*
X201050499Y-100773744D01*
X201099533Y-100892124D01*
X201099538Y-100892133D01*
X201170723Y-100998668D01*
X201170726Y-100998672D01*
X201261327Y-101089273D01*
X201261331Y-101089276D01*
X201367866Y-101160461D01*
X201367872Y-101160464D01*
X201367873Y-101160465D01*
X201486256Y-101209501D01*
X201486260Y-101209501D01*
X201486261Y-101209502D01*
X201611928Y-101234500D01*
X201611931Y-101234500D01*
X201740071Y-101234500D01*
X201824615Y-101217682D01*
X201865744Y-101209501D01*
X201931882Y-101182105D01*
X202001347Y-101174637D01*
X202063827Y-101205911D01*
X202099480Y-101266000D01*
X202096987Y-101335825D01*
X202093893Y-101344119D01*
X202066500Y-101410251D01*
X202066497Y-101410261D01*
X202041500Y-101535928D01*
X202041500Y-101535931D01*
X202041500Y-101664069D01*
X202041500Y-101664071D01*
X202041499Y-101664071D01*
X202066497Y-101789738D01*
X202066499Y-101789744D01*
X202115533Y-101908124D01*
X202115538Y-101908133D01*
X202186723Y-102014668D01*
X202186726Y-102014672D01*
X202277327Y-102105273D01*
X202277331Y-102105276D01*
X202383866Y-102176461D01*
X202383872Y-102176464D01*
X202383873Y-102176465D01*
X202502256Y-102225501D01*
X202502260Y-102225501D01*
X202502261Y-102225502D01*
X202627928Y-102250500D01*
X202627931Y-102250500D01*
X202756071Y-102250500D01*
X202840615Y-102233682D01*
X202881744Y-102225501D01*
X203000127Y-102176465D01*
X203106669Y-102105276D01*
X203197276Y-102014669D01*
X203268465Y-101908127D01*
X203317501Y-101789744D01*
X203342500Y-101664069D01*
X203342500Y-101535931D01*
X203342500Y-101535928D01*
X203317502Y-101410261D01*
X203317501Y-101410260D01*
X203317501Y-101410256D01*
X203279574Y-101318692D01*
X203268466Y-101291875D01*
X203268461Y-101291866D01*
X203197276Y-101185331D01*
X203197273Y-101185327D01*
X203106672Y-101094726D01*
X203106668Y-101094723D01*
X203000133Y-101023538D01*
X203000124Y-101023533D01*
X202881744Y-100974499D01*
X202881738Y-100974497D01*
X202756071Y-100949500D01*
X202756069Y-100949500D01*
X202627931Y-100949500D01*
X202627929Y-100949500D01*
X202502261Y-100974497D01*
X202502251Y-100974500D01*
X202436119Y-101001893D01*
X202366650Y-101009362D01*
X202304171Y-100978086D01*
X202268519Y-100917997D01*
X202271013Y-100848172D01*
X202274094Y-100839909D01*
X202301501Y-100773744D01*
X202301502Y-100773736D01*
X202301504Y-100773733D01*
X202326500Y-100648071D01*
X202326500Y-100519928D01*
X202301502Y-100394261D01*
X202301501Y-100394260D01*
X202301501Y-100394256D01*
X202294540Y-100377450D01*
X202287071Y-100307987D01*
X202294538Y-100282553D01*
X202301501Y-100265744D01*
X202315871Y-100193502D01*
X202326500Y-100140071D01*
X202326500Y-100011928D01*
X202301502Y-99886261D01*
X202301501Y-99886260D01*
X202301501Y-99886256D01*
X202294540Y-99869450D01*
X202287071Y-99799987D01*
X202294538Y-99774553D01*
X202301501Y-99757744D01*
X202320679Y-99661333D01*
X202326500Y-99632071D01*
X202326500Y-99503928D01*
X202301502Y-99378261D01*
X202301501Y-99378260D01*
X202301501Y-99378256D01*
X202252465Y-99259873D01*
X202252464Y-99259872D01*
X202252461Y-99259866D01*
X202181276Y-99153331D01*
X202181273Y-99153327D01*
X202152017Y-99124071D01*
X216773499Y-99124071D01*
X216798497Y-99249738D01*
X216798499Y-99249744D01*
X216847533Y-99368124D01*
X216847538Y-99368133D01*
X216918723Y-99474668D01*
X216918726Y-99474672D01*
X216924373Y-99480319D01*
X216957858Y-99541642D01*
X216952874Y-99611334D01*
X216924373Y-99655681D01*
X216918726Y-99661327D01*
X216918723Y-99661331D01*
X216847538Y-99767866D01*
X216847533Y-99767875D01*
X216798499Y-99886255D01*
X216798497Y-99886261D01*
X216773500Y-100011928D01*
X216773500Y-100011931D01*
X216773500Y-100140069D01*
X216773500Y-100140071D01*
X216773499Y-100140071D01*
X216798497Y-100265738D01*
X216798499Y-100265744D01*
X216847533Y-100384124D01*
X216847538Y-100384133D01*
X216918723Y-100490668D01*
X216918726Y-100490672D01*
X217009327Y-100581273D01*
X217009331Y-100581276D01*
X217115866Y-100652461D01*
X217115872Y-100652464D01*
X217115873Y-100652465D01*
X217234256Y-100701501D01*
X217234260Y-100701501D01*
X217234261Y-100701502D01*
X217359928Y-100726500D01*
X217359931Y-100726500D01*
X217488071Y-100726500D01*
X217572615Y-100709682D01*
X217613744Y-100701501D01*
X217732127Y-100652465D01*
X217838669Y-100581276D01*
X217929276Y-100490669D01*
X218000465Y-100384127D01*
X218049501Y-100265744D01*
X218049502Y-100265734D01*
X218051270Y-100259912D01*
X218053674Y-100260641D01*
X218080947Y-100208475D01*
X218141654Y-100173886D01*
X218211425Y-100177610D01*
X218217629Y-100179986D01*
X218250256Y-100193501D01*
X218250260Y-100193501D01*
X218250261Y-100193502D01*
X218375928Y-100218500D01*
X218375931Y-100218500D01*
X218504071Y-100218500D01*
X218588615Y-100201682D01*
X218629744Y-100193501D01*
X218662349Y-100179995D01*
X218731813Y-100172526D01*
X218794293Y-100203799D01*
X218827762Y-100260205D01*
X218828730Y-100259912D01*
X218829924Y-100263848D01*
X218829947Y-100263887D01*
X218829980Y-100264032D01*
X218830499Y-100265744D01*
X218879533Y-100384124D01*
X218879538Y-100384133D01*
X218950723Y-100490668D01*
X218950726Y-100490672D01*
X219041327Y-100581273D01*
X219041331Y-100581276D01*
X219147866Y-100652461D01*
X219147872Y-100652464D01*
X219147873Y-100652465D01*
X219266256Y-100701501D01*
X219266260Y-100701501D01*
X219266261Y-100701502D01*
X219391928Y-100726500D01*
X219391931Y-100726500D01*
X219520071Y-100726500D01*
X219604615Y-100709682D01*
X219645744Y-100701501D01*
X219764127Y-100652465D01*
X219870669Y-100581276D01*
X219961276Y-100490669D01*
X220032465Y-100384127D01*
X220081501Y-100265744D01*
X220095871Y-100193502D01*
X220106500Y-100140071D01*
X220106500Y-100011928D01*
X220081502Y-99886261D01*
X220081501Y-99886260D01*
X220081501Y-99886256D01*
X220034810Y-99773535D01*
X220032466Y-99767875D01*
X220032461Y-99767866D01*
X219961277Y-99661333D01*
X219961276Y-99661331D01*
X219955628Y-99655683D01*
X219922142Y-99594364D01*
X219927123Y-99524672D01*
X219955628Y-99480316D01*
X219961276Y-99474669D01*
X220032465Y-99368127D01*
X220081501Y-99249744D01*
X220092445Y-99194726D01*
X220106500Y-99124071D01*
X220106500Y-98995928D01*
X220081502Y-98870261D01*
X220081501Y-98870260D01*
X220081501Y-98870256D01*
X220043574Y-98778692D01*
X220032466Y-98751875D01*
X220032461Y-98751866D01*
X219961276Y-98645331D01*
X219961273Y-98645327D01*
X219870672Y-98554726D01*
X219870668Y-98554723D01*
X219764133Y-98483538D01*
X219764124Y-98483533D01*
X219645744Y-98434499D01*
X219645738Y-98434497D01*
X219520071Y-98409500D01*
X219520069Y-98409500D01*
X219391931Y-98409500D01*
X219391929Y-98409500D01*
X219266261Y-98434497D01*
X219266255Y-98434499D01*
X219147875Y-98483533D01*
X219147866Y-98483538D01*
X219041331Y-98554723D01*
X219041327Y-98554726D01*
X218950726Y-98645327D01*
X218950723Y-98645331D01*
X218879538Y-98751866D01*
X218879533Y-98751875D01*
X218830499Y-98870255D01*
X218828730Y-98876088D01*
X218826344Y-98875364D01*
X218798979Y-98927601D01*
X218738242Y-98962137D01*
X218668475Y-98958354D01*
X218662358Y-98956008D01*
X218629744Y-98942499D01*
X218629738Y-98942497D01*
X218504071Y-98917500D01*
X218504069Y-98917500D01*
X218375931Y-98917500D01*
X218375929Y-98917500D01*
X218250261Y-98942497D01*
X218250251Y-98942500D01*
X218217651Y-98956004D01*
X218148182Y-98963473D01*
X218085703Y-98932198D01*
X218052238Y-98875794D01*
X218051270Y-98876088D01*
X218050074Y-98872147D01*
X218050051Y-98872108D01*
X218050016Y-98871956D01*
X218049502Y-98870261D01*
X218049501Y-98870256D01*
X218011574Y-98778692D01*
X218000466Y-98751875D01*
X218000461Y-98751866D01*
X217929276Y-98645331D01*
X217929273Y-98645327D01*
X217838672Y-98554726D01*
X217838668Y-98554723D01*
X217732133Y-98483538D01*
X217732124Y-98483533D01*
X217613744Y-98434499D01*
X217613738Y-98434497D01*
X217488071Y-98409500D01*
X217488069Y-98409500D01*
X217359931Y-98409500D01*
X217359929Y-98409500D01*
X217234261Y-98434497D01*
X217234255Y-98434499D01*
X217115875Y-98483533D01*
X217115866Y-98483538D01*
X217009331Y-98554723D01*
X217009327Y-98554726D01*
X216918726Y-98645327D01*
X216918723Y-98645331D01*
X216847538Y-98751866D01*
X216847533Y-98751875D01*
X216798499Y-98870255D01*
X216798497Y-98870261D01*
X216773500Y-98995928D01*
X216773500Y-98995931D01*
X216773500Y-99124069D01*
X216773500Y-99124071D01*
X216773499Y-99124071D01*
X202152017Y-99124071D01*
X202090672Y-99062726D01*
X202090668Y-99062723D01*
X201984133Y-98991538D01*
X201984124Y-98991533D01*
X201865744Y-98942499D01*
X201865738Y-98942497D01*
X201740071Y-98917500D01*
X201740069Y-98917500D01*
X201611931Y-98917500D01*
X201611929Y-98917500D01*
X201486261Y-98942497D01*
X201486255Y-98942499D01*
X201367875Y-98991533D01*
X201367866Y-98991538D01*
X201261331Y-99062723D01*
X201261327Y-99062726D01*
X201170726Y-99153327D01*
X201170723Y-99153331D01*
X201099538Y-99259866D01*
X201099533Y-99259875D01*
X201050499Y-99378255D01*
X201050497Y-99378261D01*
X201025500Y-99503928D01*
X201025500Y-99503931D01*
X201025500Y-99632069D01*
X201025500Y-99632071D01*
X201025499Y-99632071D01*
X171911227Y-99632071D01*
X171960289Y-99599289D01*
X172071789Y-99487789D01*
X172159394Y-99356679D01*
X172177876Y-99312057D01*
X172181842Y-99305150D01*
X172201540Y-99286274D01*
X172218660Y-99265029D01*
X172230403Y-99258616D01*
X172232290Y-99256809D01*
X172234506Y-99256376D01*
X172241927Y-99252323D01*
X172279179Y-99236894D01*
X172410289Y-99149289D01*
X172521789Y-99037789D01*
X172609394Y-98906679D01*
X172669737Y-98760997D01*
X172698963Y-98614071D01*
X187499499Y-98614071D01*
X187524497Y-98739738D01*
X187524499Y-98739744D01*
X187573533Y-98858124D01*
X187573538Y-98858133D01*
X187644723Y-98964668D01*
X187644726Y-98964672D01*
X187735327Y-99055273D01*
X187735331Y-99055276D01*
X187841866Y-99126461D01*
X187841872Y-99126464D01*
X187841873Y-99126465D01*
X187960256Y-99175501D01*
X187960260Y-99175501D01*
X187960261Y-99175502D01*
X188085928Y-99200500D01*
X188085931Y-99200500D01*
X188214071Y-99200500D01*
X188298615Y-99183682D01*
X188339744Y-99175501D01*
X188458127Y-99126465D01*
X188564669Y-99055276D01*
X188655276Y-98964669D01*
X188726465Y-98858127D01*
X188775501Y-98739744D01*
X188783682Y-98698615D01*
X188800500Y-98614071D01*
X188800500Y-98485928D01*
X188775502Y-98360261D01*
X188775501Y-98360260D01*
X188775501Y-98360256D01*
X188737574Y-98268692D01*
X188726466Y-98241875D01*
X188726461Y-98241866D01*
X188655276Y-98135331D01*
X188655273Y-98135327D01*
X188564672Y-98044726D01*
X188564668Y-98044723D01*
X188458133Y-97973538D01*
X188458124Y-97973533D01*
X188339744Y-97924499D01*
X188339738Y-97924497D01*
X188214071Y-97899500D01*
X188214069Y-97899500D01*
X188085931Y-97899500D01*
X188085929Y-97899500D01*
X187960261Y-97924497D01*
X187960255Y-97924499D01*
X187841875Y-97973533D01*
X187841866Y-97973538D01*
X187735331Y-98044723D01*
X187735327Y-98044726D01*
X187644726Y-98135327D01*
X187644723Y-98135331D01*
X187573538Y-98241866D01*
X187573533Y-98241875D01*
X187524499Y-98360255D01*
X187524497Y-98360261D01*
X187499500Y-98485928D01*
X187499500Y-98485931D01*
X187499500Y-98614069D01*
X187499500Y-98614071D01*
X187499499Y-98614071D01*
X172698963Y-98614071D01*
X172700500Y-98606342D01*
X172700500Y-98448658D01*
X172700500Y-98448655D01*
X172700499Y-98448653D01*
X172692711Y-98409500D01*
X172669737Y-98294003D01*
X172665122Y-98282861D01*
X172609397Y-98148327D01*
X172609390Y-98148314D01*
X172521789Y-98017211D01*
X172521786Y-98017207D01*
X172410292Y-97905713D01*
X172410284Y-97905707D01*
X172279181Y-97818107D01*
X172279172Y-97818102D01*
X172241929Y-97802675D01*
X172187526Y-97758833D01*
X172174822Y-97735567D01*
X172159397Y-97698326D01*
X172159390Y-97698314D01*
X172071789Y-97567211D01*
X172071786Y-97567207D01*
X171960292Y-97455713D01*
X171960288Y-97455710D01*
X171829185Y-97368109D01*
X171829172Y-97368102D01*
X171683501Y-97307764D01*
X171683489Y-97307761D01*
X171528845Y-97277000D01*
X171528842Y-97277000D01*
X171371158Y-97277000D01*
X171371155Y-97277000D01*
X171216510Y-97307761D01*
X171216498Y-97307764D01*
X171070827Y-97368102D01*
X171070814Y-97368109D01*
X170939711Y-97455710D01*
X170939707Y-97455713D01*
X170828213Y-97567207D01*
X170828207Y-97567215D01*
X170740607Y-97698318D01*
X170740606Y-97698319D01*
X170725174Y-97735573D01*
X170681331Y-97789974D01*
X170658073Y-97802674D01*
X170620819Y-97818106D01*
X170620818Y-97818107D01*
X170489715Y-97905707D01*
X170489707Y-97905713D01*
X170378213Y-98017207D01*
X170378210Y-98017211D01*
X170290609Y-98148314D01*
X170290602Y-98148327D01*
X170230264Y-98293998D01*
X170230261Y-98294010D01*
X170199500Y-98448653D01*
X136044802Y-98448653D01*
X136027139Y-98422218D01*
X136027136Y-98422214D01*
X135887785Y-98282863D01*
X135887781Y-98282860D01*
X135723920Y-98173371D01*
X135723907Y-98173364D01*
X135541839Y-98097950D01*
X135541829Y-98097947D01*
X135348543Y-98059500D01*
X135348541Y-98059500D01*
X135151459Y-98059500D01*
X135151457Y-98059500D01*
X134958170Y-98097947D01*
X134958160Y-98097950D01*
X134776092Y-98173364D01*
X134776079Y-98173371D01*
X134612218Y-98282860D01*
X134612214Y-98282863D01*
X134472863Y-98422214D01*
X134472860Y-98422218D01*
X134363371Y-98586079D01*
X134363364Y-98586092D01*
X134287950Y-98768160D01*
X134287947Y-98768170D01*
X134249500Y-98961456D01*
X134249500Y-98961459D01*
X134249500Y-99158541D01*
X134249500Y-99158543D01*
X134249499Y-99158543D01*
X133200500Y-99158543D01*
X133200500Y-97600071D01*
X160385499Y-97600071D01*
X160410497Y-97725738D01*
X160410499Y-97725744D01*
X160459533Y-97844124D01*
X160459538Y-97844133D01*
X160530723Y-97950668D01*
X160530726Y-97950672D01*
X160621327Y-98041273D01*
X160621331Y-98041276D01*
X160727866Y-98112461D01*
X160727872Y-98112464D01*
X160727873Y-98112465D01*
X160846256Y-98161501D01*
X160846260Y-98161501D01*
X160846261Y-98161502D01*
X160971928Y-98186500D01*
X160971931Y-98186500D01*
X161100071Y-98186500D01*
X161184615Y-98169682D01*
X161225744Y-98161501D01*
X161344127Y-98112465D01*
X161450669Y-98041276D01*
X161541276Y-97950669D01*
X161612465Y-97844127D01*
X161661501Y-97725744D01*
X161686500Y-97600069D01*
X161686500Y-97471931D01*
X161686500Y-97471928D01*
X161661502Y-97346261D01*
X161661501Y-97346260D01*
X161661501Y-97346256D01*
X161612465Y-97227873D01*
X161612464Y-97227872D01*
X161612461Y-97227866D01*
X161541276Y-97121331D01*
X161541273Y-97121327D01*
X161450672Y-97030726D01*
X161450668Y-97030723D01*
X161344133Y-96959538D01*
X161344124Y-96959533D01*
X161225744Y-96910499D01*
X161225738Y-96910497D01*
X161100071Y-96885500D01*
X161100069Y-96885500D01*
X160971931Y-96885500D01*
X160971929Y-96885500D01*
X160846261Y-96910497D01*
X160846255Y-96910499D01*
X160727875Y-96959533D01*
X160727866Y-96959538D01*
X160621331Y-97030723D01*
X160621327Y-97030726D01*
X160530726Y-97121327D01*
X160530723Y-97121331D01*
X160459538Y-97227866D01*
X160459533Y-97227875D01*
X160410499Y-97346255D01*
X160410497Y-97346261D01*
X160385500Y-97471928D01*
X160385500Y-97471931D01*
X160385500Y-97600069D01*
X160385500Y-97600071D01*
X160385499Y-97600071D01*
X133200500Y-97600071D01*
X133200500Y-93082155D01*
X133900000Y-93082155D01*
X133900000Y-93730000D01*
X134816988Y-93730000D01*
X134784075Y-93787007D01*
X134750000Y-93914174D01*
X134750000Y-94045826D01*
X134784075Y-94172993D01*
X134816988Y-94230000D01*
X133900000Y-94230000D01*
X133900000Y-94877844D01*
X133906401Y-94937372D01*
X133906403Y-94937379D01*
X133956645Y-95072086D01*
X133956649Y-95072093D01*
X134042809Y-95187187D01*
X134042812Y-95187190D01*
X134157906Y-95273350D01*
X134157913Y-95273354D01*
X134292620Y-95323596D01*
X134292627Y-95323598D01*
X134352155Y-95329999D01*
X134352172Y-95330000D01*
X134885092Y-95330000D01*
X134952131Y-95349685D01*
X134997886Y-95402489D01*
X135007830Y-95471647D01*
X134978805Y-95535203D01*
X134932544Y-95568561D01*
X134776092Y-95633364D01*
X134776079Y-95633371D01*
X134612218Y-95742860D01*
X134612214Y-95742863D01*
X134472863Y-95882214D01*
X134472860Y-95882218D01*
X134363371Y-96046079D01*
X134363364Y-96046092D01*
X134287950Y-96228160D01*
X134287947Y-96228170D01*
X134249500Y-96421456D01*
X134249500Y-96421459D01*
X134249500Y-96618541D01*
X134249500Y-96618543D01*
X134249499Y-96618543D01*
X134287947Y-96811829D01*
X134287950Y-96811839D01*
X134363364Y-96993907D01*
X134363371Y-96993920D01*
X134472860Y-97157781D01*
X134472863Y-97157785D01*
X134612214Y-97297136D01*
X134612218Y-97297139D01*
X134776079Y-97406628D01*
X134776092Y-97406635D01*
X134933733Y-97471931D01*
X134958165Y-97482051D01*
X134958169Y-97482051D01*
X134958170Y-97482052D01*
X135151456Y-97520500D01*
X135151459Y-97520500D01*
X135348543Y-97520500D01*
X135478582Y-97494632D01*
X135541835Y-97482051D01*
X135723914Y-97406632D01*
X135781568Y-97368109D01*
X135789608Y-97362737D01*
X135887782Y-97297139D01*
X136027136Y-97157785D01*
X136027139Y-97157782D01*
X136136632Y-96993914D01*
X136212051Y-96811835D01*
X136226392Y-96739738D01*
X136250500Y-96618543D01*
X136250500Y-96614071D01*
X137049499Y-96614071D01*
X137074497Y-96739738D01*
X137074499Y-96739744D01*
X137123533Y-96858124D01*
X137123538Y-96858133D01*
X137194723Y-96964668D01*
X137194726Y-96964672D01*
X137285327Y-97055273D01*
X137285331Y-97055276D01*
X137391866Y-97126461D01*
X137391872Y-97126464D01*
X137391873Y-97126465D01*
X137510256Y-97175501D01*
X137510260Y-97175501D01*
X137510261Y-97175502D01*
X137635928Y-97200500D01*
X137635931Y-97200500D01*
X137764071Y-97200500D01*
X137848615Y-97183682D01*
X137889744Y-97175501D01*
X138008127Y-97126465D01*
X138114669Y-97055276D01*
X138205276Y-96964669D01*
X138276465Y-96858127D01*
X138325501Y-96739744D01*
X138345839Y-96637500D01*
X138350500Y-96614071D01*
X138350500Y-96485928D01*
X138325502Y-96360261D01*
X138325501Y-96360260D01*
X138325501Y-96360256D01*
X138281932Y-96255071D01*
X138276466Y-96241875D01*
X138276461Y-96241866D01*
X138205276Y-96135331D01*
X138205273Y-96135327D01*
X138146017Y-96076071D01*
X160949499Y-96076071D01*
X160974497Y-96201738D01*
X160974499Y-96201744D01*
X161023533Y-96320124D01*
X161023538Y-96320133D01*
X161094723Y-96426668D01*
X161094726Y-96426672D01*
X161185327Y-96517273D01*
X161185331Y-96517276D01*
X161291866Y-96588461D01*
X161291872Y-96588464D01*
X161291873Y-96588465D01*
X161410256Y-96637501D01*
X161410260Y-96637501D01*
X161410261Y-96637502D01*
X161535928Y-96662500D01*
X161535931Y-96662500D01*
X161664071Y-96662500D01*
X161748615Y-96645682D01*
X161789744Y-96637501D01*
X161908127Y-96588465D01*
X162014669Y-96517276D01*
X162105276Y-96426669D01*
X162130193Y-96389376D01*
X162179850Y-96315062D01*
X162180880Y-96315750D01*
X162225281Y-96270540D01*
X162293416Y-96255071D01*
X162333139Y-96264268D01*
X162360256Y-96275501D01*
X162360260Y-96275501D01*
X162360261Y-96275502D01*
X162485928Y-96300500D01*
X162485931Y-96300500D01*
X162614071Y-96300500D01*
X162707449Y-96281925D01*
X162739744Y-96275501D01*
X162858127Y-96226465D01*
X162964669Y-96155276D01*
X163055276Y-96064669D01*
X163126465Y-95958127D01*
X163144714Y-95914071D01*
X166599499Y-95914071D01*
X166624497Y-96039738D01*
X166624499Y-96039744D01*
X166673533Y-96158124D01*
X166673538Y-96158133D01*
X166744723Y-96264668D01*
X166744726Y-96264672D01*
X166835327Y-96355273D01*
X166835331Y-96355276D01*
X166941866Y-96426461D01*
X166941875Y-96426466D01*
X166968692Y-96437574D01*
X167060256Y-96475501D01*
X167060260Y-96475501D01*
X167060261Y-96475502D01*
X167185928Y-96500500D01*
X167185931Y-96500500D01*
X167314071Y-96500500D01*
X167398615Y-96483682D01*
X167439744Y-96475501D01*
X167558127Y-96426465D01*
X167664669Y-96355276D01*
X167755276Y-96264669D01*
X167826465Y-96158127D01*
X167875501Y-96039744D01*
X167893765Y-95947928D01*
X167900500Y-95914071D01*
X167900500Y-95785928D01*
X167875502Y-95660261D01*
X167875501Y-95660260D01*
X167875501Y-95660256D01*
X167826465Y-95541873D01*
X167826464Y-95541872D01*
X167826461Y-95541866D01*
X167807889Y-95514071D01*
X172699499Y-95514071D01*
X172724497Y-95639738D01*
X172724499Y-95639744D01*
X172773533Y-95758124D01*
X172773538Y-95758133D01*
X172844723Y-95864668D01*
X172844726Y-95864672D01*
X172935327Y-95955273D01*
X172935331Y-95955276D01*
X173041866Y-96026461D01*
X173041872Y-96026464D01*
X173041873Y-96026465D01*
X173160256Y-96075501D01*
X173160260Y-96075501D01*
X173160261Y-96075502D01*
X173285928Y-96100500D01*
X173336236Y-96100500D01*
X173403275Y-96120185D01*
X173449030Y-96172989D01*
X173458974Y-96242147D01*
X173439338Y-96293391D01*
X173373538Y-96391866D01*
X173373533Y-96391875D01*
X173324499Y-96510255D01*
X173324497Y-96510261D01*
X173299500Y-96635928D01*
X173299500Y-96692737D01*
X173279815Y-96759776D01*
X173240939Y-96795658D01*
X173241937Y-96797152D01*
X173236875Y-96800534D01*
X173236873Y-96800535D01*
X173197991Y-96826514D01*
X173130328Y-96871725D01*
X173039726Y-96962327D01*
X173039723Y-96962331D01*
X172968538Y-97068866D01*
X172968533Y-97068875D01*
X172919499Y-97187255D01*
X172919497Y-97187261D01*
X172894500Y-97312928D01*
X172894500Y-97312931D01*
X172894500Y-97441069D01*
X172894500Y-97441071D01*
X172894499Y-97441071D01*
X172919497Y-97566738D01*
X172919499Y-97566744D01*
X172968533Y-97685124D01*
X172968538Y-97685133D01*
X173039723Y-97791668D01*
X173039726Y-97791672D01*
X173130327Y-97882273D01*
X173130331Y-97882276D01*
X173236866Y-97953461D01*
X173236872Y-97953464D01*
X173236873Y-97953465D01*
X173355256Y-98002501D01*
X173355260Y-98002501D01*
X173355261Y-98002502D01*
X173480928Y-98027500D01*
X173480931Y-98027500D01*
X173609071Y-98027500D01*
X173693615Y-98010682D01*
X173734744Y-98002501D01*
X173853127Y-97953465D01*
X173959669Y-97882276D01*
X174050276Y-97791669D01*
X174121465Y-97685127D01*
X174130187Y-97664071D01*
X199249499Y-97664071D01*
X199274497Y-97789738D01*
X199274499Y-97789744D01*
X199323533Y-97908124D01*
X199323538Y-97908133D01*
X199394723Y-98014668D01*
X199394726Y-98014672D01*
X199485327Y-98105273D01*
X199485331Y-98105276D01*
X199591866Y-98176461D01*
X199591872Y-98176464D01*
X199591873Y-98176465D01*
X199710256Y-98225501D01*
X199710260Y-98225501D01*
X199710261Y-98225502D01*
X199835928Y-98250500D01*
X199835931Y-98250500D01*
X199964071Y-98250500D01*
X200048615Y-98233682D01*
X200089744Y-98225501D01*
X200208127Y-98176465D01*
X200314669Y-98105276D01*
X200405276Y-98014669D01*
X200476465Y-97908127D01*
X200525501Y-97789744D01*
X200550500Y-97664069D01*
X200550500Y-97535931D01*
X200550500Y-97535928D01*
X200525502Y-97410261D01*
X200525501Y-97410260D01*
X200525501Y-97410256D01*
X200476465Y-97291873D01*
X200476464Y-97291872D01*
X200476461Y-97291866D01*
X200405276Y-97185331D01*
X200405273Y-97185327D01*
X200314672Y-97094726D01*
X200314668Y-97094723D01*
X200208133Y-97023538D01*
X200208124Y-97023533D01*
X200089744Y-96974499D01*
X200089738Y-96974497D01*
X199964071Y-96949500D01*
X199964069Y-96949500D01*
X199835931Y-96949500D01*
X199835929Y-96949500D01*
X199710261Y-96974497D01*
X199710255Y-96974499D01*
X199591875Y-97023533D01*
X199591866Y-97023538D01*
X199485331Y-97094723D01*
X199485327Y-97094726D01*
X199394726Y-97185327D01*
X199394723Y-97185331D01*
X199323538Y-97291866D01*
X199323533Y-97291875D01*
X199274499Y-97410255D01*
X199274497Y-97410261D01*
X199249500Y-97535928D01*
X199249500Y-97535931D01*
X199249500Y-97664069D01*
X199249500Y-97664071D01*
X199249499Y-97664071D01*
X174130187Y-97664071D01*
X174170501Y-97566744D01*
X174195500Y-97441069D01*
X174195500Y-97377794D01*
X174196173Y-97371361D01*
X174207092Y-97344784D01*
X174215185Y-97317223D01*
X174220387Y-97312423D01*
X174222725Y-97306734D01*
X174238495Y-97295717D01*
X174254065Y-97281352D01*
X174253062Y-97279850D01*
X174330861Y-97227866D01*
X174364669Y-97205276D01*
X174455276Y-97114669D01*
X174526465Y-97008127D01*
X174575501Y-96889744D01*
X174590998Y-96811839D01*
X174600500Y-96764071D01*
X174600500Y-96635928D01*
X174575502Y-96510261D01*
X174575501Y-96510260D01*
X174575501Y-96510256D01*
X174526465Y-96391873D01*
X174526464Y-96391872D01*
X174526461Y-96391866D01*
X174453001Y-96281925D01*
X174432123Y-96215247D01*
X174450608Y-96147867D01*
X174502587Y-96101177D01*
X174508620Y-96098485D01*
X174552127Y-96080465D01*
X174658669Y-96009276D01*
X174749276Y-95918669D01*
X174820465Y-95812127D01*
X174869501Y-95693744D01*
X174872939Y-95676465D01*
X174894500Y-95568071D01*
X174894500Y-95439928D01*
X174869502Y-95314261D01*
X174869501Y-95314260D01*
X174869501Y-95314256D01*
X174831574Y-95222692D01*
X174820466Y-95195875D01*
X174820461Y-95195866D01*
X174749276Y-95089331D01*
X174749273Y-95089327D01*
X174658672Y-94998726D01*
X174658668Y-94998723D01*
X174552133Y-94927538D01*
X174552124Y-94927533D01*
X174433744Y-94878499D01*
X174433738Y-94878497D01*
X174308071Y-94853500D01*
X174308069Y-94853500D01*
X174179931Y-94853500D01*
X174179929Y-94853500D01*
X174054261Y-94878497D01*
X174054255Y-94878499D01*
X173935875Y-94927533D01*
X173935870Y-94927536D01*
X173906297Y-94947296D01*
X173839619Y-94968172D01*
X173772239Y-94949686D01*
X173768518Y-94947294D01*
X173658138Y-94873541D01*
X173658124Y-94873533D01*
X173539744Y-94824499D01*
X173539738Y-94824497D01*
X173414071Y-94799500D01*
X173414069Y-94799500D01*
X173285931Y-94799500D01*
X173285929Y-94799500D01*
X173160261Y-94824497D01*
X173160255Y-94824499D01*
X173041875Y-94873533D01*
X173041866Y-94873538D01*
X172935331Y-94944723D01*
X172935327Y-94944726D01*
X172844726Y-95035327D01*
X172844723Y-95035331D01*
X172773538Y-95141866D01*
X172773533Y-95141875D01*
X172724499Y-95260255D01*
X172724497Y-95260261D01*
X172699500Y-95385928D01*
X172699500Y-95385931D01*
X172699500Y-95514069D01*
X172699500Y-95514071D01*
X172699499Y-95514071D01*
X167807889Y-95514071D01*
X167764229Y-95448730D01*
X167764228Y-95448729D01*
X167755274Y-95435328D01*
X167664672Y-95344726D01*
X167664668Y-95344723D01*
X167558133Y-95273538D01*
X167558124Y-95273533D01*
X167439744Y-95224499D01*
X167439738Y-95224497D01*
X167314071Y-95199500D01*
X167314069Y-95199500D01*
X167185931Y-95199500D01*
X167185929Y-95199500D01*
X167060261Y-95224497D01*
X167060255Y-95224499D01*
X166941875Y-95273533D01*
X166941866Y-95273538D01*
X166835331Y-95344723D01*
X166835327Y-95344726D01*
X166744726Y-95435327D01*
X166744723Y-95435331D01*
X166673538Y-95541866D01*
X166673533Y-95541875D01*
X166624499Y-95660255D01*
X166624497Y-95660261D01*
X166599500Y-95785928D01*
X166599500Y-95785931D01*
X166599500Y-95914069D01*
X166599500Y-95914071D01*
X166599499Y-95914071D01*
X163144714Y-95914071D01*
X163175501Y-95839744D01*
X163180995Y-95812124D01*
X163192230Y-95755647D01*
X163192230Y-95755646D01*
X163200499Y-95714073D01*
X163200500Y-95714071D01*
X163200500Y-95585928D01*
X163175502Y-95460261D01*
X163175501Y-95460260D01*
X163175501Y-95460256D01*
X163126465Y-95341873D01*
X163126464Y-95341872D01*
X163126461Y-95341866D01*
X163055276Y-95235331D01*
X163055273Y-95235327D01*
X162964672Y-95144726D01*
X162964668Y-95144723D01*
X162858133Y-95073538D01*
X162858124Y-95073533D01*
X162739744Y-95024499D01*
X162739738Y-95024497D01*
X162614071Y-94999500D01*
X162614069Y-94999500D01*
X162485931Y-94999500D01*
X162485929Y-94999500D01*
X162360261Y-95024497D01*
X162360255Y-95024499D01*
X162241875Y-95073533D01*
X162241866Y-95073538D01*
X162135331Y-95144723D01*
X162135327Y-95144726D01*
X162044726Y-95235327D01*
X162044723Y-95235331D01*
X161970150Y-95346938D01*
X161969123Y-95346252D01*
X161924693Y-95391473D01*
X161856554Y-95406925D01*
X161816860Y-95397730D01*
X161789747Y-95386500D01*
X161789738Y-95386497D01*
X161664071Y-95361500D01*
X161664069Y-95361500D01*
X161535931Y-95361500D01*
X161535929Y-95361500D01*
X161410261Y-95386497D01*
X161410255Y-95386499D01*
X161291875Y-95435533D01*
X161291866Y-95435538D01*
X161185331Y-95506723D01*
X161185327Y-95506726D01*
X161094726Y-95597327D01*
X161094723Y-95597331D01*
X161023538Y-95703866D01*
X161023533Y-95703875D01*
X160974499Y-95822255D01*
X160974497Y-95822261D01*
X160949500Y-95947928D01*
X160949500Y-95947931D01*
X160949500Y-96076069D01*
X160949500Y-96076071D01*
X160949499Y-96076071D01*
X138146017Y-96076071D01*
X138114670Y-96044724D01*
X138008133Y-95973538D01*
X138008124Y-95973533D01*
X137889744Y-95924499D01*
X137889738Y-95924497D01*
X137764071Y-95899500D01*
X137764069Y-95899500D01*
X137635931Y-95899500D01*
X137635929Y-95899500D01*
X137510261Y-95924497D01*
X137510255Y-95924499D01*
X137391875Y-95973533D01*
X137391866Y-95973538D01*
X137285331Y-96044723D01*
X137285327Y-96044726D01*
X137194726Y-96135327D01*
X137194723Y-96135331D01*
X137123538Y-96241866D01*
X137123533Y-96241875D01*
X137074499Y-96360255D01*
X137074497Y-96360261D01*
X137049500Y-96485928D01*
X137049500Y-96485931D01*
X137049500Y-96614069D01*
X137049500Y-96614071D01*
X137049499Y-96614071D01*
X136250500Y-96614071D01*
X136250500Y-96421456D01*
X136212052Y-96228170D01*
X136212051Y-96228169D01*
X136212051Y-96228165D01*
X136201105Y-96201738D01*
X136136635Y-96046092D01*
X136136628Y-96046079D01*
X136027139Y-95882218D01*
X136027136Y-95882214D01*
X135887785Y-95742863D01*
X135887781Y-95742860D01*
X135723920Y-95633371D01*
X135723907Y-95633364D01*
X135567456Y-95568561D01*
X135513052Y-95524720D01*
X135490987Y-95458426D01*
X135508266Y-95390727D01*
X135559403Y-95343116D01*
X135614908Y-95330000D01*
X136147828Y-95330000D01*
X136147844Y-95329999D01*
X136207372Y-95323598D01*
X136207379Y-95323596D01*
X136342086Y-95273354D01*
X136342093Y-95273350D01*
X136457187Y-95187190D01*
X136457190Y-95187187D01*
X136474495Y-95164071D01*
X153649499Y-95164071D01*
X153674497Y-95289738D01*
X153674499Y-95289744D01*
X153723533Y-95408124D01*
X153723538Y-95408133D01*
X153794723Y-95514668D01*
X153794726Y-95514672D01*
X153885327Y-95605273D01*
X153885331Y-95605276D01*
X153991866Y-95676461D01*
X153991872Y-95676464D01*
X153991873Y-95676465D01*
X154110256Y-95725501D01*
X154110260Y-95725501D01*
X154110261Y-95725502D01*
X154235928Y-95750500D01*
X154235931Y-95750500D01*
X154364071Y-95750500D01*
X154448615Y-95733682D01*
X154489744Y-95725501D01*
X154608127Y-95676465D01*
X154714669Y-95605276D01*
X154805276Y-95514669D01*
X154876465Y-95408127D01*
X154925501Y-95289744D01*
X154938089Y-95226461D01*
X154950500Y-95164071D01*
X154950500Y-95035928D01*
X154925502Y-94910261D01*
X154925501Y-94910260D01*
X154925501Y-94910256D01*
X154876465Y-94791873D01*
X154876464Y-94791872D01*
X154876461Y-94791866D01*
X154824480Y-94714071D01*
X182899499Y-94714071D01*
X182924497Y-94839738D01*
X182924499Y-94839744D01*
X182973533Y-94958124D01*
X182973538Y-94958133D01*
X183044723Y-95064668D01*
X183044726Y-95064672D01*
X183135327Y-95155273D01*
X183135331Y-95155276D01*
X183241866Y-95226461D01*
X183241872Y-95226464D01*
X183241873Y-95226465D01*
X183360256Y-95275501D01*
X183360260Y-95275501D01*
X183360261Y-95275502D01*
X183485928Y-95300500D01*
X183485931Y-95300500D01*
X183614071Y-95300500D01*
X183698615Y-95283682D01*
X183739744Y-95275501D01*
X183858127Y-95226465D01*
X183964669Y-95155276D01*
X184055276Y-95064669D01*
X184126465Y-94958127D01*
X184175501Y-94839744D01*
X184200500Y-94714069D01*
X184200500Y-94585931D01*
X184200500Y-94585928D01*
X184175502Y-94460261D01*
X184175501Y-94460260D01*
X184175501Y-94460256D01*
X184126465Y-94341873D01*
X184126464Y-94341872D01*
X184126461Y-94341866D01*
X184055276Y-94235331D01*
X184055273Y-94235327D01*
X184014637Y-94194691D01*
X195913724Y-94194691D01*
X195938722Y-94320358D01*
X195938724Y-94320364D01*
X195987758Y-94438744D01*
X195987763Y-94438753D01*
X196058948Y-94545288D01*
X196058951Y-94545292D01*
X196149552Y-94635893D01*
X196149556Y-94635896D01*
X196256091Y-94707081D01*
X196256104Y-94707088D01*
X196327949Y-94736847D01*
X196382353Y-94780688D01*
X196402114Y-94827215D01*
X196424497Y-94939739D01*
X196424499Y-94939744D01*
X196473533Y-95058124D01*
X196473538Y-95058133D01*
X196544723Y-95164668D01*
X196544726Y-95164672D01*
X196635327Y-95255273D01*
X196635331Y-95255276D01*
X196741866Y-95326461D01*
X196741872Y-95326464D01*
X196741873Y-95326465D01*
X196860256Y-95375501D01*
X196860260Y-95375501D01*
X196860261Y-95375502D01*
X196985928Y-95400500D01*
X196985931Y-95400500D01*
X197114071Y-95400500D01*
X197198615Y-95383682D01*
X197239744Y-95375501D01*
X197358127Y-95326465D01*
X197464669Y-95255276D01*
X197555276Y-95164669D01*
X197626465Y-95058127D01*
X197675501Y-94939744D01*
X197688672Y-94873533D01*
X197700500Y-94814071D01*
X197700500Y-94685931D01*
X197700380Y-94685327D01*
X197695003Y-94658297D01*
X197701229Y-94588707D01*
X197744091Y-94533529D01*
X197809980Y-94510283D01*
X197877978Y-94526350D01*
X197903225Y-94547552D01*
X197904325Y-94546453D01*
X197999236Y-94641364D01*
X197999240Y-94641367D01*
X198105775Y-94712552D01*
X198105784Y-94712557D01*
X198132601Y-94723665D01*
X198224165Y-94761592D01*
X198224169Y-94761592D01*
X198224170Y-94761593D01*
X198349837Y-94786591D01*
X198349840Y-94786591D01*
X198477980Y-94786591D01*
X198562524Y-94769773D01*
X198603653Y-94761592D01*
X198722036Y-94712556D01*
X198828578Y-94641367D01*
X198919185Y-94550760D01*
X198990374Y-94444218D01*
X199039410Y-94325835D01*
X199047591Y-94284706D01*
X199064409Y-94200162D01*
X199064409Y-94072019D01*
X199039411Y-93946352D01*
X199039410Y-93946351D01*
X199039410Y-93946347D01*
X198990374Y-93827964D01*
X198990373Y-93827963D01*
X198990370Y-93827957D01*
X198981092Y-93814071D01*
X203299499Y-93814071D01*
X203324497Y-93939738D01*
X203324499Y-93939744D01*
X203373533Y-94058124D01*
X203373538Y-94058133D01*
X203444723Y-94164668D01*
X203444726Y-94164672D01*
X203535327Y-94255273D01*
X203535331Y-94255276D01*
X203641866Y-94326461D01*
X203641872Y-94326464D01*
X203641873Y-94326465D01*
X203760256Y-94375501D01*
X203760260Y-94375501D01*
X203760261Y-94375502D01*
X203885928Y-94400500D01*
X203885931Y-94400500D01*
X204014071Y-94400500D01*
X204116629Y-94380099D01*
X204139744Y-94375501D01*
X204258127Y-94326465D01*
X204364669Y-94255276D01*
X204455276Y-94164669D01*
X204526465Y-94058127D01*
X204575501Y-93939744D01*
X204597736Y-93827964D01*
X204600500Y-93814071D01*
X204600500Y-93685928D01*
X204575502Y-93560261D01*
X204575501Y-93560260D01*
X204575501Y-93560256D01*
X204526465Y-93441873D01*
X204526464Y-93441872D01*
X204526461Y-93441866D01*
X204455276Y-93335331D01*
X204455273Y-93335327D01*
X204364672Y-93244726D01*
X204364668Y-93244723D01*
X204318794Y-93214071D01*
X213849499Y-93214071D01*
X213874497Y-93339738D01*
X213874499Y-93339744D01*
X213923533Y-93458124D01*
X213923538Y-93458133D01*
X213994723Y-93564668D01*
X213994726Y-93564672D01*
X214085327Y-93655273D01*
X214085331Y-93655276D01*
X214191866Y-93726461D01*
X214191872Y-93726464D01*
X214191873Y-93726465D01*
X214310256Y-93775501D01*
X214310260Y-93775501D01*
X214310261Y-93775502D01*
X214435928Y-93800500D01*
X214435931Y-93800500D01*
X214564071Y-93800500D01*
X214648615Y-93783682D01*
X214689744Y-93775501D01*
X214808127Y-93726465D01*
X214914669Y-93655276D01*
X215005276Y-93564669D01*
X215076465Y-93458127D01*
X215125501Y-93339744D01*
X215144402Y-93244724D01*
X215150500Y-93214071D01*
X215150500Y-93085928D01*
X215125502Y-92960261D01*
X215125501Y-92960260D01*
X215125501Y-92960256D01*
X215076465Y-92841873D01*
X215076464Y-92841872D01*
X215076461Y-92841866D01*
X215005276Y-92735331D01*
X215005273Y-92735327D01*
X214934017Y-92664071D01*
X220349499Y-92664071D01*
X220374497Y-92789738D01*
X220374499Y-92789744D01*
X220423533Y-92908124D01*
X220423538Y-92908133D01*
X220494723Y-93014668D01*
X220494726Y-93014672D01*
X220585327Y-93105273D01*
X220585331Y-93105276D01*
X220691866Y-93176461D01*
X220691872Y-93176464D01*
X220691873Y-93176465D01*
X220810256Y-93225501D01*
X220810260Y-93225501D01*
X220810261Y-93225502D01*
X220935928Y-93250500D01*
X220935931Y-93250500D01*
X221064071Y-93250500D01*
X221148615Y-93233682D01*
X221189744Y-93225501D01*
X221308127Y-93176465D01*
X221414669Y-93105276D01*
X221505276Y-93014669D01*
X221576465Y-92908127D01*
X221625501Y-92789744D01*
X221636326Y-92735327D01*
X221650500Y-92664071D01*
X221650500Y-92535928D01*
X221625502Y-92410261D01*
X221625501Y-92410260D01*
X221625501Y-92410256D01*
X221576465Y-92291873D01*
X221576464Y-92291872D01*
X221576461Y-92291866D01*
X221505276Y-92185331D01*
X221505273Y-92185327D01*
X221414672Y-92094726D01*
X221414668Y-92094723D01*
X221308133Y-92023538D01*
X221308124Y-92023533D01*
X221189744Y-91974499D01*
X221189738Y-91974497D01*
X221064071Y-91949500D01*
X221064069Y-91949500D01*
X220935931Y-91949500D01*
X220935929Y-91949500D01*
X220810261Y-91974497D01*
X220810255Y-91974499D01*
X220691875Y-92023533D01*
X220691866Y-92023538D01*
X220585331Y-92094723D01*
X220585327Y-92094726D01*
X220494726Y-92185327D01*
X220494723Y-92185331D01*
X220423538Y-92291866D01*
X220423533Y-92291875D01*
X220374499Y-92410255D01*
X220374497Y-92410261D01*
X220349500Y-92535928D01*
X220349500Y-92535931D01*
X220349500Y-92664069D01*
X220349500Y-92664071D01*
X220349499Y-92664071D01*
X214934017Y-92664071D01*
X214914672Y-92644726D01*
X214914668Y-92644723D01*
X214897035Y-92632941D01*
X214808133Y-92573538D01*
X214808124Y-92573533D01*
X214689744Y-92524499D01*
X214689738Y-92524497D01*
X214564071Y-92499500D01*
X214564069Y-92499500D01*
X214435931Y-92499500D01*
X214435929Y-92499500D01*
X214310261Y-92524497D01*
X214310255Y-92524499D01*
X214191875Y-92573533D01*
X214191866Y-92573538D01*
X214085331Y-92644723D01*
X214085327Y-92644726D01*
X213994726Y-92735327D01*
X213994723Y-92735331D01*
X213923538Y-92841866D01*
X213923533Y-92841875D01*
X213874499Y-92960255D01*
X213874497Y-92960261D01*
X213849500Y-93085928D01*
X213849500Y-93085931D01*
X213849500Y-93214069D01*
X213849500Y-93214071D01*
X213849499Y-93214071D01*
X204318794Y-93214071D01*
X204272205Y-93182941D01*
X204258133Y-93173538D01*
X204258124Y-93173533D01*
X204139744Y-93124499D01*
X204139738Y-93124497D01*
X204014071Y-93099500D01*
X204014069Y-93099500D01*
X203885931Y-93099500D01*
X203885929Y-93099500D01*
X203760261Y-93124497D01*
X203760255Y-93124499D01*
X203641875Y-93173533D01*
X203641866Y-93173538D01*
X203535331Y-93244723D01*
X203535327Y-93244726D01*
X203444726Y-93335327D01*
X203444723Y-93335331D01*
X203373538Y-93441866D01*
X203373533Y-93441875D01*
X203324499Y-93560255D01*
X203324497Y-93560261D01*
X203299500Y-93685928D01*
X203299500Y-93685931D01*
X203299500Y-93814069D01*
X203299500Y-93814071D01*
X203299499Y-93814071D01*
X198981092Y-93814071D01*
X198937432Y-93748730D01*
X198919185Y-93721422D01*
X198919182Y-93721418D01*
X198828581Y-93630817D01*
X198828577Y-93630814D01*
X198722042Y-93559629D01*
X198722033Y-93559624D01*
X198603653Y-93510590D01*
X198603647Y-93510588D01*
X198477980Y-93485591D01*
X198477978Y-93485591D01*
X198349840Y-93485591D01*
X198349838Y-93485591D01*
X198224170Y-93510588D01*
X198224164Y-93510590D01*
X198105784Y-93559624D01*
X198105775Y-93559629D01*
X197999240Y-93630814D01*
X197999236Y-93630817D01*
X197908635Y-93721418D01*
X197908632Y-93721422D01*
X197837447Y-93827957D01*
X197837442Y-93827966D01*
X197788408Y-93946346D01*
X197788406Y-93946352D01*
X197763409Y-94072019D01*
X197763409Y-94200164D01*
X197768905Y-94227794D01*
X197762678Y-94297386D01*
X197719815Y-94352563D01*
X197653925Y-94375807D01*
X197585928Y-94359739D01*
X197560726Y-94338495D01*
X197559584Y-94339638D01*
X197464672Y-94244726D01*
X197464668Y-94244723D01*
X197358133Y-94173538D01*
X197358123Y-94173533D01*
X197286274Y-94143772D01*
X197231871Y-94099931D01*
X197212110Y-94053403D01*
X197189727Y-93940881D01*
X197189726Y-93940880D01*
X197189726Y-93940876D01*
X197140690Y-93822493D01*
X197140689Y-93822492D01*
X197140686Y-93822486D01*
X197069501Y-93715951D01*
X197069498Y-93715947D01*
X196978897Y-93625346D01*
X196978893Y-93625343D01*
X196872358Y-93554158D01*
X196872349Y-93554153D01*
X196753969Y-93505119D01*
X196753963Y-93505117D01*
X196628296Y-93480120D01*
X196628294Y-93480120D01*
X196500156Y-93480120D01*
X196500154Y-93480120D01*
X196374486Y-93505117D01*
X196374480Y-93505119D01*
X196256100Y-93554153D01*
X196256091Y-93554158D01*
X196149556Y-93625343D01*
X196149552Y-93625346D01*
X196058951Y-93715947D01*
X196058948Y-93715951D01*
X195987763Y-93822486D01*
X195987758Y-93822495D01*
X195938724Y-93940875D01*
X195938722Y-93940881D01*
X195913725Y-94066548D01*
X195913725Y-94066551D01*
X195913725Y-94194689D01*
X195913725Y-94194691D01*
X195913724Y-94194691D01*
X184014637Y-94194691D01*
X183964672Y-94144726D01*
X183964668Y-94144723D01*
X183858133Y-94073538D01*
X183858124Y-94073533D01*
X183739744Y-94024499D01*
X183739738Y-94024497D01*
X183614071Y-93999500D01*
X183614069Y-93999500D01*
X183485931Y-93999500D01*
X183485929Y-93999500D01*
X183360261Y-94024497D01*
X183360255Y-94024499D01*
X183241875Y-94073533D01*
X183241866Y-94073538D01*
X183135331Y-94144723D01*
X183135327Y-94144726D01*
X183044726Y-94235327D01*
X183044723Y-94235331D01*
X182973538Y-94341866D01*
X182973533Y-94341875D01*
X182924499Y-94460255D01*
X182924497Y-94460261D01*
X182899500Y-94585928D01*
X182899500Y-94585931D01*
X182899500Y-94714069D01*
X182899500Y-94714071D01*
X182899499Y-94714071D01*
X154824480Y-94714071D01*
X154805276Y-94685331D01*
X154805273Y-94685327D01*
X154714672Y-94594726D01*
X154714668Y-94594723D01*
X154608133Y-94523538D01*
X154608124Y-94523533D01*
X154489744Y-94474499D01*
X154489738Y-94474497D01*
X154364071Y-94449500D01*
X154364069Y-94449500D01*
X154235931Y-94449500D01*
X154235929Y-94449500D01*
X154110261Y-94474497D01*
X154110255Y-94474499D01*
X153991875Y-94523533D01*
X153991866Y-94523538D01*
X153885331Y-94594723D01*
X153885327Y-94594726D01*
X153794726Y-94685327D01*
X153794723Y-94685331D01*
X153723538Y-94791866D01*
X153723533Y-94791875D01*
X153674499Y-94910255D01*
X153674497Y-94910261D01*
X153649500Y-95035928D01*
X153649500Y-95035931D01*
X153649500Y-95164069D01*
X153649500Y-95164071D01*
X153649499Y-95164071D01*
X136474495Y-95164071D01*
X136543350Y-95072093D01*
X136543354Y-95072086D01*
X136575274Y-94986506D01*
X136593596Y-94937379D01*
X136593598Y-94937372D01*
X136599999Y-94877844D01*
X136600000Y-94877827D01*
X136600000Y-94230000D01*
X135683012Y-94230000D01*
X135715925Y-94172993D01*
X135750000Y-94045826D01*
X135750000Y-93914174D01*
X135715925Y-93787007D01*
X135683012Y-93730000D01*
X136600000Y-93730000D01*
X136600000Y-93164071D01*
X165149499Y-93164071D01*
X165174497Y-93289738D01*
X165174499Y-93289744D01*
X165223533Y-93408124D01*
X165223538Y-93408133D01*
X165294723Y-93514668D01*
X165294726Y-93514672D01*
X165385327Y-93605273D01*
X165385331Y-93605276D01*
X165491866Y-93676461D01*
X165491872Y-93676464D01*
X165491873Y-93676465D01*
X165610256Y-93725501D01*
X165610260Y-93725501D01*
X165610261Y-93725502D01*
X165735928Y-93750500D01*
X165735931Y-93750500D01*
X165864071Y-93750500D01*
X165948615Y-93733682D01*
X165989744Y-93725501D01*
X166108127Y-93676465D01*
X166214669Y-93605276D01*
X166305276Y-93514669D01*
X166376465Y-93408127D01*
X166425501Y-93289744D01*
X166439440Y-93219669D01*
X166450500Y-93164071D01*
X166450500Y-93035928D01*
X166425502Y-92910261D01*
X166425501Y-92910260D01*
X166425501Y-92910256D01*
X166408442Y-92869071D01*
X194549499Y-92869071D01*
X194574497Y-92994738D01*
X194574499Y-92994744D01*
X194623533Y-93113124D01*
X194623538Y-93113133D01*
X194694723Y-93219668D01*
X194694726Y-93219672D01*
X194785327Y-93310273D01*
X194785331Y-93310276D01*
X194891866Y-93381461D01*
X194891872Y-93381464D01*
X194891873Y-93381465D01*
X195010256Y-93430501D01*
X195010260Y-93430501D01*
X195010261Y-93430502D01*
X195135928Y-93455500D01*
X195135931Y-93455500D01*
X195264071Y-93455500D01*
X195348615Y-93438682D01*
X195389744Y-93430501D01*
X195508127Y-93381465D01*
X195614669Y-93310276D01*
X195705276Y-93219669D01*
X195776465Y-93113127D01*
X195825501Y-92994744D01*
X195829326Y-92975510D01*
X195861711Y-92913600D01*
X195922427Y-92879026D01*
X195926731Y-92878089D01*
X195939744Y-92875501D01*
X196058127Y-92826465D01*
X196164669Y-92755276D01*
X196255276Y-92664669D01*
X196255676Y-92664071D01*
X199999499Y-92664071D01*
X200024497Y-92789738D01*
X200024499Y-92789744D01*
X200073533Y-92908124D01*
X200073538Y-92908133D01*
X200144723Y-93014668D01*
X200144726Y-93014672D01*
X200235327Y-93105273D01*
X200235331Y-93105276D01*
X200341866Y-93176461D01*
X200341872Y-93176464D01*
X200341873Y-93176465D01*
X200460256Y-93225501D01*
X200460260Y-93225501D01*
X200460261Y-93225502D01*
X200585928Y-93250500D01*
X200585931Y-93250500D01*
X200714071Y-93250500D01*
X200798615Y-93233682D01*
X200839744Y-93225501D01*
X200958127Y-93176465D01*
X201064669Y-93105276D01*
X201155276Y-93014669D01*
X201226465Y-92908127D01*
X201275501Y-92789744D01*
X201286326Y-92735327D01*
X201300500Y-92664071D01*
X201300500Y-92535928D01*
X201275502Y-92410261D01*
X201275501Y-92410260D01*
X201275501Y-92410256D01*
X201226465Y-92291873D01*
X201226464Y-92291872D01*
X201226461Y-92291866D01*
X201155276Y-92185331D01*
X201155273Y-92185327D01*
X201064672Y-92094726D01*
X201064668Y-92094723D01*
X200958133Y-92023538D01*
X200958124Y-92023533D01*
X200839744Y-91974499D01*
X200839738Y-91974497D01*
X200714071Y-91949500D01*
X200714069Y-91949500D01*
X200585931Y-91949500D01*
X200585929Y-91949500D01*
X200460261Y-91974497D01*
X200460255Y-91974499D01*
X200341875Y-92023533D01*
X200341866Y-92023538D01*
X200235331Y-92094723D01*
X200235327Y-92094726D01*
X200144726Y-92185327D01*
X200144723Y-92185331D01*
X200073538Y-92291866D01*
X200073533Y-92291875D01*
X200024499Y-92410255D01*
X200024497Y-92410261D01*
X199999500Y-92535928D01*
X199999500Y-92535931D01*
X199999500Y-92664069D01*
X199999500Y-92664071D01*
X199999499Y-92664071D01*
X196255676Y-92664071D01*
X196326465Y-92558127D01*
X196375501Y-92439744D01*
X196400500Y-92314069D01*
X196400500Y-92185931D01*
X196400500Y-92185928D01*
X196375502Y-92060261D01*
X196375501Y-92060257D01*
X196375501Y-92060256D01*
X196326465Y-91941873D01*
X196326464Y-91941872D01*
X196326461Y-91941866D01*
X196255276Y-91835331D01*
X196255273Y-91835327D01*
X196164672Y-91744726D01*
X196164668Y-91744723D01*
X196058133Y-91673538D01*
X196058124Y-91673533D01*
X195939744Y-91624499D01*
X195939738Y-91624497D01*
X195814071Y-91599500D01*
X195814069Y-91599500D01*
X195685931Y-91599500D01*
X195685929Y-91599500D01*
X195560261Y-91624497D01*
X195560255Y-91624499D01*
X195441875Y-91673533D01*
X195441866Y-91673538D01*
X195335331Y-91744723D01*
X195335327Y-91744726D01*
X195244726Y-91835327D01*
X195244723Y-91835331D01*
X195173538Y-91941866D01*
X195173533Y-91941875D01*
X195124498Y-92060257D01*
X195120672Y-92079492D01*
X195088285Y-92141402D01*
X195027568Y-92175974D01*
X195023249Y-92176914D01*
X195010258Y-92179498D01*
X195010257Y-92179498D01*
X194891875Y-92228533D01*
X194891866Y-92228538D01*
X194785331Y-92299723D01*
X194785327Y-92299726D01*
X194694726Y-92390327D01*
X194694723Y-92390331D01*
X194623538Y-92496866D01*
X194623533Y-92496875D01*
X194574499Y-92615255D01*
X194574497Y-92615261D01*
X194549500Y-92740928D01*
X194549500Y-92740931D01*
X194549500Y-92869069D01*
X194549500Y-92869071D01*
X194549499Y-92869071D01*
X166408442Y-92869071D01*
X166376465Y-92791873D01*
X166305276Y-92685331D01*
X166305273Y-92685327D01*
X166214672Y-92594726D01*
X166214668Y-92594723D01*
X166108133Y-92523538D01*
X166108124Y-92523533D01*
X165989744Y-92474499D01*
X165989738Y-92474497D01*
X165864071Y-92449500D01*
X165864069Y-92449500D01*
X165735931Y-92449500D01*
X165735929Y-92449500D01*
X165610261Y-92474497D01*
X165610255Y-92474499D01*
X165491875Y-92523533D01*
X165491866Y-92523538D01*
X165385331Y-92594723D01*
X165385327Y-92594726D01*
X165294726Y-92685327D01*
X165294723Y-92685331D01*
X165223538Y-92791866D01*
X165223533Y-92791875D01*
X165174499Y-92910255D01*
X165174497Y-92910261D01*
X165149500Y-93035928D01*
X165149500Y-93035931D01*
X165149500Y-93164069D01*
X165149500Y-93164071D01*
X165149499Y-93164071D01*
X136600000Y-93164071D01*
X136600000Y-93082172D01*
X136599999Y-93082158D01*
X136595799Y-93043096D01*
X136595799Y-93043095D01*
X136593598Y-93022626D01*
X136593596Y-93022620D01*
X136543354Y-92887913D01*
X136543350Y-92887906D01*
X136457190Y-92772812D01*
X136457187Y-92772809D01*
X136342093Y-92686649D01*
X136342086Y-92686645D01*
X136207379Y-92636403D01*
X136207372Y-92636401D01*
X136147844Y-92630000D01*
X135500000Y-92630000D01*
X135500000Y-93546988D01*
X135442993Y-93514075D01*
X135315826Y-93480000D01*
X135184174Y-93480000D01*
X135057007Y-93514075D01*
X135000000Y-93546988D01*
X135000000Y-92630000D01*
X134352155Y-92630000D01*
X134292627Y-92636401D01*
X134292620Y-92636403D01*
X134157913Y-92686645D01*
X134157906Y-92686649D01*
X134042812Y-92772809D01*
X134042809Y-92772812D01*
X133956649Y-92887906D01*
X133956645Y-92887913D01*
X133906403Y-93022620D01*
X133906401Y-93022627D01*
X133900000Y-93082155D01*
X133200500Y-93082155D01*
X133200500Y-91464071D01*
X178649499Y-91464071D01*
X178674497Y-91589738D01*
X178674499Y-91589744D01*
X178723533Y-91708124D01*
X178723538Y-91708133D01*
X178794723Y-91814668D01*
X178794726Y-91814672D01*
X178885327Y-91905273D01*
X178885331Y-91905276D01*
X178991866Y-91976461D01*
X178991872Y-91976464D01*
X178991873Y-91976465D01*
X179110256Y-92025501D01*
X179110260Y-92025501D01*
X179110261Y-92025502D01*
X179235928Y-92050500D01*
X179235931Y-92050500D01*
X179364071Y-92050500D01*
X179448615Y-92033682D01*
X179489744Y-92025501D01*
X179608127Y-91976465D01*
X179714669Y-91905276D01*
X179805276Y-91814669D01*
X179876465Y-91708127D01*
X179925501Y-91589744D01*
X179950500Y-91464069D01*
X179950500Y-91335931D01*
X179950500Y-91335928D01*
X179925502Y-91210261D01*
X179925501Y-91210260D01*
X179925501Y-91210256D01*
X179876465Y-91091873D01*
X179876464Y-91091872D01*
X179876461Y-91091866D01*
X179805276Y-90985331D01*
X179805273Y-90985327D01*
X179714672Y-90894726D01*
X179714668Y-90894723D01*
X179608133Y-90823538D01*
X179608124Y-90823533D01*
X179489744Y-90774499D01*
X179489738Y-90774497D01*
X179364071Y-90749500D01*
X179364069Y-90749500D01*
X179235931Y-90749500D01*
X179235929Y-90749500D01*
X179110261Y-90774497D01*
X179110255Y-90774499D01*
X178991875Y-90823533D01*
X178991866Y-90823538D01*
X178885331Y-90894723D01*
X178885327Y-90894726D01*
X178794726Y-90985327D01*
X178794723Y-90985331D01*
X178723538Y-91091866D01*
X178723533Y-91091875D01*
X178674499Y-91210255D01*
X178674497Y-91210261D01*
X178649500Y-91335928D01*
X178649500Y-91335931D01*
X178649500Y-91464069D01*
X178649500Y-91464071D01*
X178649499Y-91464071D01*
X133200500Y-91464071D01*
X133200500Y-90714071D01*
X220349499Y-90714071D01*
X220374497Y-90839738D01*
X220374499Y-90839744D01*
X220423533Y-90958124D01*
X220423538Y-90958133D01*
X220494723Y-91064668D01*
X220494726Y-91064672D01*
X220585327Y-91155273D01*
X220585331Y-91155276D01*
X220691866Y-91226461D01*
X220691872Y-91226464D01*
X220691873Y-91226465D01*
X220810256Y-91275501D01*
X220810260Y-91275501D01*
X220810261Y-91275502D01*
X220935928Y-91300500D01*
X220935931Y-91300500D01*
X221064071Y-91300500D01*
X221148615Y-91283682D01*
X221189744Y-91275501D01*
X221308127Y-91226465D01*
X221414669Y-91155276D01*
X221505276Y-91064669D01*
X221576465Y-90958127D01*
X221625501Y-90839744D01*
X221633682Y-90798615D01*
X221650500Y-90714071D01*
X221650500Y-90585928D01*
X221625502Y-90460261D01*
X221625501Y-90460260D01*
X221625501Y-90460256D01*
X221576465Y-90341873D01*
X221576464Y-90341872D01*
X221576461Y-90341866D01*
X221505276Y-90235331D01*
X221505273Y-90235327D01*
X221414672Y-90144726D01*
X221414668Y-90144723D01*
X221308133Y-90073538D01*
X221308124Y-90073533D01*
X221189744Y-90024499D01*
X221189738Y-90024497D01*
X221064071Y-89999500D01*
X221064069Y-89999500D01*
X220935931Y-89999500D01*
X220935929Y-89999500D01*
X220810261Y-90024497D01*
X220810255Y-90024499D01*
X220691875Y-90073533D01*
X220691866Y-90073538D01*
X220585331Y-90144723D01*
X220585327Y-90144726D01*
X220494726Y-90235327D01*
X220494723Y-90235331D01*
X220423538Y-90341866D01*
X220423533Y-90341875D01*
X220374499Y-90460255D01*
X220374497Y-90460261D01*
X220349500Y-90585928D01*
X220349500Y-90585931D01*
X220349500Y-90714069D01*
X220349500Y-90714071D01*
X220349499Y-90714071D01*
X133200500Y-90714071D01*
X133200500Y-88908543D01*
X134249499Y-88908543D01*
X134287947Y-89101829D01*
X134287950Y-89101839D01*
X134363364Y-89283907D01*
X134363371Y-89283920D01*
X134472860Y-89447781D01*
X134472863Y-89447785D01*
X134612214Y-89587136D01*
X134612218Y-89587139D01*
X134776079Y-89696628D01*
X134776092Y-89696635D01*
X134958160Y-89772049D01*
X134958165Y-89772051D01*
X134958169Y-89772051D01*
X134958170Y-89772052D01*
X135151456Y-89810500D01*
X135151459Y-89810500D01*
X135348543Y-89810500D01*
X135478582Y-89784632D01*
X135541835Y-89772051D01*
X135723914Y-89696632D01*
X135887782Y-89587139D01*
X136027139Y-89447782D01*
X136136632Y-89283914D01*
X136144604Y-89264669D01*
X136188734Y-89158127D01*
X136212051Y-89101835D01*
X136239455Y-88964069D01*
X136249400Y-88914071D01*
X136799499Y-88914071D01*
X136824497Y-89039738D01*
X136824499Y-89039744D01*
X136873533Y-89158124D01*
X136873538Y-89158133D01*
X136944723Y-89264668D01*
X136944726Y-89264672D01*
X137035327Y-89355273D01*
X137035331Y-89355276D01*
X137141866Y-89426461D01*
X137141872Y-89426464D01*
X137141873Y-89426465D01*
X137260256Y-89475501D01*
X137260260Y-89475501D01*
X137260261Y-89475502D01*
X137385928Y-89500500D01*
X137385931Y-89500500D01*
X137514071Y-89500500D01*
X137621520Y-89479126D01*
X137639744Y-89475501D01*
X137758127Y-89426465D01*
X137864669Y-89355276D01*
X137955276Y-89264669D01*
X138026465Y-89158127D01*
X138075501Y-89039744D01*
X138100500Y-88914069D01*
X138100500Y-88785931D01*
X138100500Y-88785928D01*
X138075502Y-88660261D01*
X138075501Y-88660260D01*
X138075501Y-88660256D01*
X138026465Y-88541873D01*
X138026464Y-88541872D01*
X138026461Y-88541866D01*
X137955276Y-88435331D01*
X137955273Y-88435327D01*
X137864672Y-88344726D01*
X137864668Y-88344723D01*
X137758133Y-88273538D01*
X137758124Y-88273533D01*
X137639744Y-88224499D01*
X137639738Y-88224497D01*
X137514071Y-88199500D01*
X137514069Y-88199500D01*
X137385931Y-88199500D01*
X137385929Y-88199500D01*
X137260261Y-88224497D01*
X137260255Y-88224499D01*
X137141875Y-88273533D01*
X137141866Y-88273538D01*
X137035331Y-88344723D01*
X137035327Y-88344726D01*
X136944726Y-88435327D01*
X136944723Y-88435331D01*
X136873538Y-88541866D01*
X136873533Y-88541875D01*
X136824499Y-88660255D01*
X136824497Y-88660261D01*
X136799500Y-88785928D01*
X136799500Y-88785931D01*
X136799500Y-88914069D01*
X136799500Y-88914071D01*
X136799499Y-88914071D01*
X136249400Y-88914071D01*
X136250500Y-88908543D01*
X136250500Y-88711456D01*
X136212052Y-88518170D01*
X136212051Y-88518169D01*
X136212051Y-88518165D01*
X136177988Y-88435928D01*
X136136635Y-88336092D01*
X136136628Y-88336079D01*
X136027139Y-88172218D01*
X136027136Y-88172214D01*
X135887785Y-88032863D01*
X135887781Y-88032860D01*
X135723920Y-87923371D01*
X135723907Y-87923364D01*
X135541839Y-87847950D01*
X135541829Y-87847947D01*
X135348543Y-87809500D01*
X135348541Y-87809500D01*
X135151459Y-87809500D01*
X135151457Y-87809500D01*
X134958170Y-87847947D01*
X134958160Y-87847950D01*
X134776092Y-87923364D01*
X134776079Y-87923371D01*
X134612218Y-88032860D01*
X134612214Y-88032863D01*
X134472863Y-88172214D01*
X134472860Y-88172218D01*
X134363371Y-88336079D01*
X134363364Y-88336092D01*
X134287950Y-88518160D01*
X134287947Y-88518170D01*
X134249500Y-88711456D01*
X134249500Y-88711459D01*
X134249500Y-88908541D01*
X134249500Y-88908543D01*
X134249499Y-88908543D01*
X133200500Y-88908543D01*
X133200500Y-87514071D01*
X206899499Y-87514071D01*
X206924497Y-87639738D01*
X206924499Y-87639744D01*
X206973533Y-87758124D01*
X206973538Y-87758133D01*
X207044723Y-87864668D01*
X207044726Y-87864672D01*
X207135327Y-87955273D01*
X207135331Y-87955276D01*
X207241866Y-88026461D01*
X207241872Y-88026464D01*
X207241873Y-88026465D01*
X207360256Y-88075501D01*
X207360260Y-88075501D01*
X207360261Y-88075502D01*
X207485928Y-88100500D01*
X207485931Y-88100500D01*
X207614071Y-88100500D01*
X207698615Y-88083682D01*
X207739744Y-88075501D01*
X207858127Y-88026465D01*
X207964669Y-87955276D01*
X208055276Y-87864669D01*
X208126465Y-87758127D01*
X208175501Y-87639744D01*
X208200500Y-87514069D01*
X208200500Y-87464071D01*
X210099499Y-87464071D01*
X210124497Y-87589738D01*
X210124499Y-87589744D01*
X210173533Y-87708124D01*
X210173538Y-87708133D01*
X210244723Y-87814668D01*
X210244726Y-87814672D01*
X210292373Y-87862319D01*
X210325858Y-87923642D01*
X210320874Y-87993334D01*
X210292373Y-88037681D01*
X210244726Y-88085327D01*
X210244723Y-88085331D01*
X210173538Y-88191866D01*
X210173533Y-88191875D01*
X210124499Y-88310255D01*
X210124497Y-88310261D01*
X210099500Y-88435928D01*
X210099500Y-88435931D01*
X210099500Y-88564069D01*
X210099500Y-88564071D01*
X210099499Y-88564071D01*
X210124497Y-88689738D01*
X210124499Y-88689744D01*
X210173533Y-88808124D01*
X210173538Y-88808133D01*
X210244723Y-88914668D01*
X210244726Y-88914672D01*
X210335327Y-89005273D01*
X210335331Y-89005276D01*
X210441866Y-89076461D01*
X210441872Y-89076464D01*
X210441873Y-89076465D01*
X210560256Y-89125501D01*
X210574281Y-89128290D01*
X210636191Y-89160674D01*
X210670767Y-89221389D01*
X210671708Y-89225716D01*
X210674497Y-89239738D01*
X210674498Y-89239742D01*
X210723533Y-89358124D01*
X210723538Y-89358133D01*
X210794723Y-89464668D01*
X210794726Y-89464672D01*
X210885327Y-89555273D01*
X210885331Y-89555276D01*
X210991866Y-89626461D01*
X210991872Y-89626464D01*
X210991873Y-89626465D01*
X211110256Y-89675501D01*
X211110260Y-89675501D01*
X211110261Y-89675502D01*
X211235928Y-89700500D01*
X211235931Y-89700500D01*
X211364071Y-89700500D01*
X211448615Y-89683682D01*
X211489744Y-89675501D01*
X211608127Y-89626465D01*
X211714669Y-89555276D01*
X211714672Y-89555273D01*
X211762319Y-89507627D01*
X211823642Y-89474142D01*
X211893334Y-89479126D01*
X211937681Y-89507627D01*
X211985327Y-89555273D01*
X211985331Y-89555276D01*
X212091866Y-89626461D01*
X212091872Y-89626464D01*
X212091873Y-89626465D01*
X212210256Y-89675501D01*
X212210260Y-89675501D01*
X212210261Y-89675502D01*
X212335928Y-89700500D01*
X212335931Y-89700500D01*
X212464071Y-89700500D01*
X212548615Y-89683682D01*
X212589744Y-89675501D01*
X212708127Y-89626465D01*
X212814669Y-89555276D01*
X212905276Y-89464669D01*
X212976465Y-89358127D01*
X212978938Y-89352157D01*
X213022778Y-89297752D01*
X213089071Y-89275686D01*
X213156771Y-89292964D01*
X213204383Y-89344100D01*
X213217500Y-89399607D01*
X213217500Y-89472069D01*
X213217500Y-89472071D01*
X213217499Y-89472071D01*
X213242497Y-89597738D01*
X213242499Y-89597744D01*
X213291533Y-89716124D01*
X213291538Y-89716133D01*
X213362723Y-89822668D01*
X213362726Y-89822672D01*
X213453327Y-89913273D01*
X213453331Y-89913276D01*
X213559866Y-89984461D01*
X213559872Y-89984464D01*
X213559873Y-89984465D01*
X213678256Y-90033501D01*
X213678260Y-90033501D01*
X213678261Y-90033502D01*
X213803928Y-90058500D01*
X213803931Y-90058500D01*
X213932071Y-90058500D01*
X214016615Y-90041682D01*
X214057744Y-90033501D01*
X214176127Y-89984465D01*
X214282669Y-89913276D01*
X214373276Y-89822669D01*
X214444465Y-89716127D01*
X214493501Y-89597744D01*
X214512845Y-89500500D01*
X214518500Y-89472071D01*
X214518500Y-89343928D01*
X214493502Y-89218261D01*
X214493501Y-89218260D01*
X214493501Y-89218256D01*
X214486540Y-89201452D01*
X214479071Y-89131987D01*
X214486538Y-89106553D01*
X214493501Y-89089744D01*
X214518500Y-88964069D01*
X214518500Y-88835931D01*
X214518500Y-88835928D01*
X214493502Y-88710261D01*
X214493501Y-88710260D01*
X214493501Y-88710256D01*
X214486540Y-88693452D01*
X214479071Y-88623987D01*
X214486538Y-88598553D01*
X214493501Y-88581744D01*
X214518500Y-88456069D01*
X214518500Y-88327931D01*
X214518500Y-88327928D01*
X214493502Y-88202261D01*
X214493501Y-88202260D01*
X214493501Y-88202256D01*
X214486540Y-88185452D01*
X214479071Y-88115987D01*
X214486538Y-88090553D01*
X214493501Y-88073744D01*
X214493502Y-88073736D01*
X214493504Y-88073733D01*
X214518500Y-87948071D01*
X214518500Y-87819928D01*
X214493502Y-87694261D01*
X214493501Y-87694260D01*
X214493501Y-87694256D01*
X214486540Y-87677452D01*
X214479071Y-87607987D01*
X214486538Y-87582553D01*
X214493501Y-87565744D01*
X214518500Y-87440069D01*
X214518500Y-87311931D01*
X214518500Y-87311928D01*
X214493502Y-87186261D01*
X214493501Y-87186260D01*
X214493501Y-87186256D01*
X214486540Y-87169452D01*
X214479071Y-87099987D01*
X214486538Y-87074553D01*
X214493501Y-87057744D01*
X214514172Y-86953828D01*
X214518500Y-86932071D01*
X214518500Y-86803928D01*
X214493502Y-86678261D01*
X214493501Y-86678260D01*
X214493501Y-86678256D01*
X214455574Y-86586692D01*
X214444466Y-86559875D01*
X214444461Y-86559866D01*
X214373276Y-86453331D01*
X214373273Y-86453327D01*
X214282672Y-86362726D01*
X214282668Y-86362723D01*
X214176133Y-86291538D01*
X214176124Y-86291533D01*
X214057744Y-86242499D01*
X214057738Y-86242497D01*
X213932071Y-86217500D01*
X213932069Y-86217500D01*
X213803931Y-86217500D01*
X213803929Y-86217500D01*
X213678261Y-86242497D01*
X213678255Y-86242499D01*
X213559875Y-86291533D01*
X213559866Y-86291538D01*
X213453331Y-86362723D01*
X213453327Y-86362726D01*
X213362726Y-86453327D01*
X213362723Y-86453331D01*
X213291538Y-86559866D01*
X213291535Y-86559872D01*
X213252288Y-86654622D01*
X213208446Y-86709025D01*
X213142152Y-86731089D01*
X213074453Y-86713809D01*
X213026843Y-86662672D01*
X213023166Y-86654620D01*
X212976468Y-86541879D01*
X212976461Y-86541866D01*
X212905276Y-86435331D01*
X212905273Y-86435327D01*
X212814672Y-86344726D01*
X212814668Y-86344723D01*
X212708133Y-86273538D01*
X212708124Y-86273533D01*
X212589744Y-86224499D01*
X212589738Y-86224497D01*
X212464071Y-86199500D01*
X212464069Y-86199500D01*
X212335931Y-86199500D01*
X212335929Y-86199500D01*
X212210261Y-86224497D01*
X212210255Y-86224499D01*
X212091875Y-86273533D01*
X212091866Y-86273538D01*
X211985331Y-86344723D01*
X211985327Y-86344726D01*
X211937681Y-86392373D01*
X211876358Y-86425858D01*
X211806666Y-86420874D01*
X211762319Y-86392373D01*
X211714672Y-86344726D01*
X211714668Y-86344723D01*
X211608133Y-86273538D01*
X211608124Y-86273533D01*
X211489744Y-86224499D01*
X211489738Y-86224497D01*
X211364071Y-86199500D01*
X211364069Y-86199500D01*
X211235931Y-86199500D01*
X211235929Y-86199500D01*
X211110261Y-86224497D01*
X211110255Y-86224499D01*
X210991875Y-86273533D01*
X210991866Y-86273538D01*
X210885331Y-86344723D01*
X210885327Y-86344726D01*
X210794726Y-86435327D01*
X210794723Y-86435331D01*
X210723538Y-86541866D01*
X210723533Y-86541875D01*
X210674498Y-86660257D01*
X210674497Y-86660260D01*
X210671708Y-86674284D01*
X210639322Y-86736195D01*
X210578606Y-86770768D01*
X210574284Y-86771708D01*
X210560260Y-86774497D01*
X210560257Y-86774498D01*
X210441875Y-86823533D01*
X210441866Y-86823538D01*
X210335331Y-86894723D01*
X210335327Y-86894726D01*
X210244726Y-86985327D01*
X210244723Y-86985331D01*
X210173538Y-87091866D01*
X210173533Y-87091875D01*
X210124499Y-87210255D01*
X210124497Y-87210261D01*
X210099500Y-87335928D01*
X210099500Y-87335931D01*
X210099500Y-87464069D01*
X210099500Y-87464071D01*
X210099499Y-87464071D01*
X208200500Y-87464071D01*
X208200500Y-87385931D01*
X208200500Y-87385928D01*
X208194155Y-87354031D01*
X208175502Y-87260261D01*
X208175501Y-87260260D01*
X208175501Y-87260256D01*
X208126465Y-87141873D01*
X208126464Y-87141872D01*
X208126461Y-87141866D01*
X208055276Y-87035331D01*
X208055273Y-87035327D01*
X207964672Y-86944726D01*
X207964668Y-86944723D01*
X207858133Y-86873538D01*
X207858124Y-86873533D01*
X207739744Y-86824499D01*
X207739738Y-86824497D01*
X207614071Y-86799500D01*
X207614069Y-86799500D01*
X207485931Y-86799500D01*
X207485929Y-86799500D01*
X207360261Y-86824497D01*
X207360255Y-86824499D01*
X207241875Y-86873533D01*
X207241866Y-86873538D01*
X207135331Y-86944723D01*
X207135327Y-86944726D01*
X207044726Y-87035327D01*
X207044723Y-87035331D01*
X206973538Y-87141866D01*
X206973533Y-87141875D01*
X206924499Y-87260255D01*
X206924497Y-87260261D01*
X206899500Y-87385928D01*
X206899500Y-87385931D01*
X206899500Y-87514069D01*
X206899500Y-87514071D01*
X206899499Y-87514071D01*
X133200500Y-87514071D01*
X133200500Y-86368543D01*
X134249499Y-86368543D01*
X134287947Y-86561829D01*
X134287950Y-86561839D01*
X134363364Y-86743907D01*
X134363371Y-86743920D01*
X134472860Y-86907781D01*
X134472863Y-86907785D01*
X134612214Y-87047136D01*
X134612218Y-87047139D01*
X134776079Y-87156628D01*
X134776092Y-87156635D01*
X134958160Y-87232049D01*
X134958165Y-87232051D01*
X134958169Y-87232051D01*
X134958170Y-87232052D01*
X135151456Y-87270500D01*
X135151459Y-87270500D01*
X135348543Y-87270500D01*
X135410268Y-87258222D01*
X135499076Y-87240556D01*
X135541835Y-87232051D01*
X135723914Y-87156632D01*
X135887782Y-87047139D01*
X136027139Y-86907782D01*
X136136632Y-86743914D01*
X136212051Y-86561835D01*
X136233635Y-86453327D01*
X136250500Y-86368543D01*
X136250500Y-86171456D01*
X136212052Y-85978170D01*
X136212051Y-85978169D01*
X136212051Y-85978165D01*
X136180328Y-85901577D01*
X174749500Y-85901577D01*
X174749500Y-86098422D01*
X174780290Y-86292826D01*
X174841117Y-86480029D01*
X174930076Y-86654620D01*
X174930476Y-86655405D01*
X175046172Y-86814646D01*
X175185354Y-86953828D01*
X175344595Y-87069524D01*
X175427455Y-87111743D01*
X175519970Y-87158882D01*
X175519972Y-87158882D01*
X175519975Y-87158884D01*
X175604217Y-87186256D01*
X175707173Y-87219709D01*
X175901578Y-87250500D01*
X175901583Y-87250500D01*
X176098422Y-87250500D01*
X176292826Y-87219709D01*
X176480025Y-87158884D01*
X176655405Y-87069524D01*
X176814646Y-86953828D01*
X176953828Y-86814646D01*
X177069524Y-86655405D01*
X177158884Y-86480025D01*
X177219709Y-86292826D01*
X177230531Y-86224497D01*
X177250500Y-86098422D01*
X177250500Y-85901577D01*
X177219709Y-85707173D01*
X177177239Y-85576465D01*
X177158884Y-85519975D01*
X177158882Y-85519972D01*
X177158882Y-85519970D01*
X177089281Y-85383371D01*
X177069524Y-85344595D01*
X176953828Y-85185354D01*
X176814646Y-85046172D01*
X176770463Y-85014071D01*
X189349499Y-85014071D01*
X189374497Y-85139738D01*
X189374499Y-85139744D01*
X189423533Y-85258124D01*
X189423538Y-85258133D01*
X189494723Y-85364668D01*
X189494726Y-85364672D01*
X189585327Y-85455273D01*
X189585331Y-85455276D01*
X189691866Y-85526461D01*
X189691872Y-85526464D01*
X189691873Y-85526465D01*
X189810256Y-85575501D01*
X189810260Y-85575501D01*
X189810261Y-85575502D01*
X189935928Y-85600500D01*
X189935931Y-85600500D01*
X190064071Y-85600500D01*
X190148615Y-85583682D01*
X190189744Y-85575501D01*
X190308127Y-85526465D01*
X190414669Y-85455276D01*
X190505276Y-85364669D01*
X190576465Y-85258127D01*
X190625501Y-85139744D01*
X190640554Y-85064071D01*
X197199499Y-85064071D01*
X197224497Y-85189738D01*
X197224499Y-85189744D01*
X197273533Y-85308124D01*
X197273538Y-85308133D01*
X197344723Y-85414668D01*
X197344726Y-85414672D01*
X197435327Y-85505273D01*
X197435331Y-85505276D01*
X197541866Y-85576461D01*
X197541879Y-85576468D01*
X197631976Y-85613787D01*
X197686380Y-85657628D01*
X197708445Y-85723922D01*
X197706142Y-85752538D01*
X197699500Y-85785931D01*
X197699500Y-85914069D01*
X197699500Y-85914071D01*
X197699499Y-85914071D01*
X197724497Y-86039738D01*
X197724499Y-86039744D01*
X197773533Y-86158124D01*
X197773538Y-86158133D01*
X197844723Y-86264668D01*
X197844726Y-86264672D01*
X197935327Y-86355273D01*
X197935331Y-86355276D01*
X198041866Y-86426461D01*
X198041872Y-86426464D01*
X198041873Y-86426465D01*
X198160256Y-86475501D01*
X198160260Y-86475501D01*
X198160261Y-86475502D01*
X198285928Y-86500500D01*
X198285931Y-86500500D01*
X198414071Y-86500500D01*
X198498615Y-86483682D01*
X198539744Y-86475501D01*
X198658127Y-86426465D01*
X198764669Y-86355276D01*
X198855276Y-86264669D01*
X198926465Y-86158127D01*
X198975501Y-86039744D01*
X199000500Y-85914069D01*
X199000500Y-85785931D01*
X199000500Y-85785928D01*
X198975502Y-85660261D01*
X198975501Y-85660260D01*
X198975501Y-85660256D01*
X198926465Y-85541873D01*
X198926464Y-85541872D01*
X198926461Y-85541866D01*
X198855276Y-85435331D01*
X198855273Y-85435327D01*
X198764672Y-85344726D01*
X198764668Y-85344723D01*
X198658133Y-85273538D01*
X198658123Y-85273533D01*
X198568022Y-85236212D01*
X198513619Y-85192371D01*
X198491554Y-85126077D01*
X198493857Y-85097461D01*
X198500500Y-85064069D01*
X198500500Y-84935931D01*
X198500500Y-84935928D01*
X198475502Y-84810261D01*
X198475501Y-84810260D01*
X198475501Y-84810256D01*
X198426465Y-84691873D01*
X198426464Y-84691872D01*
X198426461Y-84691866D01*
X198355276Y-84585331D01*
X198355273Y-84585327D01*
X198264672Y-84494726D01*
X198264668Y-84494723D01*
X198158133Y-84423538D01*
X198158124Y-84423533D01*
X198039744Y-84374499D01*
X198039738Y-84374497D01*
X197914071Y-84349500D01*
X197914069Y-84349500D01*
X197785931Y-84349500D01*
X197785929Y-84349500D01*
X197660261Y-84374497D01*
X197660255Y-84374499D01*
X197541875Y-84423533D01*
X197541866Y-84423538D01*
X197435331Y-84494723D01*
X197435327Y-84494726D01*
X197344726Y-84585327D01*
X197344723Y-84585331D01*
X197273538Y-84691866D01*
X197273533Y-84691875D01*
X197224499Y-84810255D01*
X197224497Y-84810261D01*
X197199500Y-84935928D01*
X197199500Y-84935931D01*
X197199500Y-85064069D01*
X197199500Y-85064071D01*
X197199499Y-85064071D01*
X190640554Y-85064071D01*
X190650500Y-85014069D01*
X190650500Y-85001020D01*
X190655442Y-84984189D01*
X190655359Y-84966649D01*
X190665081Y-84951362D01*
X190670185Y-84933981D01*
X190683520Y-84922370D01*
X190692855Y-84907693D01*
X190719089Y-84891401D01*
X190722455Y-84888471D01*
X190724723Y-84887422D01*
X190840475Y-84839476D01*
X190947017Y-84768287D01*
X191037624Y-84677680D01*
X191108813Y-84571138D01*
X191133558Y-84511396D01*
X191177396Y-84456996D01*
X191200660Y-84444292D01*
X191272181Y-84414668D01*
X191316121Y-84396468D01*
X191316124Y-84396466D01*
X191316127Y-84396465D01*
X191422669Y-84325276D01*
X191513276Y-84234669D01*
X191584465Y-84128127D01*
X191610998Y-84064071D01*
X203899499Y-84064071D01*
X203924497Y-84189738D01*
X203924499Y-84189744D01*
X203973533Y-84308124D01*
X203973538Y-84308133D01*
X204044723Y-84414668D01*
X204044726Y-84414672D01*
X204135327Y-84505273D01*
X204135331Y-84505276D01*
X204241866Y-84576461D01*
X204241872Y-84576464D01*
X204241873Y-84576465D01*
X204360256Y-84625501D01*
X204360260Y-84625501D01*
X204360261Y-84625502D01*
X204485928Y-84650500D01*
X204485931Y-84650500D01*
X204614071Y-84650500D01*
X204698615Y-84633682D01*
X204739744Y-84625501D01*
X204858127Y-84576465D01*
X204964669Y-84505276D01*
X205055276Y-84414669D01*
X205126465Y-84308127D01*
X205175501Y-84189744D01*
X205188089Y-84126461D01*
X205200500Y-84064071D01*
X205200500Y-83935928D01*
X205175502Y-83810261D01*
X205175501Y-83810260D01*
X205175501Y-83810256D01*
X205126465Y-83691873D01*
X205126464Y-83691872D01*
X205126461Y-83691866D01*
X205055276Y-83585331D01*
X205055273Y-83585327D01*
X204964672Y-83494726D01*
X204964668Y-83494723D01*
X204858133Y-83423538D01*
X204858124Y-83423533D01*
X204739744Y-83374499D01*
X204739738Y-83374497D01*
X204614071Y-83349500D01*
X204614069Y-83349500D01*
X204485931Y-83349500D01*
X204485929Y-83349500D01*
X204360261Y-83374497D01*
X204360255Y-83374499D01*
X204241875Y-83423533D01*
X204241866Y-83423538D01*
X204135331Y-83494723D01*
X204135327Y-83494726D01*
X204044726Y-83585327D01*
X204044723Y-83585331D01*
X203973538Y-83691866D01*
X203973533Y-83691875D01*
X203924499Y-83810255D01*
X203924497Y-83810261D01*
X203899500Y-83935928D01*
X203899500Y-83935931D01*
X203899500Y-84064069D01*
X203899500Y-84064071D01*
X203899499Y-84064071D01*
X191610998Y-84064071D01*
X191633501Y-84009744D01*
X191648184Y-83935928D01*
X191654208Y-83905647D01*
X191654208Y-83905646D01*
X191658500Y-83884070D01*
X191658500Y-83755928D01*
X191633502Y-83630261D01*
X191633501Y-83630260D01*
X191633501Y-83630256D01*
X191584465Y-83511873D01*
X191584464Y-83511872D01*
X191584461Y-83511866D01*
X191513276Y-83405331D01*
X191513273Y-83405327D01*
X191422672Y-83314726D01*
X191422668Y-83314723D01*
X191316133Y-83243538D01*
X191316124Y-83243533D01*
X191244997Y-83214071D01*
X207499499Y-83214071D01*
X207524497Y-83339738D01*
X207524499Y-83339744D01*
X207573533Y-83458124D01*
X207573538Y-83458133D01*
X207644723Y-83564668D01*
X207644726Y-83564672D01*
X207735327Y-83655273D01*
X207735331Y-83655276D01*
X207841866Y-83726461D01*
X207841872Y-83726464D01*
X207841873Y-83726465D01*
X207960256Y-83775501D01*
X207960260Y-83775501D01*
X207960261Y-83775502D01*
X208085928Y-83800500D01*
X208085931Y-83800500D01*
X208214071Y-83800500D01*
X208298615Y-83783682D01*
X208339744Y-83775501D01*
X208458127Y-83726465D01*
X208564669Y-83655276D01*
X208655276Y-83564669D01*
X208726465Y-83458127D01*
X208765424Y-83364071D01*
X220599499Y-83364071D01*
X220624497Y-83489738D01*
X220624499Y-83489744D01*
X220673533Y-83608124D01*
X220673538Y-83608133D01*
X220744723Y-83714668D01*
X220744726Y-83714672D01*
X220835327Y-83805273D01*
X220835331Y-83805276D01*
X220941866Y-83876461D01*
X220941875Y-83876466D01*
X220960233Y-83884070D01*
X221060256Y-83925501D01*
X221060260Y-83925501D01*
X221060261Y-83925502D01*
X221185928Y-83950500D01*
X221185931Y-83950500D01*
X221314071Y-83950500D01*
X221398615Y-83933682D01*
X221439744Y-83925501D01*
X221558127Y-83876465D01*
X221664669Y-83805276D01*
X221755276Y-83714669D01*
X221826465Y-83608127D01*
X221875501Y-83489744D01*
X221892293Y-83405327D01*
X221900500Y-83364071D01*
X221900500Y-83235928D01*
X221875502Y-83110261D01*
X221875501Y-83110260D01*
X221875501Y-83110256D01*
X221826465Y-82991873D01*
X221802699Y-82956305D01*
X221781822Y-82889629D01*
X221800306Y-82822249D01*
X221802700Y-82818524D01*
X221829403Y-82778561D01*
X221876465Y-82708127D01*
X221925501Y-82589744D01*
X221935396Y-82539999D01*
X221950500Y-82464071D01*
X221950500Y-82335928D01*
X221925502Y-82210261D01*
X221925501Y-82210260D01*
X221925501Y-82210256D01*
X221876465Y-82091873D01*
X221876464Y-82091872D01*
X221876461Y-82091866D01*
X221805276Y-81985331D01*
X221805273Y-81985327D01*
X221714672Y-81894726D01*
X221714668Y-81894723D01*
X221608133Y-81823538D01*
X221608124Y-81823533D01*
X221489744Y-81774499D01*
X221489738Y-81774497D01*
X221364071Y-81749500D01*
X221364069Y-81749500D01*
X221235931Y-81749500D01*
X221235929Y-81749500D01*
X221110261Y-81774497D01*
X221110255Y-81774499D01*
X220991875Y-81823533D01*
X220991866Y-81823538D01*
X220885331Y-81894723D01*
X220885327Y-81894726D01*
X220794726Y-81985327D01*
X220794723Y-81985331D01*
X220723538Y-82091866D01*
X220723533Y-82091875D01*
X220674499Y-82210255D01*
X220674497Y-82210261D01*
X220649500Y-82335928D01*
X220649500Y-82335931D01*
X220649500Y-82464069D01*
X220649500Y-82464071D01*
X220649499Y-82464071D01*
X220674497Y-82589738D01*
X220674499Y-82589744D01*
X220723533Y-82708124D01*
X220723538Y-82708133D01*
X220747299Y-82743693D01*
X220768177Y-82810370D01*
X220749693Y-82877750D01*
X220747300Y-82881474D01*
X220673537Y-82991868D01*
X220673533Y-82991875D01*
X220624499Y-83110255D01*
X220624497Y-83110261D01*
X220599500Y-83235928D01*
X220599500Y-83235931D01*
X220599500Y-83364069D01*
X220599500Y-83364071D01*
X220599499Y-83364071D01*
X208765424Y-83364071D01*
X208775501Y-83339744D01*
X208792142Y-83256086D01*
X208800500Y-83214071D01*
X208800500Y-83085928D01*
X208775502Y-82960261D01*
X208775501Y-82960260D01*
X208775501Y-82960256D01*
X208727646Y-82844723D01*
X208726466Y-82841875D01*
X208726461Y-82841866D01*
X208655276Y-82735331D01*
X208655273Y-82735327D01*
X208564672Y-82644726D01*
X208564668Y-82644723D01*
X208458133Y-82573538D01*
X208458124Y-82573533D01*
X208339744Y-82524499D01*
X208339738Y-82524497D01*
X208214071Y-82499500D01*
X208214069Y-82499500D01*
X208085931Y-82499500D01*
X208085929Y-82499500D01*
X207960261Y-82524497D01*
X207960255Y-82524499D01*
X207841875Y-82573533D01*
X207841866Y-82573538D01*
X207735331Y-82644723D01*
X207735327Y-82644726D01*
X207644726Y-82735327D01*
X207644723Y-82735331D01*
X207573538Y-82841866D01*
X207573533Y-82841875D01*
X207524499Y-82960255D01*
X207524497Y-82960261D01*
X207499500Y-83085928D01*
X207499500Y-83085931D01*
X207499500Y-83214069D01*
X207499500Y-83214071D01*
X207499499Y-83214071D01*
X191244997Y-83214071D01*
X191197746Y-83194499D01*
X191197738Y-83194497D01*
X191072071Y-83169500D01*
X191072069Y-83169500D01*
X190943931Y-83169500D01*
X190943929Y-83169500D01*
X190818261Y-83194497D01*
X190818255Y-83194499D01*
X190699875Y-83243533D01*
X190699866Y-83243538D01*
X190593331Y-83314723D01*
X190593327Y-83314726D01*
X190502725Y-83405328D01*
X190431534Y-83511875D01*
X190406788Y-83571614D01*
X190362946Y-83626017D01*
X190339681Y-83638720D01*
X190224224Y-83686544D01*
X190224214Y-83686549D01*
X190117679Y-83757734D01*
X190117675Y-83757737D01*
X190027074Y-83848338D01*
X190027071Y-83848342D01*
X189955886Y-83954877D01*
X189955881Y-83954886D01*
X189906847Y-84073266D01*
X189906845Y-84073272D01*
X189881848Y-84198939D01*
X189881848Y-84211990D01*
X189862163Y-84279029D01*
X189809359Y-84324784D01*
X189805301Y-84326551D01*
X189691876Y-84373533D01*
X189691866Y-84373538D01*
X189585331Y-84444723D01*
X189585327Y-84444726D01*
X189494726Y-84535327D01*
X189494723Y-84535331D01*
X189423538Y-84641866D01*
X189423533Y-84641875D01*
X189374499Y-84760255D01*
X189374497Y-84760261D01*
X189349500Y-84885928D01*
X189349500Y-84885931D01*
X189349500Y-85014069D01*
X189349500Y-85014071D01*
X189349499Y-85014071D01*
X176770463Y-85014071D01*
X176655405Y-84930476D01*
X176610691Y-84907693D01*
X176480029Y-84841117D01*
X176292826Y-84780290D01*
X176098422Y-84749500D01*
X176098417Y-84749500D01*
X175901583Y-84749500D01*
X175901578Y-84749500D01*
X175707173Y-84780290D01*
X175519970Y-84841117D01*
X175344594Y-84930476D01*
X175294807Y-84966649D01*
X175185354Y-85046172D01*
X175185352Y-85046174D01*
X175185351Y-85046174D01*
X175046174Y-85185351D01*
X175046174Y-85185352D01*
X175046172Y-85185354D01*
X175009221Y-85236212D01*
X174930476Y-85344594D01*
X174841117Y-85519970D01*
X174780290Y-85707173D01*
X174749500Y-85901577D01*
X136180328Y-85901577D01*
X136164787Y-85864058D01*
X136136635Y-85796092D01*
X136136628Y-85796079D01*
X136027139Y-85632218D01*
X136027136Y-85632214D01*
X135887785Y-85492863D01*
X135887781Y-85492860D01*
X135723920Y-85383371D01*
X135723907Y-85383364D01*
X135541839Y-85307950D01*
X135541829Y-85307947D01*
X135348543Y-85269500D01*
X135348541Y-85269500D01*
X135151459Y-85269500D01*
X135151457Y-85269500D01*
X134958170Y-85307947D01*
X134958160Y-85307950D01*
X134776092Y-85383364D01*
X134776079Y-85383371D01*
X134612218Y-85492860D01*
X134612214Y-85492863D01*
X134472863Y-85632214D01*
X134472860Y-85632218D01*
X134363371Y-85796079D01*
X134363364Y-85796092D01*
X134287950Y-85978160D01*
X134287947Y-85978170D01*
X134249500Y-86171456D01*
X134249500Y-86171459D01*
X134249500Y-86368541D01*
X134249500Y-86368543D01*
X134249499Y-86368543D01*
X133200500Y-86368543D01*
X133200500Y-80292155D01*
X133900000Y-80292155D01*
X133900000Y-80940000D01*
X134816988Y-80940000D01*
X134784075Y-80997007D01*
X134750000Y-81124174D01*
X134750000Y-81255826D01*
X134784075Y-81382993D01*
X134816988Y-81440000D01*
X133900000Y-81440000D01*
X133900000Y-82087844D01*
X133906401Y-82147372D01*
X133906403Y-82147379D01*
X133956645Y-82282086D01*
X133956649Y-82282093D01*
X134042809Y-82397187D01*
X134042812Y-82397190D01*
X134157906Y-82483350D01*
X134157913Y-82483354D01*
X134292620Y-82533596D01*
X134292627Y-82533598D01*
X134352155Y-82539999D01*
X134352172Y-82540000D01*
X134885092Y-82540000D01*
X134952131Y-82559685D01*
X134997886Y-82612489D01*
X135007830Y-82681647D01*
X134978805Y-82745203D01*
X134932544Y-82778561D01*
X134776092Y-82843364D01*
X134776079Y-82843371D01*
X134612218Y-82952860D01*
X134612214Y-82952863D01*
X134472863Y-83092214D01*
X134472860Y-83092218D01*
X134363371Y-83256079D01*
X134363364Y-83256092D01*
X134287950Y-83438160D01*
X134287947Y-83438170D01*
X134249500Y-83631456D01*
X134249500Y-83631459D01*
X134249500Y-83828541D01*
X134249500Y-83828543D01*
X134249499Y-83828543D01*
X134287947Y-84021829D01*
X134287950Y-84021839D01*
X134363364Y-84203907D01*
X134363371Y-84203920D01*
X134472860Y-84367781D01*
X134472863Y-84367785D01*
X134612214Y-84507136D01*
X134612218Y-84507139D01*
X134776079Y-84616628D01*
X134776092Y-84616635D01*
X134923470Y-84677680D01*
X134958165Y-84692051D01*
X134958169Y-84692051D01*
X134958170Y-84692052D01*
X135151456Y-84730500D01*
X135151459Y-84730500D01*
X135348543Y-84730500D01*
X135478582Y-84704632D01*
X135541835Y-84692051D01*
X135723914Y-84616632D01*
X135887782Y-84507139D01*
X136027139Y-84367782D01*
X136136632Y-84203914D01*
X136138692Y-84198942D01*
X136198199Y-84055276D01*
X136212051Y-84021835D01*
X136231021Y-83926466D01*
X136250500Y-83828543D01*
X136250500Y-83631456D01*
X136212052Y-83438170D01*
X136212051Y-83438169D01*
X136212051Y-83438165D01*
X136202071Y-83414071D01*
X150799499Y-83414071D01*
X150824497Y-83539738D01*
X150824499Y-83539744D01*
X150873533Y-83658124D01*
X150873538Y-83658133D01*
X150944723Y-83764668D01*
X150944726Y-83764672D01*
X151035327Y-83855273D01*
X151035331Y-83855276D01*
X151141866Y-83926461D01*
X151141872Y-83926464D01*
X151141873Y-83926465D01*
X151260256Y-83975501D01*
X151260260Y-83975501D01*
X151260261Y-83975502D01*
X151385928Y-84000500D01*
X151385931Y-84000500D01*
X151514071Y-84000500D01*
X151598615Y-83983682D01*
X151639744Y-83975501D01*
X151758127Y-83926465D01*
X151864669Y-83855276D01*
X151955276Y-83764669D01*
X152026465Y-83658127D01*
X152044714Y-83614071D01*
X157949499Y-83614071D01*
X157974497Y-83739738D01*
X157974499Y-83739744D01*
X158023533Y-83858124D01*
X158023538Y-83858133D01*
X158094723Y-83964668D01*
X158094726Y-83964672D01*
X158185327Y-84055273D01*
X158185331Y-84055276D01*
X158291866Y-84126461D01*
X158291872Y-84126464D01*
X158291873Y-84126465D01*
X158410256Y-84175501D01*
X158410260Y-84175501D01*
X158410261Y-84175502D01*
X158535928Y-84200500D01*
X158535931Y-84200500D01*
X158664071Y-84200500D01*
X158748615Y-84183682D01*
X158789744Y-84175501D01*
X158908127Y-84126465D01*
X159014669Y-84055276D01*
X159105276Y-83964669D01*
X159176465Y-83858127D01*
X159225501Y-83739744D01*
X159242304Y-83655273D01*
X159250500Y-83614071D01*
X159250500Y-83485928D01*
X159225502Y-83360261D01*
X159225501Y-83360260D01*
X159225501Y-83360256D01*
X159177155Y-83243538D01*
X159176466Y-83241875D01*
X159176461Y-83241866D01*
X159105276Y-83135331D01*
X159105273Y-83135327D01*
X159014672Y-83044726D01*
X159014668Y-83044723D01*
X158908133Y-82973538D01*
X158908124Y-82973533D01*
X158789744Y-82924499D01*
X158789738Y-82924497D01*
X158664071Y-82899500D01*
X158664069Y-82899500D01*
X158535931Y-82899500D01*
X158535929Y-82899500D01*
X158410261Y-82924497D01*
X158410255Y-82924499D01*
X158291875Y-82973533D01*
X158291866Y-82973538D01*
X158185331Y-83044723D01*
X158185327Y-83044726D01*
X158094726Y-83135327D01*
X158094723Y-83135331D01*
X158023538Y-83241866D01*
X158023533Y-83241875D01*
X157974499Y-83360255D01*
X157974497Y-83360261D01*
X157949500Y-83485928D01*
X157949500Y-83485931D01*
X157949500Y-83614069D01*
X157949500Y-83614071D01*
X157949499Y-83614071D01*
X152044714Y-83614071D01*
X152075501Y-83539744D01*
X152081045Y-83511873D01*
X152092230Y-83455647D01*
X152092230Y-83455646D01*
X152100499Y-83414073D01*
X152100500Y-83414071D01*
X152100500Y-83285928D01*
X152075502Y-83160261D01*
X152075501Y-83160260D01*
X152075501Y-83160256D01*
X152032017Y-83055276D01*
X152026466Y-83041875D01*
X152026461Y-83041866D01*
X151955276Y-82935331D01*
X151955273Y-82935327D01*
X151864672Y-82844726D01*
X151864668Y-82844723D01*
X151758133Y-82773538D01*
X151758124Y-82773533D01*
X151639744Y-82724499D01*
X151639738Y-82724497D01*
X151514071Y-82699500D01*
X151514069Y-82699500D01*
X151385931Y-82699500D01*
X151385929Y-82699500D01*
X151260261Y-82724497D01*
X151260255Y-82724499D01*
X151141875Y-82773533D01*
X151141866Y-82773538D01*
X151035331Y-82844723D01*
X151035327Y-82844726D01*
X150944726Y-82935327D01*
X150944723Y-82935331D01*
X150873538Y-83041866D01*
X150873533Y-83041875D01*
X150824499Y-83160255D01*
X150824497Y-83160261D01*
X150799500Y-83285928D01*
X150799500Y-83285931D01*
X150799500Y-83414069D01*
X150799500Y-83414071D01*
X150799499Y-83414071D01*
X136202071Y-83414071D01*
X136166126Y-83327291D01*
X136136635Y-83256092D01*
X136136628Y-83256079D01*
X136027139Y-83092218D01*
X136027136Y-83092214D01*
X135887785Y-82952863D01*
X135887781Y-82952860D01*
X135723920Y-82843371D01*
X135723907Y-82843364D01*
X135567456Y-82778561D01*
X135513052Y-82734720D01*
X135490987Y-82668426D01*
X135504860Y-82614071D01*
X162649499Y-82614071D01*
X162674497Y-82739738D01*
X162674499Y-82739744D01*
X162723533Y-82858124D01*
X162723538Y-82858133D01*
X162794723Y-82964668D01*
X162794726Y-82964672D01*
X162885327Y-83055273D01*
X162885331Y-83055276D01*
X162991866Y-83126461D01*
X162991872Y-83126464D01*
X162991873Y-83126465D01*
X163110256Y-83175501D01*
X163110260Y-83175501D01*
X163110261Y-83175502D01*
X163235928Y-83200500D01*
X163235931Y-83200500D01*
X163364071Y-83200500D01*
X163448615Y-83183682D01*
X163489744Y-83175501D01*
X163608127Y-83126465D01*
X163714669Y-83055276D01*
X163805276Y-82964669D01*
X163876465Y-82858127D01*
X163925501Y-82739744D01*
X163937058Y-82681647D01*
X163950500Y-82614071D01*
X163950500Y-82485928D01*
X163925502Y-82360261D01*
X163925501Y-82360260D01*
X163925501Y-82360256D01*
X163876465Y-82241873D01*
X163876464Y-82241872D01*
X163876461Y-82241866D01*
X163805276Y-82135331D01*
X163805273Y-82135327D01*
X163714672Y-82044726D01*
X163714668Y-82044723D01*
X163608133Y-81973538D01*
X163608124Y-81973533D01*
X163489744Y-81924499D01*
X163489738Y-81924497D01*
X163364071Y-81899500D01*
X163364069Y-81899500D01*
X163235931Y-81899500D01*
X163235929Y-81899500D01*
X163110261Y-81924497D01*
X163110255Y-81924499D01*
X162991875Y-81973533D01*
X162991866Y-81973538D01*
X162885331Y-82044723D01*
X162885327Y-82044726D01*
X162794726Y-82135327D01*
X162794723Y-82135331D01*
X162723538Y-82241866D01*
X162723533Y-82241875D01*
X162674499Y-82360255D01*
X162674497Y-82360261D01*
X162649500Y-82485928D01*
X162649500Y-82485931D01*
X162649500Y-82614069D01*
X162649500Y-82614071D01*
X162649499Y-82614071D01*
X135504860Y-82614071D01*
X135508266Y-82600727D01*
X135559403Y-82553116D01*
X135614908Y-82540000D01*
X136147828Y-82540000D01*
X136147844Y-82539999D01*
X136207372Y-82533598D01*
X136207379Y-82533596D01*
X136342086Y-82483354D01*
X136342093Y-82483350D01*
X136457187Y-82397190D01*
X136457190Y-82397187D01*
X136543350Y-82282093D01*
X136543354Y-82282086D01*
X136593596Y-82147379D01*
X136593598Y-82147372D01*
X136599999Y-82087844D01*
X136600000Y-82087827D01*
X136600000Y-81440000D01*
X135683012Y-81440000D01*
X135715925Y-81382993D01*
X135750000Y-81255826D01*
X135750000Y-81124174D01*
X135715925Y-80997007D01*
X135683012Y-80940000D01*
X136600000Y-80940000D01*
X136600000Y-80664071D01*
X148449499Y-80664071D01*
X148474497Y-80789738D01*
X148474499Y-80789744D01*
X148523533Y-80908124D01*
X148523538Y-80908133D01*
X148594723Y-81014668D01*
X148594726Y-81014672D01*
X148685327Y-81105273D01*
X148685331Y-81105276D01*
X148791866Y-81176461D01*
X148791872Y-81176464D01*
X148791873Y-81176465D01*
X148910256Y-81225501D01*
X148910260Y-81225501D01*
X148910261Y-81225502D01*
X149035928Y-81250500D01*
X149035931Y-81250500D01*
X149164071Y-81250500D01*
X149248615Y-81233682D01*
X149289744Y-81225501D01*
X149348161Y-81201304D01*
X167449500Y-81201304D01*
X167449500Y-81378695D01*
X167484103Y-81552658D01*
X167484106Y-81552667D01*
X167551983Y-81716540D01*
X167551990Y-81716553D01*
X167650535Y-81864034D01*
X167650538Y-81864038D01*
X167775961Y-81989461D01*
X167775965Y-81989464D01*
X167923446Y-82088009D01*
X167923459Y-82088016D01*
X168037680Y-82135327D01*
X168087334Y-82155894D01*
X168087336Y-82155894D01*
X168087341Y-82155896D01*
X168261304Y-82190499D01*
X168261307Y-82190500D01*
X168261309Y-82190500D01*
X168438693Y-82190500D01*
X168438694Y-82190499D01*
X168496682Y-82178964D01*
X168612658Y-82155896D01*
X168612661Y-82155894D01*
X168612666Y-82155894D01*
X168776547Y-82088013D01*
X168924035Y-81989464D01*
X169049464Y-81864035D01*
X169148013Y-81716547D01*
X169215894Y-81552666D01*
X169226966Y-81497007D01*
X169238964Y-81436682D01*
X169250500Y-81378691D01*
X169250500Y-81201309D01*
X169250500Y-81201306D01*
X169250499Y-81201304D01*
X169215896Y-81027341D01*
X169215893Y-81027332D01*
X169148016Y-80863459D01*
X169148009Y-80863446D01*
X169049464Y-80715965D01*
X169049461Y-80715961D01*
X168924038Y-80590538D01*
X168924034Y-80590535D01*
X168776553Y-80491990D01*
X168776540Y-80491983D01*
X168612667Y-80424106D01*
X168612658Y-80424103D01*
X168438694Y-80389500D01*
X168438691Y-80389500D01*
X168261309Y-80389500D01*
X168261306Y-80389500D01*
X168087341Y-80424103D01*
X168087332Y-80424106D01*
X167923459Y-80491983D01*
X167923446Y-80491990D01*
X167775965Y-80590535D01*
X167775961Y-80590538D01*
X167650538Y-80715961D01*
X167650535Y-80715965D01*
X167551990Y-80863446D01*
X167551983Y-80863459D01*
X167484106Y-81027332D01*
X167484103Y-81027341D01*
X167449500Y-81201304D01*
X149348161Y-81201304D01*
X149408127Y-81176465D01*
X149514669Y-81105276D01*
X149605276Y-81014669D01*
X149676465Y-80908127D01*
X149725501Y-80789744D01*
X149738564Y-80724075D01*
X149750500Y-80664071D01*
X149750500Y-80535928D01*
X149725502Y-80410261D01*
X149725501Y-80410260D01*
X149725501Y-80410256D01*
X149676465Y-80291873D01*
X149676464Y-80291872D01*
X149676461Y-80291866D01*
X149624480Y-80214071D01*
X157799499Y-80214071D01*
X157824497Y-80339738D01*
X157824499Y-80339744D01*
X157873533Y-80458124D01*
X157873538Y-80458133D01*
X157944723Y-80564668D01*
X157944726Y-80564672D01*
X158035327Y-80655273D01*
X158035331Y-80655276D01*
X158141866Y-80726461D01*
X158141872Y-80726464D01*
X158141873Y-80726465D01*
X158260256Y-80775501D01*
X158260260Y-80775501D01*
X158260261Y-80775502D01*
X158385928Y-80800500D01*
X158385931Y-80800500D01*
X158514071Y-80800500D01*
X158598615Y-80783682D01*
X158639744Y-80775501D01*
X158758127Y-80726465D01*
X158864669Y-80655276D01*
X158955276Y-80564669D01*
X159026465Y-80458127D01*
X159075501Y-80339744D01*
X159095703Y-80238184D01*
X159100500Y-80214071D01*
X159100500Y-80085928D01*
X159075502Y-79960261D01*
X159075501Y-79960260D01*
X159075501Y-79960256D01*
X159033795Y-79859570D01*
X159026466Y-79841875D01*
X159026461Y-79841866D01*
X158955276Y-79735331D01*
X158955273Y-79735327D01*
X158864672Y-79644726D01*
X158864668Y-79644723D01*
X158758133Y-79573538D01*
X158758124Y-79573533D01*
X158639744Y-79524499D01*
X158639738Y-79524497D01*
X158514071Y-79499500D01*
X158514069Y-79499500D01*
X158385931Y-79499500D01*
X158385929Y-79499500D01*
X158260261Y-79524497D01*
X158260255Y-79524499D01*
X158141875Y-79573533D01*
X158141866Y-79573538D01*
X158035331Y-79644723D01*
X158035327Y-79644726D01*
X157944726Y-79735327D01*
X157944723Y-79735331D01*
X157873538Y-79841866D01*
X157873533Y-79841875D01*
X157824499Y-79960255D01*
X157824497Y-79960261D01*
X157799500Y-80085928D01*
X157799500Y-80085931D01*
X157799500Y-80214069D01*
X157799500Y-80214071D01*
X157799499Y-80214071D01*
X149624480Y-80214071D01*
X149605276Y-80185331D01*
X149605273Y-80185327D01*
X149514672Y-80094726D01*
X149514668Y-80094723D01*
X149408133Y-80023538D01*
X149408124Y-80023533D01*
X149289744Y-79974499D01*
X149289738Y-79974497D01*
X149164071Y-79949500D01*
X149164069Y-79949500D01*
X149035931Y-79949500D01*
X149035929Y-79949500D01*
X148910261Y-79974497D01*
X148910255Y-79974499D01*
X148791875Y-80023533D01*
X148791866Y-80023538D01*
X148685331Y-80094723D01*
X148685327Y-80094726D01*
X148594726Y-80185327D01*
X148594723Y-80185331D01*
X148523538Y-80291866D01*
X148523533Y-80291875D01*
X148474499Y-80410255D01*
X148474497Y-80410261D01*
X148449500Y-80535928D01*
X148449500Y-80535931D01*
X148449500Y-80664069D01*
X148449500Y-80664071D01*
X148449499Y-80664071D01*
X136600000Y-80664071D01*
X136600000Y-80292172D01*
X136599999Y-80292155D01*
X136593598Y-80232627D01*
X136593596Y-80232620D01*
X136543354Y-80097913D01*
X136543350Y-80097906D01*
X136457190Y-79982812D01*
X136457187Y-79982809D01*
X136342093Y-79896649D01*
X136342086Y-79896645D01*
X136207379Y-79846403D01*
X136207372Y-79846401D01*
X136147844Y-79840000D01*
X135500000Y-79840000D01*
X135500000Y-80756988D01*
X135442993Y-80724075D01*
X135315826Y-80690000D01*
X135184174Y-80690000D01*
X135057007Y-80724075D01*
X135000000Y-80756988D01*
X135000000Y-79840000D01*
X134352155Y-79840000D01*
X134292627Y-79846401D01*
X134292620Y-79846403D01*
X134157913Y-79896645D01*
X134157906Y-79896649D01*
X134042812Y-79982809D01*
X134042809Y-79982812D01*
X133956649Y-80097906D01*
X133956645Y-80097913D01*
X133906403Y-80232620D01*
X133906401Y-80232627D01*
X133900000Y-80292155D01*
X133200500Y-80292155D01*
X133200500Y-76401577D01*
X134499500Y-76401577D01*
X134499500Y-76598422D01*
X134530290Y-76792826D01*
X134591117Y-76980029D01*
X134655882Y-77107137D01*
X134680476Y-77155405D01*
X134796172Y-77314646D01*
X134935354Y-77453828D01*
X135094595Y-77569524D01*
X135142175Y-77593767D01*
X135269970Y-77658882D01*
X135269972Y-77658882D01*
X135269975Y-77658884D01*
X135364933Y-77689738D01*
X135457173Y-77719709D01*
X135651578Y-77750500D01*
X135651583Y-77750500D01*
X135848422Y-77750500D01*
X136042826Y-77719709D01*
X136230025Y-77658884D01*
X136405405Y-77569524D01*
X136564646Y-77453828D01*
X136592246Y-77426228D01*
X143999500Y-77426228D01*
X143999500Y-77593771D01*
X144032182Y-77758074D01*
X144032184Y-77758082D01*
X144096295Y-77912860D01*
X144189373Y-78052162D01*
X144307837Y-78170626D01*
X144400494Y-78232537D01*
X144447137Y-78263703D01*
X144601918Y-78327816D01*
X144621570Y-78331725D01*
X144655039Y-78338383D01*
X144716950Y-78370768D01*
X144751524Y-78431484D01*
X144747785Y-78501253D01*
X144706918Y-78557925D01*
X144655039Y-78581617D01*
X144601925Y-78592182D01*
X144601917Y-78592184D01*
X144447139Y-78656295D01*
X144307837Y-78749373D01*
X144189373Y-78867837D01*
X144096295Y-79007139D01*
X144032184Y-79161917D01*
X144032182Y-79161925D01*
X143999500Y-79326228D01*
X143999500Y-79493771D01*
X144032182Y-79658074D01*
X144032184Y-79658082D01*
X144096295Y-79812860D01*
X144189373Y-79952162D01*
X144307837Y-80070626D01*
X144352547Y-80100500D01*
X144447137Y-80163703D01*
X144601918Y-80227816D01*
X144766228Y-80260499D01*
X144766232Y-80260500D01*
X144766233Y-80260500D01*
X144933768Y-80260500D01*
X144933769Y-80260499D01*
X145098082Y-80227816D01*
X145252863Y-80163703D01*
X145392162Y-80070626D01*
X145510626Y-79952162D01*
X145603703Y-79812863D01*
X145667816Y-79658082D01*
X145700500Y-79493767D01*
X145700500Y-79326233D01*
X145667816Y-79161918D01*
X145603703Y-79007137D01*
X145533603Y-78902225D01*
X145510626Y-78867837D01*
X145392162Y-78749373D01*
X145260357Y-78661304D01*
X167449500Y-78661304D01*
X167449500Y-78838695D01*
X167484103Y-79012658D01*
X167484106Y-79012667D01*
X167551983Y-79176540D01*
X167551990Y-79176553D01*
X167650535Y-79324034D01*
X167650538Y-79324038D01*
X167775961Y-79449461D01*
X167775965Y-79449464D01*
X167923446Y-79548009D01*
X167923459Y-79548016D01*
X167985064Y-79573533D01*
X168087334Y-79615894D01*
X168087336Y-79615894D01*
X168087341Y-79615896D01*
X168261304Y-79650499D01*
X168261307Y-79650500D01*
X168261309Y-79650500D01*
X168438693Y-79650500D01*
X168438694Y-79650499D01*
X168496682Y-79638964D01*
X168612658Y-79615896D01*
X168612661Y-79615894D01*
X168612666Y-79615894D01*
X168776547Y-79548013D01*
X168827344Y-79514071D01*
X177499499Y-79514071D01*
X177524497Y-79639738D01*
X177524499Y-79639744D01*
X177573533Y-79758124D01*
X177573538Y-79758133D01*
X177644723Y-79864668D01*
X177644726Y-79864672D01*
X177735327Y-79955273D01*
X177735331Y-79955276D01*
X177841866Y-80026461D01*
X177841872Y-80026464D01*
X177841873Y-80026465D01*
X177960256Y-80075501D01*
X177960260Y-80075501D01*
X177960261Y-80075502D01*
X178085928Y-80100500D01*
X178085931Y-80100500D01*
X178214071Y-80100500D01*
X178298615Y-80083682D01*
X178339744Y-80075501D01*
X178458127Y-80026465D01*
X178564669Y-79955276D01*
X178655276Y-79864669D01*
X178726465Y-79758127D01*
X178775501Y-79639744D01*
X178788672Y-79573533D01*
X178800500Y-79514071D01*
X178800500Y-79385928D01*
X178798340Y-79375072D01*
X178804564Y-79305480D01*
X178847425Y-79250301D01*
X178851023Y-79247802D01*
X178914669Y-79205276D01*
X179005276Y-79114669D01*
X179076465Y-79008127D01*
X179125501Y-78889744D01*
X179135656Y-78838691D01*
X179150500Y-78764071D01*
X179150500Y-78635928D01*
X179125502Y-78510261D01*
X179125501Y-78510260D01*
X179125501Y-78510256D01*
X179076465Y-78391873D01*
X179076464Y-78391872D01*
X179076461Y-78391866D01*
X179005276Y-78285331D01*
X179005273Y-78285327D01*
X178914672Y-78194726D01*
X178914668Y-78194723D01*
X178808133Y-78123538D01*
X178808124Y-78123533D01*
X178689744Y-78074499D01*
X178689738Y-78074497D01*
X178564071Y-78049500D01*
X178564069Y-78049500D01*
X178435931Y-78049500D01*
X178435929Y-78049500D01*
X178310261Y-78074497D01*
X178310255Y-78074499D01*
X178191875Y-78123533D01*
X178191866Y-78123538D01*
X178085331Y-78194723D01*
X178085327Y-78194726D01*
X177994726Y-78285327D01*
X177994723Y-78285331D01*
X177923538Y-78391866D01*
X177923533Y-78391875D01*
X177874499Y-78510255D01*
X177874497Y-78510261D01*
X177849500Y-78635928D01*
X177849500Y-78764073D01*
X177851660Y-78774932D01*
X177845433Y-78844524D01*
X177802569Y-78899701D01*
X177798934Y-78902225D01*
X177735331Y-78944723D01*
X177735327Y-78944726D01*
X177644726Y-79035327D01*
X177644723Y-79035331D01*
X177573538Y-79141866D01*
X177573533Y-79141875D01*
X177524499Y-79260255D01*
X177524497Y-79260261D01*
X177499500Y-79385928D01*
X177499500Y-79385931D01*
X177499500Y-79514069D01*
X177499500Y-79514071D01*
X177499499Y-79514071D01*
X168827344Y-79514071D01*
X168924035Y-79449464D01*
X169049464Y-79324035D01*
X169148013Y-79176547D01*
X169154073Y-79161918D01*
X169173644Y-79114668D01*
X169215894Y-79012666D01*
X169216798Y-79008124D01*
X169250499Y-78838695D01*
X169250500Y-78838693D01*
X169250500Y-78661306D01*
X169250499Y-78661304D01*
X169215896Y-78487341D01*
X169215893Y-78487332D01*
X169148016Y-78323459D01*
X169148009Y-78323446D01*
X169049464Y-78175965D01*
X169049461Y-78175961D01*
X168924038Y-78050538D01*
X168924034Y-78050535D01*
X168776553Y-77951990D01*
X168776540Y-77951983D01*
X168612667Y-77884106D01*
X168612658Y-77884103D01*
X168438694Y-77849500D01*
X168438691Y-77849500D01*
X168261309Y-77849500D01*
X168261306Y-77849500D01*
X168087341Y-77884103D01*
X168087332Y-77884106D01*
X167923459Y-77951983D01*
X167923446Y-77951990D01*
X167775965Y-78050535D01*
X167775961Y-78050538D01*
X167650538Y-78175961D01*
X167650535Y-78175965D01*
X167551990Y-78323446D01*
X167551983Y-78323459D01*
X167484106Y-78487332D01*
X167484103Y-78487341D01*
X167449500Y-78661304D01*
X145260357Y-78661304D01*
X145252860Y-78656295D01*
X145098082Y-78592184D01*
X145098074Y-78592182D01*
X145044960Y-78581617D01*
X144983049Y-78549232D01*
X144948475Y-78488517D01*
X144952214Y-78418747D01*
X144993080Y-78362075D01*
X145044960Y-78338383D01*
X145068469Y-78333706D01*
X145098082Y-78327816D01*
X145252863Y-78263703D01*
X145392162Y-78170626D01*
X145510626Y-78052162D01*
X145603703Y-77912863D01*
X145667816Y-77758082D01*
X145700500Y-77593767D01*
X145700500Y-77564071D01*
X147199499Y-77564071D01*
X147224497Y-77689738D01*
X147224499Y-77689744D01*
X147273533Y-77808124D01*
X147273538Y-77808133D01*
X147344723Y-77914668D01*
X147344726Y-77914672D01*
X147435327Y-78005273D01*
X147435331Y-78005276D01*
X147541866Y-78076461D01*
X147541872Y-78076464D01*
X147541873Y-78076465D01*
X147660256Y-78125501D01*
X147660260Y-78125501D01*
X147660261Y-78125502D01*
X147785928Y-78150500D01*
X147785931Y-78150500D01*
X147914071Y-78150500D01*
X147998615Y-78133682D01*
X148039744Y-78125501D01*
X148158127Y-78076465D01*
X148264669Y-78005276D01*
X148355276Y-77914669D01*
X148426465Y-77808127D01*
X148475501Y-77689744D01*
X148494592Y-77593771D01*
X148500500Y-77564071D01*
X148500500Y-77435928D01*
X148475502Y-77310261D01*
X148475501Y-77310260D01*
X148475501Y-77310256D01*
X148435329Y-77213273D01*
X148426466Y-77191875D01*
X148426461Y-77191866D01*
X148355276Y-77085331D01*
X148355273Y-77085327D01*
X148264672Y-76994726D01*
X148264668Y-76994723D01*
X148158133Y-76923538D01*
X148158124Y-76923533D01*
X148039744Y-76874499D01*
X148039738Y-76874497D01*
X147914071Y-76849500D01*
X147914069Y-76849500D01*
X147785931Y-76849500D01*
X147785929Y-76849500D01*
X147660261Y-76874497D01*
X147660255Y-76874499D01*
X147541875Y-76923533D01*
X147541866Y-76923538D01*
X147435331Y-76994723D01*
X147435327Y-76994726D01*
X147344726Y-77085327D01*
X147344723Y-77085331D01*
X147273538Y-77191866D01*
X147273533Y-77191875D01*
X147224499Y-77310255D01*
X147224497Y-77310261D01*
X147199500Y-77435928D01*
X147199500Y-77435931D01*
X147199500Y-77564069D01*
X147199500Y-77564071D01*
X147199499Y-77564071D01*
X145700500Y-77564071D01*
X145700500Y-77426233D01*
X145667816Y-77261918D01*
X145603703Y-77107137D01*
X145542890Y-77016124D01*
X145510626Y-76967837D01*
X145392162Y-76849373D01*
X145252860Y-76756295D01*
X145098082Y-76692184D01*
X145098074Y-76692182D01*
X144933771Y-76659500D01*
X144933767Y-76659500D01*
X144766233Y-76659500D01*
X144766228Y-76659500D01*
X144601925Y-76692182D01*
X144601917Y-76692184D01*
X144447139Y-76756295D01*
X144307837Y-76849373D01*
X144189373Y-76967837D01*
X144096295Y-77107139D01*
X144032184Y-77261917D01*
X144032182Y-77261925D01*
X143999500Y-77426228D01*
X136592246Y-77426228D01*
X136703828Y-77314646D01*
X136819524Y-77155405D01*
X136908884Y-76980025D01*
X136969709Y-76792826D01*
X136971101Y-76784035D01*
X137000500Y-76598422D01*
X137000500Y-76401577D01*
X136975205Y-76241875D01*
X136970801Y-76214071D01*
X154099499Y-76214071D01*
X154124497Y-76339738D01*
X154124499Y-76339744D01*
X154173533Y-76458124D01*
X154173538Y-76458133D01*
X154244723Y-76564668D01*
X154244726Y-76564672D01*
X154335327Y-76655273D01*
X154335331Y-76655276D01*
X154441866Y-76726461D01*
X154441872Y-76726464D01*
X154441873Y-76726465D01*
X154560256Y-76775501D01*
X154560260Y-76775501D01*
X154560261Y-76775502D01*
X154685928Y-76800500D01*
X154685931Y-76800500D01*
X154814071Y-76800500D01*
X154898615Y-76783682D01*
X154939744Y-76775501D01*
X155058127Y-76726465D01*
X155164669Y-76655276D01*
X155205874Y-76614071D01*
X157649499Y-76614071D01*
X157674497Y-76739738D01*
X157674499Y-76739744D01*
X157723533Y-76858124D01*
X157723538Y-76858133D01*
X157794723Y-76964668D01*
X157794726Y-76964672D01*
X157885327Y-77055273D01*
X157885331Y-77055276D01*
X157991866Y-77126461D01*
X157991872Y-77126464D01*
X157991873Y-77126465D01*
X158110256Y-77175501D01*
X158110260Y-77175501D01*
X158110261Y-77175502D01*
X158235928Y-77200500D01*
X158235931Y-77200500D01*
X158364071Y-77200500D01*
X158448615Y-77183682D01*
X158489744Y-77175501D01*
X158608127Y-77126465D01*
X158714669Y-77055276D01*
X158805276Y-76964669D01*
X158876465Y-76858127D01*
X158912111Y-76772071D01*
X159877499Y-76772071D01*
X159902497Y-76897738D01*
X159902499Y-76897744D01*
X159951533Y-77016124D01*
X159951538Y-77016133D01*
X160022723Y-77122668D01*
X160022726Y-77122672D01*
X160113327Y-77213273D01*
X160113331Y-77213276D01*
X160219866Y-77284461D01*
X160219872Y-77284464D01*
X160219873Y-77284465D01*
X160338256Y-77333501D01*
X160338260Y-77333501D01*
X160338261Y-77333502D01*
X160463928Y-77358500D01*
X160463931Y-77358500D01*
X160592071Y-77358500D01*
X160676615Y-77341682D01*
X160717744Y-77333501D01*
X160836127Y-77284465D01*
X160942669Y-77213276D01*
X161033276Y-77122669D01*
X161104465Y-77016127D01*
X161153501Y-76897744D01*
X161177817Y-76775502D01*
X161178500Y-76772071D01*
X161178500Y-76643928D01*
X161153502Y-76518261D01*
X161153501Y-76518260D01*
X161153501Y-76518256D01*
X161104465Y-76399873D01*
X161104464Y-76399872D01*
X161104461Y-76399866D01*
X161033276Y-76293331D01*
X161033273Y-76293327D01*
X160942672Y-76202726D01*
X160942668Y-76202723D01*
X160836133Y-76131538D01*
X160836124Y-76131533D01*
X160811429Y-76121304D01*
X167449500Y-76121304D01*
X167449500Y-76298695D01*
X167484103Y-76472658D01*
X167484106Y-76472667D01*
X167551983Y-76636540D01*
X167551990Y-76636553D01*
X167650535Y-76784034D01*
X167650538Y-76784038D01*
X167775961Y-76909461D01*
X167775965Y-76909464D01*
X167923446Y-77008009D01*
X167923459Y-77008016D01*
X168037550Y-77055273D01*
X168087334Y-77075894D01*
X168087336Y-77075894D01*
X168087341Y-77075896D01*
X168261304Y-77110499D01*
X168261307Y-77110500D01*
X168261309Y-77110500D01*
X168438693Y-77110500D01*
X168438694Y-77110499D01*
X168496682Y-77098964D01*
X168612658Y-77075896D01*
X168612661Y-77075894D01*
X168612666Y-77075894D01*
X168776547Y-77008013D01*
X168924035Y-76909464D01*
X169049464Y-76784035D01*
X169148013Y-76636547D01*
X169215894Y-76472666D01*
X169218787Y-76458126D01*
X169250499Y-76298695D01*
X169250500Y-76298693D01*
X169250500Y-76121306D01*
X169250499Y-76121304D01*
X169215896Y-75947341D01*
X169215893Y-75947332D01*
X169206435Y-75924499D01*
X169150619Y-75789744D01*
X169148016Y-75783459D01*
X169148009Y-75783446D01*
X169068244Y-75664071D01*
X176549499Y-75664071D01*
X176574497Y-75789738D01*
X176574499Y-75789744D01*
X176623533Y-75908124D01*
X176623538Y-75908133D01*
X176694723Y-76014668D01*
X176694726Y-76014672D01*
X176785327Y-76105273D01*
X176785331Y-76105276D01*
X176891866Y-76176461D01*
X176891872Y-76176464D01*
X176891873Y-76176465D01*
X177010256Y-76225501D01*
X177010260Y-76225501D01*
X177010261Y-76225502D01*
X177135928Y-76250500D01*
X177135931Y-76250500D01*
X177264071Y-76250500D01*
X177348615Y-76233682D01*
X177389744Y-76225501D01*
X177508127Y-76176465D01*
X177614669Y-76105276D01*
X177705276Y-76014669D01*
X177776465Y-75908127D01*
X177825501Y-75789744D01*
X177846266Y-75685354D01*
X177850500Y-75664071D01*
X177850500Y-75535928D01*
X177825502Y-75410261D01*
X177825501Y-75410260D01*
X177825501Y-75410256D01*
X177776465Y-75291873D01*
X177776464Y-75291872D01*
X177776461Y-75291866D01*
X177705276Y-75185331D01*
X177705273Y-75185327D01*
X177614672Y-75094726D01*
X177614668Y-75094723D01*
X177508133Y-75023538D01*
X177508124Y-75023533D01*
X177389744Y-74974499D01*
X177389738Y-74974497D01*
X177264071Y-74949500D01*
X177264069Y-74949500D01*
X177135931Y-74949500D01*
X177135929Y-74949500D01*
X177010261Y-74974497D01*
X177010255Y-74974499D01*
X176891875Y-75023533D01*
X176891866Y-75023538D01*
X176785331Y-75094723D01*
X176785327Y-75094726D01*
X176694726Y-75185327D01*
X176694723Y-75185331D01*
X176623538Y-75291866D01*
X176623533Y-75291875D01*
X176574499Y-75410255D01*
X176574497Y-75410261D01*
X176549500Y-75535928D01*
X176549500Y-75535931D01*
X176549500Y-75664069D01*
X176549500Y-75664071D01*
X176549499Y-75664071D01*
X169068244Y-75664071D01*
X169049464Y-75635965D01*
X169049461Y-75635961D01*
X168924038Y-75510538D01*
X168924034Y-75510535D01*
X168776553Y-75411990D01*
X168776540Y-75411983D01*
X168612667Y-75344106D01*
X168612658Y-75344103D01*
X168438694Y-75309500D01*
X168438691Y-75309500D01*
X168261309Y-75309500D01*
X168261306Y-75309500D01*
X168087341Y-75344103D01*
X168087332Y-75344106D01*
X167923459Y-75411983D01*
X167923446Y-75411990D01*
X167775965Y-75510535D01*
X167775961Y-75510538D01*
X167650538Y-75635961D01*
X167650535Y-75635965D01*
X167551990Y-75783446D01*
X167551983Y-75783459D01*
X167484106Y-75947332D01*
X167484103Y-75947341D01*
X167449500Y-76121304D01*
X160811429Y-76121304D01*
X160717744Y-76082499D01*
X160717738Y-76082497D01*
X160592071Y-76057500D01*
X160592069Y-76057500D01*
X160463931Y-76057500D01*
X160463929Y-76057500D01*
X160338261Y-76082497D01*
X160338255Y-76082499D01*
X160219875Y-76131533D01*
X160219866Y-76131538D01*
X160113331Y-76202723D01*
X160113327Y-76202726D01*
X160022726Y-76293327D01*
X160022723Y-76293331D01*
X159951538Y-76399866D01*
X159951533Y-76399875D01*
X159902499Y-76518255D01*
X159902497Y-76518261D01*
X159877500Y-76643928D01*
X159877500Y-76643931D01*
X159877500Y-76772069D01*
X159877500Y-76772071D01*
X159877499Y-76772071D01*
X158912111Y-76772071D01*
X158925501Y-76739744D01*
X158950500Y-76614069D01*
X158950500Y-76485931D01*
X158950500Y-76485928D01*
X158925502Y-76360261D01*
X158925501Y-76360260D01*
X158925501Y-76360256D01*
X158887574Y-76268692D01*
X158876466Y-76241875D01*
X158876461Y-76241866D01*
X158805276Y-76135331D01*
X158805273Y-76135327D01*
X158714672Y-76044726D01*
X158714668Y-76044723D01*
X158608133Y-75973538D01*
X158608124Y-75973533D01*
X158489744Y-75924499D01*
X158489738Y-75924497D01*
X158364071Y-75899500D01*
X158364069Y-75899500D01*
X158235931Y-75899500D01*
X158235929Y-75899500D01*
X158110261Y-75924497D01*
X158110255Y-75924499D01*
X157991875Y-75973533D01*
X157991866Y-75973538D01*
X157885331Y-76044723D01*
X157885327Y-76044726D01*
X157794726Y-76135327D01*
X157794723Y-76135331D01*
X157723538Y-76241866D01*
X157723533Y-76241875D01*
X157674499Y-76360255D01*
X157674497Y-76360261D01*
X157649500Y-76485928D01*
X157649500Y-76485931D01*
X157649500Y-76614069D01*
X157649500Y-76614071D01*
X157649499Y-76614071D01*
X155205874Y-76614071D01*
X155255276Y-76564669D01*
X155326465Y-76458127D01*
X155375501Y-76339744D01*
X155394969Y-76241875D01*
X155400500Y-76214071D01*
X155400500Y-76085928D01*
X155375502Y-75960261D01*
X155375501Y-75960260D01*
X155375501Y-75960256D01*
X155337574Y-75868692D01*
X155326466Y-75841875D01*
X155326461Y-75841866D01*
X155255276Y-75735331D01*
X155255273Y-75735327D01*
X155164672Y-75644726D01*
X155164668Y-75644723D01*
X155058133Y-75573538D01*
X155058124Y-75573533D01*
X154939744Y-75524499D01*
X154939738Y-75524497D01*
X154814071Y-75499500D01*
X154814069Y-75499500D01*
X154685931Y-75499500D01*
X154685929Y-75499500D01*
X154560261Y-75524497D01*
X154560255Y-75524499D01*
X154441875Y-75573533D01*
X154441866Y-75573538D01*
X154335331Y-75644723D01*
X154335327Y-75644726D01*
X154244726Y-75735327D01*
X154244723Y-75735331D01*
X154173538Y-75841866D01*
X154173533Y-75841875D01*
X154124499Y-75960255D01*
X154124497Y-75960261D01*
X154099500Y-76085928D01*
X154099500Y-76085931D01*
X154099500Y-76214069D01*
X154099500Y-76214071D01*
X154099499Y-76214071D01*
X136970801Y-76214071D01*
X136969709Y-76207174D01*
X136969708Y-76207170D01*
X136969708Y-76207169D01*
X136940786Y-76118157D01*
X136908882Y-76019970D01*
X136819523Y-75844594D01*
X136703828Y-75685354D01*
X136564646Y-75546172D01*
X136405405Y-75430476D01*
X136369118Y-75411987D01*
X136230029Y-75341117D01*
X136042826Y-75280290D01*
X135848422Y-75249500D01*
X135848417Y-75249500D01*
X135651583Y-75249500D01*
X135651578Y-75249500D01*
X135457173Y-75280290D01*
X135269970Y-75341117D01*
X135094594Y-75430476D01*
X135032622Y-75475502D01*
X134935354Y-75546172D01*
X134935352Y-75546174D01*
X134935351Y-75546174D01*
X134796174Y-75685351D01*
X134796174Y-75685352D01*
X134796172Y-75685354D01*
X134746485Y-75753741D01*
X134680476Y-75844594D01*
X134591117Y-76019970D01*
X134530290Y-76207173D01*
X134499500Y-76401577D01*
X133200500Y-76401577D01*
X133200500Y-74914071D01*
X173449499Y-74914071D01*
X173474497Y-75039738D01*
X173474499Y-75039744D01*
X173523533Y-75158124D01*
X173523538Y-75158133D01*
X173594723Y-75264668D01*
X173594726Y-75264672D01*
X173685327Y-75355273D01*
X173685331Y-75355276D01*
X173791866Y-75426461D01*
X173791872Y-75426464D01*
X173791873Y-75426465D01*
X173910256Y-75475501D01*
X173910260Y-75475501D01*
X173910261Y-75475502D01*
X174035928Y-75500500D01*
X174035931Y-75500500D01*
X174164071Y-75500500D01*
X174248615Y-75483682D01*
X174289744Y-75475501D01*
X174408127Y-75426465D01*
X174514669Y-75355276D01*
X174605276Y-75264669D01*
X174676465Y-75158127D01*
X174725501Y-75039744D01*
X174733682Y-74998615D01*
X174750500Y-74914071D01*
X174750500Y-74785928D01*
X174725502Y-74660261D01*
X174725501Y-74660260D01*
X174725501Y-74660256D01*
X174676465Y-74541873D01*
X174676464Y-74541872D01*
X174676461Y-74541866D01*
X174605276Y-74435331D01*
X174605273Y-74435327D01*
X174514672Y-74344726D01*
X174514668Y-74344723D01*
X174408133Y-74273538D01*
X174408124Y-74273533D01*
X174289744Y-74224499D01*
X174289738Y-74224497D01*
X174164071Y-74199500D01*
X174164069Y-74199500D01*
X174035931Y-74199500D01*
X174035929Y-74199500D01*
X173910261Y-74224497D01*
X173910255Y-74224499D01*
X173791875Y-74273533D01*
X173791866Y-74273538D01*
X173685331Y-74344723D01*
X173685327Y-74344726D01*
X173594726Y-74435327D01*
X173594723Y-74435331D01*
X173523538Y-74541866D01*
X173523533Y-74541875D01*
X173474499Y-74660255D01*
X173474497Y-74660261D01*
X173449500Y-74785928D01*
X173449500Y-74785931D01*
X173449500Y-74914069D01*
X173449500Y-74914071D01*
X173449499Y-74914071D01*
X133200500Y-74914071D01*
X133200500Y-74749870D01*
X133220185Y-74682831D01*
X133272989Y-74637076D01*
X133322235Y-74625891D01*
X175290134Y-73860732D01*
X175357517Y-73879190D01*
X175390081Y-73910600D01*
X175390860Y-73909961D01*
X175394726Y-73914672D01*
X175485327Y-74005273D01*
X175485331Y-74005276D01*
X175591866Y-74076461D01*
X175591872Y-74076464D01*
X175591873Y-74076465D01*
X175710256Y-74125501D01*
X175710260Y-74125501D01*
X175710261Y-74125502D01*
X175835928Y-74150500D01*
X175835931Y-74150500D01*
X175964071Y-74150500D01*
X176048615Y-74133682D01*
X176089744Y-74125501D01*
X176208127Y-74076465D01*
X176314669Y-74005276D01*
X176405276Y-73914669D01*
X176419493Y-73893390D01*
X176473103Y-73848586D01*
X176520329Y-73838303D01*
X186011100Y-73665267D01*
X186078483Y-73683725D01*
G37*
%TD.AperFunction*%
%TD*%
%TA.AperFunction,Conductor*%
%TO.N,/vBUS*%
G36*
X171648704Y-108897571D02*
G01*
X171714362Y-108921462D01*
X171756680Y-108977058D01*
X171763713Y-109004568D01*
X172822762Y-116770928D01*
X172812316Y-116840012D01*
X172766178Y-116892482D01*
X172698997Y-116911679D01*
X172675708Y-116909299D01*
X172601308Y-116894500D01*
X172601305Y-116894500D01*
X172438695Y-116894500D01*
X172438693Y-116894500D01*
X172279216Y-116926222D01*
X172279206Y-116926225D01*
X172128980Y-116988450D01*
X172128976Y-116988452D01*
X171993779Y-117078788D01*
X171993770Y-117078795D01*
X171976244Y-117096321D01*
X171914920Y-117129805D01*
X171845229Y-117124819D01*
X171789296Y-117082946D01*
X171764881Y-117017481D01*
X171766948Y-116984447D01*
X171775500Y-116941455D01*
X171775500Y-116798545D01*
X171775500Y-116798542D01*
X171747620Y-116658385D01*
X171747619Y-116658384D01*
X171747619Y-116658380D01*
X171692929Y-116526347D01*
X171692928Y-116526346D01*
X171692925Y-116526340D01*
X171613532Y-116407521D01*
X171613529Y-116407517D01*
X171512482Y-116306470D01*
X171512478Y-116306467D01*
X171393659Y-116227074D01*
X171393650Y-116227069D01*
X171261620Y-116172381D01*
X171261614Y-116172379D01*
X171121457Y-116144500D01*
X171121455Y-116144500D01*
X170978545Y-116144500D01*
X170978543Y-116144500D01*
X170838385Y-116172379D01*
X170838379Y-116172381D01*
X170700719Y-116229402D01*
X170700016Y-116227705D01*
X170640029Y-116240184D01*
X170599717Y-116228347D01*
X170599281Y-116229402D01*
X170461620Y-116172381D01*
X170461614Y-116172379D01*
X170321457Y-116144500D01*
X170321455Y-116144500D01*
X170178545Y-116144500D01*
X170178543Y-116144500D01*
X170038386Y-116172379D01*
X170038378Y-116172381D01*
X170008570Y-116184728D01*
X169939100Y-116192195D01*
X169892229Y-116173268D01*
X169840790Y-116138897D01*
X169840777Y-116138890D01*
X169690648Y-116076705D01*
X169690636Y-116076702D01*
X169531259Y-116045000D01*
X169368740Y-116045000D01*
X169209363Y-116076702D01*
X169209351Y-116076705D01*
X169059217Y-116138892D01*
X169059215Y-116138893D01*
X169007768Y-116173269D01*
X168941091Y-116194146D01*
X168891428Y-116184728D01*
X168861620Y-116172381D01*
X168861616Y-116172380D01*
X168861613Y-116172379D01*
X168721457Y-116144500D01*
X168721455Y-116144500D01*
X168578545Y-116144500D01*
X168578543Y-116144500D01*
X168438385Y-116172379D01*
X168438379Y-116172381D01*
X168300719Y-116229402D01*
X168300016Y-116227705D01*
X168240029Y-116240184D01*
X168199717Y-116228347D01*
X168199281Y-116229402D01*
X168061620Y-116172381D01*
X168061614Y-116172379D01*
X167921457Y-116144500D01*
X167921455Y-116144500D01*
X167778545Y-116144500D01*
X167778543Y-116144500D01*
X167638386Y-116172379D01*
X167638378Y-116172381D01*
X167608570Y-116184728D01*
X167539100Y-116192195D01*
X167492229Y-116173268D01*
X167440790Y-116138897D01*
X167440777Y-116138890D01*
X167290648Y-116076705D01*
X167290636Y-116076702D01*
X167131259Y-116045000D01*
X166968740Y-116045000D01*
X166809363Y-116076702D01*
X166809351Y-116076705D01*
X166659217Y-116138892D01*
X166659215Y-116138893D01*
X166607768Y-116173269D01*
X166541091Y-116194146D01*
X166491428Y-116184728D01*
X166461620Y-116172381D01*
X166461616Y-116172380D01*
X166461613Y-116172379D01*
X166321457Y-116144500D01*
X166321455Y-116144500D01*
X166178545Y-116144500D01*
X166178543Y-116144500D01*
X166038385Y-116172379D01*
X166038379Y-116172381D01*
X165900719Y-116229402D01*
X165900016Y-116227705D01*
X165840029Y-116240184D01*
X165799717Y-116228347D01*
X165799281Y-116229402D01*
X165661620Y-116172381D01*
X165661614Y-116172379D01*
X165521457Y-116144500D01*
X165521455Y-116144500D01*
X165378545Y-116144500D01*
X165378543Y-116144500D01*
X165238385Y-116172379D01*
X165238379Y-116172381D01*
X165106349Y-116227069D01*
X165106340Y-116227074D01*
X164987521Y-116306467D01*
X164987517Y-116306470D01*
X164886470Y-116407517D01*
X164886467Y-116407521D01*
X164807074Y-116526340D01*
X164807069Y-116526349D01*
X164752381Y-116658379D01*
X164752379Y-116658385D01*
X164724500Y-116798542D01*
X164724500Y-116941459D01*
X164733051Y-116984447D01*
X164726824Y-117054038D01*
X164683961Y-117109216D01*
X164618071Y-117132460D01*
X164550074Y-117116392D01*
X164523753Y-117096319D01*
X164506228Y-117078794D01*
X164506220Y-117078788D01*
X164371023Y-116988452D01*
X164371019Y-116988450D01*
X164220793Y-116926225D01*
X164220783Y-116926222D01*
X164061307Y-116894500D01*
X164061305Y-116894500D01*
X163898695Y-116894500D01*
X163898693Y-116894500D01*
X163739216Y-116926222D01*
X163739206Y-116926225D01*
X163588980Y-116988450D01*
X163588976Y-116988452D01*
X163453779Y-117078788D01*
X163453771Y-117078794D01*
X163338794Y-117193771D01*
X163338788Y-117193779D01*
X163248452Y-117328976D01*
X163248450Y-117328980D01*
X163186225Y-117479206D01*
X163186222Y-117479216D01*
X163154500Y-117638692D01*
X163154500Y-117638693D01*
X163154500Y-117638695D01*
X163154500Y-118401305D01*
X163154500Y-118401307D01*
X163154499Y-118401307D01*
X163186222Y-118560783D01*
X163186225Y-118560793D01*
X163248450Y-118711019D01*
X163248452Y-118711023D01*
X163338788Y-118846220D01*
X163338794Y-118846228D01*
X163453771Y-118961205D01*
X163453779Y-118961211D01*
X163588976Y-119051547D01*
X163588980Y-119051549D01*
X163734230Y-119111713D01*
X163739211Y-119113776D01*
X163739215Y-119113776D01*
X163739216Y-119113777D01*
X163898692Y-119145500D01*
X163898695Y-119145500D01*
X164061307Y-119145500D01*
X164168598Y-119124157D01*
X164220789Y-119113776D01*
X164371021Y-119051548D01*
X164371023Y-119051547D01*
X164441453Y-119004487D01*
X164506225Y-118961208D01*
X164621208Y-118846225D01*
X164711548Y-118711021D01*
X164773776Y-118560789D01*
X164805500Y-118401305D01*
X164805500Y-117638695D01*
X164805499Y-117638692D01*
X164788828Y-117554883D01*
X164790821Y-117532608D01*
X164788115Y-117510411D01*
X164793874Y-117498484D01*
X164795055Y-117485291D01*
X164808773Y-117467630D01*
X164818498Y-117447493D01*
X164829791Y-117440573D01*
X164837917Y-117430113D01*
X164859006Y-117422672D01*
X164878074Y-117410990D01*
X164891316Y-117411274D01*
X164903807Y-117406868D01*
X164925571Y-117412010D01*
X164947927Y-117412491D01*
X164963607Y-117420998D01*
X164971804Y-117422935D01*
X164979710Y-117427839D01*
X164986195Y-117432206D01*
X164987521Y-117433532D01*
X165069705Y-117488446D01*
X165069765Y-117488486D01*
X165091962Y-117515243D01*
X165114195Y-117541846D01*
X165114249Y-117542109D01*
X165114375Y-117542260D01*
X165114507Y-117543346D01*
X165124500Y-117591337D01*
X165124500Y-117651455D01*
X165124500Y-117651457D01*
X165124499Y-117651457D01*
X165152379Y-117791614D01*
X165152381Y-117791620D01*
X165207069Y-117923650D01*
X165207074Y-117923659D01*
X165286467Y-118042478D01*
X165286470Y-118042482D01*
X165387517Y-118143529D01*
X165387521Y-118143532D01*
X165506340Y-118222925D01*
X165506346Y-118222928D01*
X165506347Y-118222929D01*
X165638380Y-118277619D01*
X165638384Y-118277619D01*
X165638385Y-118277620D01*
X165778542Y-118305500D01*
X165778545Y-118305500D01*
X165921457Y-118305500D01*
X166015751Y-118286742D01*
X166061620Y-118277619D01*
X166193653Y-118222929D01*
X166193652Y-118222929D01*
X166199281Y-118220598D01*
X166199985Y-118222299D01*
X166259941Y-118209812D01*
X166300280Y-118221656D01*
X166300719Y-118220598D01*
X166306347Y-118222929D01*
X166438380Y-118277619D01*
X166438384Y-118277619D01*
X166438385Y-118277620D01*
X166578542Y-118305500D01*
X166578545Y-118305500D01*
X166721457Y-118305500D01*
X166815751Y-118286742D01*
X166861620Y-118277619D01*
X166993653Y-118222929D01*
X166993652Y-118222929D01*
X166999281Y-118220598D01*
X166999985Y-118222299D01*
X167059941Y-118209812D01*
X167100280Y-118221656D01*
X167100719Y-118220598D01*
X167106347Y-118222929D01*
X167238380Y-118277619D01*
X167238384Y-118277619D01*
X167238385Y-118277620D01*
X167378542Y-118305500D01*
X167378545Y-118305500D01*
X167521457Y-118305500D01*
X167615751Y-118286742D01*
X167661620Y-118277619D01*
X167793653Y-118222929D01*
X167912479Y-118143532D01*
X168013532Y-118042479D01*
X168092929Y-117923653D01*
X168135439Y-117821024D01*
X168179280Y-117766621D01*
X168245574Y-117744556D01*
X168313273Y-117761835D01*
X168360884Y-117812972D01*
X168364561Y-117821025D01*
X168407067Y-117923646D01*
X168407074Y-117923659D01*
X168486467Y-118042478D01*
X168486470Y-118042482D01*
X168587517Y-118143529D01*
X168587521Y-118143532D01*
X168706340Y-118222925D01*
X168706346Y-118222928D01*
X168706347Y-118222929D01*
X168838380Y-118277619D01*
X168838384Y-118277619D01*
X168838385Y-118277620D01*
X168978542Y-118305500D01*
X168978545Y-118305500D01*
X169121457Y-118305500D01*
X169215751Y-118286742D01*
X169261620Y-118277619D01*
X169393653Y-118222929D01*
X169393652Y-118222929D01*
X169399281Y-118220598D01*
X169399985Y-118222299D01*
X169459941Y-118209812D01*
X169500280Y-118221656D01*
X169500719Y-118220598D01*
X169506347Y-118222929D01*
X169638380Y-118277619D01*
X169638384Y-118277619D01*
X169638385Y-118277620D01*
X169778542Y-118305500D01*
X169778545Y-118305500D01*
X169921457Y-118305500D01*
X170015751Y-118286742D01*
X170061620Y-118277619D01*
X170193653Y-118222929D01*
X170193652Y-118222929D01*
X170199281Y-118220598D01*
X170199985Y-118222299D01*
X170259941Y-118209812D01*
X170300280Y-118221656D01*
X170300719Y-118220598D01*
X170306347Y-118222929D01*
X170438380Y-118277619D01*
X170438384Y-118277619D01*
X170438385Y-118277620D01*
X170578542Y-118305500D01*
X170578545Y-118305500D01*
X170721457Y-118305500D01*
X170815751Y-118286742D01*
X170861620Y-118277619D01*
X170993653Y-118222929D01*
X171112479Y-118143532D01*
X171213532Y-118042479D01*
X171292929Y-117923653D01*
X171347619Y-117791620D01*
X171375500Y-117651455D01*
X171375500Y-117591337D01*
X171377672Y-117583939D01*
X171376411Y-117576331D01*
X171387379Y-117550879D01*
X171395185Y-117524298D01*
X171401707Y-117517633D01*
X171404064Y-117512166D01*
X171429518Y-117489217D01*
X171430235Y-117488486D01*
X171430294Y-117488446D01*
X171512479Y-117433532D01*
X171513806Y-117432204D01*
X171520289Y-117427839D01*
X171548221Y-117418981D01*
X171575192Y-117407525D01*
X171581138Y-117408542D01*
X171586890Y-117406719D01*
X171615179Y-117414368D01*
X171644060Y-117419312D01*
X171648511Y-117423382D01*
X171654337Y-117424958D01*
X171674000Y-117446689D01*
X171695623Y-117466461D01*
X171697167Y-117472292D01*
X171701216Y-117476767D01*
X171706008Y-117505678D01*
X171713510Y-117534003D01*
X171712378Y-117544101D01*
X171712643Y-117545696D01*
X171712044Y-117547084D01*
X171711171Y-117554881D01*
X171694500Y-117638690D01*
X171694500Y-117638693D01*
X171694500Y-117638695D01*
X171694500Y-118401305D01*
X171694500Y-118401307D01*
X171694499Y-118401307D01*
X171726222Y-118560783D01*
X171726225Y-118560793D01*
X171788450Y-118711019D01*
X171788452Y-118711023D01*
X171878788Y-118846220D01*
X171878794Y-118846228D01*
X171993771Y-118961205D01*
X171993779Y-118961211D01*
X172128976Y-119051547D01*
X172128980Y-119051549D01*
X172274230Y-119111713D01*
X172279211Y-119113776D01*
X172279215Y-119113776D01*
X172279216Y-119113777D01*
X172438692Y-119145500D01*
X172438695Y-119145500D01*
X172601307Y-119145500D01*
X172708598Y-119124157D01*
X172760789Y-119113776D01*
X172911021Y-119051548D01*
X172950207Y-119025364D01*
X173016883Y-119004487D01*
X173084263Y-119022971D01*
X173130954Y-119074950D01*
X173141960Y-119111713D01*
X173232233Y-119773716D01*
X173221787Y-119842800D01*
X173175649Y-119895270D01*
X173118898Y-119914103D01*
X160376018Y-120896137D01*
X160307664Y-120881662D01*
X160257987Y-120832530D01*
X160246914Y-120805329D01*
X159427693Y-117821025D01*
X158497666Y-114433071D01*
X167433635Y-114433071D01*
X167458633Y-114558738D01*
X167458635Y-114558744D01*
X167507669Y-114677124D01*
X167507674Y-114677133D01*
X167578859Y-114783668D01*
X167578862Y-114783672D01*
X167669463Y-114874273D01*
X167669467Y-114874276D01*
X167776002Y-114945461D01*
X167776008Y-114945464D01*
X167776009Y-114945465D01*
X167894392Y-114994501D01*
X167894396Y-114994501D01*
X167894397Y-114994502D01*
X168020064Y-115019500D01*
X168020067Y-115019500D01*
X168148207Y-115019500D01*
X168232751Y-115002682D01*
X168273880Y-114994501D01*
X168392263Y-114945465D01*
X168498805Y-114874276D01*
X168589412Y-114783669D01*
X168660601Y-114677127D01*
X168709637Y-114558744D01*
X168717118Y-114521132D01*
X168749501Y-114459223D01*
X168810216Y-114424648D01*
X168814511Y-114423713D01*
X168845744Y-114417501D01*
X168964127Y-114368465D01*
X169070669Y-114297276D01*
X169161276Y-114206669D01*
X169232465Y-114100127D01*
X169281501Y-113981744D01*
X169304977Y-113863726D01*
X169306500Y-113856071D01*
X169306500Y-113727928D01*
X169281502Y-113602261D01*
X169281501Y-113602257D01*
X169281501Y-113602256D01*
X169232465Y-113483873D01*
X169232464Y-113483872D01*
X169232461Y-113483866D01*
X169161276Y-113377331D01*
X169161273Y-113377327D01*
X169070672Y-113286726D01*
X169070668Y-113286723D01*
X168964133Y-113215538D01*
X168964124Y-113215533D01*
X168845744Y-113166499D01*
X168845738Y-113166497D01*
X168720071Y-113141500D01*
X168720069Y-113141500D01*
X168591931Y-113141500D01*
X168591929Y-113141500D01*
X168466261Y-113166497D01*
X168466255Y-113166499D01*
X168347875Y-113215533D01*
X168347866Y-113215538D01*
X168241331Y-113286723D01*
X168241327Y-113286726D01*
X168150726Y-113377327D01*
X168150723Y-113377331D01*
X168079538Y-113483866D01*
X168079533Y-113483875D01*
X168030498Y-113602257D01*
X168030497Y-113602261D01*
X168023017Y-113639867D01*
X167990632Y-113701778D01*
X167929916Y-113736352D01*
X167925593Y-113737292D01*
X167894395Y-113743497D01*
X167894393Y-113743498D01*
X167776011Y-113792533D01*
X167776002Y-113792538D01*
X167669467Y-113863723D01*
X167669463Y-113863726D01*
X167578862Y-113954327D01*
X167578859Y-113954331D01*
X167507674Y-114060866D01*
X167507669Y-114060875D01*
X167458635Y-114179255D01*
X167458633Y-114179261D01*
X167433636Y-114304928D01*
X167433636Y-114304931D01*
X167433636Y-114433069D01*
X167433636Y-114433071D01*
X167433635Y-114433071D01*
X158497666Y-114433071D01*
X157007489Y-109004568D01*
X156764003Y-108117582D01*
X156765238Y-108047723D01*
X156804047Y-107989622D01*
X156868106Y-107961726D01*
X156891423Y-107961006D01*
X171648704Y-108897571D01*
G37*
%TD.AperFunction*%
%TD*%
%TA.AperFunction,Conductor*%
%TO.N,/+5v_USB*%
G36*
X144005518Y-107282115D02*
G01*
X144048378Y-107291468D01*
X144082256Y-107305501D01*
X144082258Y-107305501D01*
X144082260Y-107305502D01*
X144207928Y-107330500D01*
X144207931Y-107330500D01*
X144336071Y-107330500D01*
X144406978Y-107316395D01*
X144461744Y-107305501D01*
X144461745Y-107305500D01*
X144465583Y-107304737D01*
X144466503Y-107304194D01*
X144501593Y-107300466D01*
X144569525Y-107302979D01*
X144589127Y-107305277D01*
X144715928Y-107330500D01*
X144715931Y-107330500D01*
X144844070Y-107330500D01*
X144855564Y-107328213D01*
X144903427Y-107318692D01*
X144932193Y-107316395D01*
X147442450Y-107409254D01*
X147508711Y-107431402D01*
X147525545Y-107445490D01*
X147535328Y-107455274D01*
X147535331Y-107455276D01*
X147641866Y-107526461D01*
X147641872Y-107526464D01*
X147641873Y-107526465D01*
X147760256Y-107575501D01*
X147760260Y-107575501D01*
X147760261Y-107575502D01*
X147885928Y-107600500D01*
X147885931Y-107600500D01*
X148014071Y-107600500D01*
X148098615Y-107583682D01*
X148139744Y-107575501D01*
X148258127Y-107526465D01*
X148258132Y-107526461D01*
X148258135Y-107526460D01*
X148291770Y-107503985D01*
X148348184Y-107466290D01*
X148414860Y-107445412D01*
X148421633Y-107445476D01*
X155105974Y-107692743D01*
X155172238Y-107714892D01*
X155216009Y-107769351D01*
X155219904Y-107780189D01*
X156022844Y-110389744D01*
X158485807Y-118394373D01*
X158486708Y-118464237D01*
X158470393Y-118499730D01*
X158427537Y-118563868D01*
X158427533Y-118563875D01*
X158378499Y-118682255D01*
X158378497Y-118682261D01*
X158353500Y-118807928D01*
X158353500Y-118807931D01*
X158353500Y-118936069D01*
X158353500Y-118936071D01*
X158353499Y-118936071D01*
X158378497Y-119061738D01*
X158378499Y-119061744D01*
X158427533Y-119180124D01*
X158427538Y-119180133D01*
X158498723Y-119286668D01*
X158498726Y-119286672D01*
X158589327Y-119377273D01*
X158589331Y-119377276D01*
X158695866Y-119448461D01*
X158695879Y-119448468D01*
X158772927Y-119480382D01*
X158827331Y-119524223D01*
X158843992Y-119558476D01*
X160227086Y-124053530D01*
X160227987Y-124123394D01*
X160190974Y-124182655D01*
X160127798Y-124212497D01*
X160114669Y-124213847D01*
X148046914Y-124808186D01*
X148026414Y-124803247D01*
X148005328Y-124803150D01*
X147993128Y-124795229D01*
X147978987Y-124791823D01*
X147964411Y-124776585D01*
X147946726Y-124765104D01*
X147934686Y-124745511D01*
X147930690Y-124741334D01*
X147927782Y-124735324D01*
X147926998Y-124733586D01*
X147896465Y-124659873D01*
X147888096Y-124647349D01*
X147883874Y-124637988D01*
X147880419Y-124613144D01*
X147872926Y-124589213D01*
X147875690Y-124579136D01*
X147874251Y-124568785D01*
X147884776Y-124546017D01*
X147891411Y-124521833D01*
X147893804Y-124518109D01*
X147896466Y-124514125D01*
X147903646Y-124496788D01*
X147945501Y-124395744D01*
X147970500Y-124270069D01*
X147970500Y-124141931D01*
X147970500Y-124141928D01*
X147945502Y-124016261D01*
X147945501Y-124016260D01*
X147945501Y-124016256D01*
X147896466Y-123897875D01*
X147896466Y-123897874D01*
X147893804Y-123893891D01*
X147872926Y-123827213D01*
X147891411Y-123759833D01*
X147893804Y-123756109D01*
X147896466Y-123752125D01*
X147903646Y-123734788D01*
X147945501Y-123633744D01*
X147970500Y-123508069D01*
X147970500Y-123379931D01*
X147970500Y-123379928D01*
X147945502Y-123254261D01*
X147945501Y-123254260D01*
X147945501Y-123254256D01*
X147896465Y-123135873D01*
X147896464Y-123135872D01*
X147896461Y-123135866D01*
X147825276Y-123029331D01*
X147825273Y-123029327D01*
X147734672Y-122938726D01*
X147734668Y-122938723D01*
X147628133Y-122867538D01*
X147628124Y-122867533D01*
X147509744Y-122818499D01*
X147509738Y-122818497D01*
X147384071Y-122793500D01*
X147384069Y-122793500D01*
X147255931Y-122793500D01*
X147255929Y-122793500D01*
X147130261Y-122818497D01*
X147130255Y-122818499D01*
X147011875Y-122867533D01*
X147011866Y-122867538D01*
X146905331Y-122938723D01*
X146905327Y-122938726D01*
X146814726Y-123029327D01*
X146814723Y-123029331D01*
X146743538Y-123135866D01*
X146743533Y-123135875D01*
X146694499Y-123254255D01*
X146694497Y-123254261D01*
X146669500Y-123379928D01*
X146669500Y-123379931D01*
X146669500Y-123508069D01*
X146669500Y-123508071D01*
X146669499Y-123508071D01*
X146694497Y-123633738D01*
X146694499Y-123633744D01*
X146743533Y-123752124D01*
X146743538Y-123752133D01*
X146746195Y-123756109D01*
X146767073Y-123822787D01*
X146748588Y-123890167D01*
X146746195Y-123893891D01*
X146743538Y-123897866D01*
X146743533Y-123897875D01*
X146694499Y-124016255D01*
X146694497Y-124016261D01*
X146669500Y-124141928D01*
X146669500Y-124141931D01*
X146669500Y-124270069D01*
X146669500Y-124270071D01*
X146669499Y-124270071D01*
X146694497Y-124395738D01*
X146694499Y-124395744D01*
X146743533Y-124514124D01*
X146743538Y-124514133D01*
X146746195Y-124518109D01*
X146767073Y-124584787D01*
X146757546Y-124634714D01*
X146752901Y-124645855D01*
X146743535Y-124659873D01*
X146694499Y-124778256D01*
X146691573Y-124792964D01*
X146686818Y-124804371D01*
X146672289Y-124822316D01*
X146661588Y-124842768D01*
X146650722Y-124848953D01*
X146642853Y-124858674D01*
X146620929Y-124865915D01*
X146600869Y-124877336D01*
X146578465Y-124880507D01*
X134123073Y-125493938D01*
X134055146Y-125477575D01*
X134006849Y-125427086D01*
X133993164Y-125376969D01*
X133786198Y-121651577D01*
X134499500Y-121651577D01*
X134499500Y-121848422D01*
X134530290Y-122042826D01*
X134591117Y-122230029D01*
X134680476Y-122405405D01*
X134796172Y-122564646D01*
X134935354Y-122703828D01*
X135094595Y-122819524D01*
X135177455Y-122861743D01*
X135269970Y-122908882D01*
X135269972Y-122908882D01*
X135269975Y-122908884D01*
X135361813Y-122938724D01*
X135457173Y-122969709D01*
X135651578Y-123000500D01*
X135651583Y-123000500D01*
X135848422Y-123000500D01*
X136042826Y-122969709D01*
X136230025Y-122908884D01*
X136405405Y-122819524D01*
X136564646Y-122703828D01*
X136703828Y-122564646D01*
X136819524Y-122405405D01*
X136908884Y-122230025D01*
X136969709Y-122042826D01*
X137000500Y-121848422D01*
X137000500Y-121651577D01*
X136969709Y-121457173D01*
X136908882Y-121269970D01*
X136819523Y-121094594D01*
X136703828Y-120935354D01*
X136564646Y-120796172D01*
X136405405Y-120680476D01*
X136230029Y-120591117D01*
X136042826Y-120530290D01*
X135848422Y-120499500D01*
X135848417Y-120499500D01*
X135651583Y-120499500D01*
X135651578Y-120499500D01*
X135457173Y-120530290D01*
X135269970Y-120591117D01*
X135094594Y-120680476D01*
X135003741Y-120746485D01*
X134935354Y-120796172D01*
X134935352Y-120796174D01*
X134935351Y-120796174D01*
X134796174Y-120935351D01*
X134796174Y-120935352D01*
X134796172Y-120935354D01*
X134746485Y-121003741D01*
X134680476Y-121094594D01*
X134591117Y-121269970D01*
X134530290Y-121457173D01*
X134499500Y-121651577D01*
X133786198Y-121651577D01*
X133481337Y-116164071D01*
X147149499Y-116164071D01*
X147174497Y-116289738D01*
X147174499Y-116289744D01*
X147223533Y-116408124D01*
X147223538Y-116408133D01*
X147294723Y-116514668D01*
X147294726Y-116514672D01*
X147385327Y-116605273D01*
X147385331Y-116605276D01*
X147491866Y-116676461D01*
X147491872Y-116676464D01*
X147491873Y-116676465D01*
X147610256Y-116725501D01*
X147610260Y-116725501D01*
X147610261Y-116725502D01*
X147735928Y-116750500D01*
X147735931Y-116750500D01*
X147864071Y-116750500D01*
X147948615Y-116733682D01*
X147989744Y-116725501D01*
X148108127Y-116676465D01*
X148214669Y-116605276D01*
X148305276Y-116514669D01*
X148376465Y-116408127D01*
X148425501Y-116289744D01*
X148450500Y-116164069D01*
X148450500Y-116035931D01*
X148450500Y-116035928D01*
X148425502Y-115910261D01*
X148425501Y-115910260D01*
X148425501Y-115910256D01*
X148376465Y-115791873D01*
X148376464Y-115791872D01*
X148376461Y-115791866D01*
X148305276Y-115685331D01*
X148305273Y-115685327D01*
X148214672Y-115594726D01*
X148214668Y-115594723D01*
X148108133Y-115523538D01*
X148108124Y-115523533D01*
X147989744Y-115474499D01*
X147989738Y-115474497D01*
X147864071Y-115449500D01*
X147864069Y-115449500D01*
X147735931Y-115449500D01*
X147735929Y-115449500D01*
X147610261Y-115474497D01*
X147610255Y-115474499D01*
X147491875Y-115523533D01*
X147491866Y-115523538D01*
X147385331Y-115594723D01*
X147385327Y-115594726D01*
X147294726Y-115685327D01*
X147294723Y-115685331D01*
X147223538Y-115791866D01*
X147223533Y-115791875D01*
X147174499Y-115910255D01*
X147174497Y-115910261D01*
X147149500Y-116035928D01*
X147149500Y-116035931D01*
X147149500Y-116164069D01*
X147149500Y-116164071D01*
X147149499Y-116164071D01*
X133481337Y-116164071D01*
X133381337Y-114364071D01*
X141299499Y-114364071D01*
X141324497Y-114489738D01*
X141324499Y-114489744D01*
X141373533Y-114608124D01*
X141373538Y-114608133D01*
X141444723Y-114714668D01*
X141444726Y-114714672D01*
X141535327Y-114805273D01*
X141535331Y-114805276D01*
X141641866Y-114876461D01*
X141641872Y-114876464D01*
X141641873Y-114876465D01*
X141760256Y-114925501D01*
X141760260Y-114925501D01*
X141760261Y-114925502D01*
X141885928Y-114950500D01*
X141885931Y-114950500D01*
X142014071Y-114950500D01*
X142098615Y-114933682D01*
X142139744Y-114925501D01*
X142258127Y-114876465D01*
X142364669Y-114805276D01*
X142455276Y-114714669D01*
X142526465Y-114608127D01*
X142575501Y-114489744D01*
X142600500Y-114364069D01*
X142600500Y-114235931D01*
X142600500Y-114235928D01*
X142575502Y-114110261D01*
X142575501Y-114110260D01*
X142575501Y-114110256D01*
X142526465Y-113991873D01*
X142526464Y-113991872D01*
X142526461Y-113991866D01*
X142455276Y-113885331D01*
X142455273Y-113885327D01*
X142364672Y-113794726D01*
X142364668Y-113794723D01*
X142258133Y-113723538D01*
X142258124Y-113723533D01*
X142139744Y-113674499D01*
X142139738Y-113674497D01*
X142014071Y-113649500D01*
X142014069Y-113649500D01*
X141885931Y-113649500D01*
X141885929Y-113649500D01*
X141760261Y-113674497D01*
X141760255Y-113674499D01*
X141641875Y-113723533D01*
X141641866Y-113723538D01*
X141535331Y-113794723D01*
X141535327Y-113794726D01*
X141444726Y-113885327D01*
X141444723Y-113885331D01*
X141373538Y-113991866D01*
X141373533Y-113991875D01*
X141324499Y-114110255D01*
X141324497Y-114110261D01*
X141299500Y-114235928D01*
X141299500Y-114235931D01*
X141299500Y-114364069D01*
X141299500Y-114364071D01*
X141299499Y-114364071D01*
X133381337Y-114364071D01*
X133281338Y-112564071D01*
X149849499Y-112564071D01*
X149874497Y-112689738D01*
X149874499Y-112689744D01*
X149923533Y-112808124D01*
X149923538Y-112808133D01*
X149994723Y-112914668D01*
X149994726Y-112914672D01*
X150085327Y-113005273D01*
X150085331Y-113005276D01*
X150191866Y-113076461D01*
X150191872Y-113076464D01*
X150191873Y-113076465D01*
X150310256Y-113125501D01*
X150310260Y-113125501D01*
X150310261Y-113125502D01*
X150435928Y-113150500D01*
X150435931Y-113150500D01*
X150564071Y-113150500D01*
X150648615Y-113133682D01*
X150689744Y-113125501D01*
X150808127Y-113076465D01*
X150914669Y-113005276D01*
X151005276Y-112914669D01*
X151076465Y-112808127D01*
X151125501Y-112689744D01*
X151150500Y-112564069D01*
X151150500Y-112435931D01*
X151150500Y-112435928D01*
X151125502Y-112310261D01*
X151125501Y-112310260D01*
X151125501Y-112310256D01*
X151076465Y-112191873D01*
X151076464Y-112191872D01*
X151076461Y-112191866D01*
X151005276Y-112085331D01*
X151005273Y-112085327D01*
X150914672Y-111994726D01*
X150914668Y-111994723D01*
X150808133Y-111923538D01*
X150808124Y-111923533D01*
X150689744Y-111874499D01*
X150689738Y-111874497D01*
X150564071Y-111849500D01*
X150564069Y-111849500D01*
X150435931Y-111849500D01*
X150435929Y-111849500D01*
X150310261Y-111874497D01*
X150310255Y-111874499D01*
X150191875Y-111923533D01*
X150191866Y-111923538D01*
X150085331Y-111994723D01*
X150085327Y-111994726D01*
X149994726Y-112085327D01*
X149994723Y-112085331D01*
X149923538Y-112191866D01*
X149923533Y-112191875D01*
X149874499Y-112310255D01*
X149874497Y-112310261D01*
X149849500Y-112435928D01*
X149849500Y-112435931D01*
X149849500Y-112564069D01*
X149849500Y-112564071D01*
X149849499Y-112564071D01*
X133281338Y-112564071D01*
X133243195Y-111877502D01*
X133212004Y-111316071D01*
X145653499Y-111316071D01*
X145678497Y-111441738D01*
X145678499Y-111441744D01*
X145727533Y-111560124D01*
X145727538Y-111560133D01*
X145798723Y-111666668D01*
X145798726Y-111666672D01*
X145889327Y-111757273D01*
X145889331Y-111757276D01*
X145995866Y-111828461D01*
X145995872Y-111828464D01*
X145995873Y-111828465D01*
X146114256Y-111877501D01*
X146114260Y-111877501D01*
X146114261Y-111877502D01*
X146239928Y-111902500D01*
X146239931Y-111902500D01*
X146368071Y-111902500D01*
X146452615Y-111885682D01*
X146493744Y-111877501D01*
X146612127Y-111828465D01*
X146718669Y-111757276D01*
X146809276Y-111666669D01*
X146880465Y-111560127D01*
X146929501Y-111441744D01*
X146954500Y-111316069D01*
X146954500Y-111187931D01*
X146954500Y-111187928D01*
X146929502Y-111062261D01*
X146929501Y-111062260D01*
X146929501Y-111062256D01*
X146880465Y-110943873D01*
X146880464Y-110943872D01*
X146880461Y-110943866D01*
X146809276Y-110837331D01*
X146809273Y-110837327D01*
X146718672Y-110746726D01*
X146718668Y-110746723D01*
X146612133Y-110675538D01*
X146612124Y-110675533D01*
X146493744Y-110626499D01*
X146493738Y-110626497D01*
X146368071Y-110601500D01*
X146368069Y-110601500D01*
X146239931Y-110601500D01*
X146239929Y-110601500D01*
X146114261Y-110626497D01*
X146114255Y-110626499D01*
X145995875Y-110675533D01*
X145995866Y-110675538D01*
X145889331Y-110746723D01*
X145889327Y-110746726D01*
X145798726Y-110837327D01*
X145798723Y-110837331D01*
X145727538Y-110943866D01*
X145727533Y-110943875D01*
X145678499Y-111062255D01*
X145678497Y-111062261D01*
X145653500Y-111187928D01*
X145653500Y-111187931D01*
X145653500Y-111316069D01*
X145653500Y-111316071D01*
X145653499Y-111316071D01*
X133212004Y-111316071D01*
X133204929Y-111188718D01*
X133200691Y-111112439D01*
X133200500Y-111105560D01*
X133200500Y-110264071D01*
X137199499Y-110264071D01*
X137224497Y-110389738D01*
X137224499Y-110389744D01*
X137273533Y-110508124D01*
X137273538Y-110508133D01*
X137344723Y-110614668D01*
X137344726Y-110614672D01*
X137435327Y-110705273D01*
X137435331Y-110705276D01*
X137541866Y-110776461D01*
X137541872Y-110776464D01*
X137541873Y-110776465D01*
X137660256Y-110825501D01*
X137660260Y-110825501D01*
X137660261Y-110825502D01*
X137785928Y-110850500D01*
X137785931Y-110850500D01*
X137914071Y-110850500D01*
X137998615Y-110833682D01*
X138039744Y-110825501D01*
X138158127Y-110776465D01*
X138264669Y-110705276D01*
X138355276Y-110614669D01*
X138426465Y-110508127D01*
X138475501Y-110389744D01*
X138500500Y-110264069D01*
X138500500Y-110135931D01*
X138500500Y-110135928D01*
X138475502Y-110010261D01*
X138475501Y-110010260D01*
X138475501Y-110010256D01*
X138426465Y-109891873D01*
X138426464Y-109891872D01*
X138426461Y-109891866D01*
X138355276Y-109785331D01*
X138355273Y-109785327D01*
X138264672Y-109694726D01*
X138264668Y-109694723D01*
X138158133Y-109623538D01*
X138158124Y-109623533D01*
X138039744Y-109574499D01*
X138039738Y-109574497D01*
X137914071Y-109549500D01*
X137914069Y-109549500D01*
X137785931Y-109549500D01*
X137785929Y-109549500D01*
X137660261Y-109574497D01*
X137660255Y-109574499D01*
X137541875Y-109623533D01*
X137541866Y-109623538D01*
X137435331Y-109694723D01*
X137435327Y-109694726D01*
X137344726Y-109785327D01*
X137344723Y-109785331D01*
X137273538Y-109891866D01*
X137273533Y-109891875D01*
X137224499Y-110010255D01*
X137224497Y-110010261D01*
X137199500Y-110135928D01*
X137199500Y-110135931D01*
X137199500Y-110264069D01*
X137199500Y-110264071D01*
X137199499Y-110264071D01*
X133200500Y-110264071D01*
X133200500Y-108514071D01*
X136949499Y-108514071D01*
X136974497Y-108639738D01*
X136974499Y-108639744D01*
X137023533Y-108758124D01*
X137023538Y-108758133D01*
X137094723Y-108864668D01*
X137094726Y-108864672D01*
X137185327Y-108955273D01*
X137185331Y-108955276D01*
X137291866Y-109026461D01*
X137291872Y-109026464D01*
X137291873Y-109026465D01*
X137410256Y-109075501D01*
X137410260Y-109075501D01*
X137410261Y-109075502D01*
X137535928Y-109100500D01*
X137535931Y-109100500D01*
X137664071Y-109100500D01*
X137748615Y-109083682D01*
X137789744Y-109075501D01*
X137908127Y-109026465D01*
X138014669Y-108955276D01*
X138105276Y-108864669D01*
X138176465Y-108758127D01*
X138225501Y-108639744D01*
X138250500Y-108514069D01*
X138250500Y-108385931D01*
X138250500Y-108385928D01*
X138225502Y-108260261D01*
X138225501Y-108260260D01*
X138225501Y-108260256D01*
X138176465Y-108141873D01*
X138176464Y-108141872D01*
X138176461Y-108141866D01*
X138105276Y-108035331D01*
X138105273Y-108035327D01*
X138014672Y-107944726D01*
X138014668Y-107944723D01*
X137908133Y-107873538D01*
X137908124Y-107873533D01*
X137789744Y-107824499D01*
X137789738Y-107824497D01*
X137664071Y-107799500D01*
X137664069Y-107799500D01*
X137535931Y-107799500D01*
X137535929Y-107799500D01*
X137410261Y-107824497D01*
X137410255Y-107824499D01*
X137291875Y-107873533D01*
X137291866Y-107873538D01*
X137185331Y-107944723D01*
X137185327Y-107944726D01*
X137094726Y-108035327D01*
X137094723Y-108035331D01*
X137023538Y-108141866D01*
X137023533Y-108141875D01*
X136974499Y-108260255D01*
X136974497Y-108260261D01*
X136949500Y-108385928D01*
X136949500Y-108385931D01*
X136949500Y-108514069D01*
X136949500Y-108514071D01*
X136949499Y-108514071D01*
X133200500Y-108514071D01*
X133200500Y-107011087D01*
X133220185Y-106944048D01*
X133272989Y-106898293D01*
X133329077Y-106887173D01*
X144005518Y-107282115D01*
G37*
%TD.AperFunction*%
%TD*%
M02*
