%TF.GenerationSoftware,KiCad,Pcbnew,9.0.4*%
%TF.CreationDate,2025-09-02T02:13:18+05:30*%
%TF.ProjectId,ESP32 project,45535033-3220-4707-926f-6a6563742e6b,rev?*%
%TF.SameCoordinates,Original*%
%TF.FileFunction,Copper,L4,Bot*%
%TF.FilePolarity,Positive*%
%FSLAX46Y46*%
G04 Gerber Fmt 4.6, Leading zero omitted, Abs format (unit mm)*
G04 Created by KiCad (PCBNEW 9.0.4) date 2025-09-02 02:13:18*
%MOMM*%
%LPD*%
G01*
G04 APERTURE LIST*
%TA.AperFunction,ComponentPad*%
%ADD10C,0.400000*%
%TD*%
%TA.AperFunction,ComponentPad*%
%ADD11C,1.208000*%
%TD*%
%TA.AperFunction,ComponentPad*%
%ADD12C,1.440000*%
%TD*%
%TA.AperFunction,ComponentPad*%
%ADD13R,1.700000X1.700000*%
%TD*%
%TA.AperFunction,ComponentPad*%
%ADD14C,1.700000*%
%TD*%
%TA.AperFunction,ComponentPad*%
%ADD15C,0.650000*%
%TD*%
%TA.AperFunction,ComponentPad*%
%ADD16O,1.050000X2.100000*%
%TD*%
%TA.AperFunction,ComponentPad*%
%ADD17C,0.600000*%
%TD*%
%TA.AperFunction,SMDPad,CuDef*%
%ADD18R,2.800000X2.800000*%
%TD*%
%TA.AperFunction,ViaPad*%
%ADD19C,0.500000*%
%TD*%
%TA.AperFunction,ViaPad*%
%ADD20C,0.600000*%
%TD*%
%TA.AperFunction,ViaPad*%
%ADD21C,0.800000*%
%TD*%
%TA.AperFunction,Conductor*%
%ADD22C,0.254000*%
%TD*%
%TA.AperFunction,Conductor*%
%ADD23C,0.300000*%
%TD*%
%TA.AperFunction,Conductor*%
%ADD24C,0.400000*%
%TD*%
G04 APERTURE END LIST*
D10*
%TO.P,U5,28,GND*%
%TO.N,GND*%
X211300000Y-86850000D03*
%TO.P,U5,29,GND*%
X212400000Y-86850000D03*
%TO.P,U5,30,GND*%
X210750000Y-87400000D03*
%TO.P,U5,31,GND*%
X211850000Y-87400000D03*
%TO.P,U5,32,GND*%
X212950000Y-87400000D03*
%TO.P,U5,33,GND*%
X211300000Y-87950000D03*
%TO.P,U5,34,GND*%
X212400000Y-87950000D03*
%TO.P,U5,35,GND*%
X210750000Y-88500000D03*
%TO.P,U5,36,GND*%
X211850000Y-88500000D03*
%TO.P,U5,37,GND*%
X212950000Y-88500000D03*
%TO.P,U5,38,GND*%
X211300000Y-89050000D03*
%TO.P,U5,39,GND*%
X212400000Y-89050000D03*
%TD*%
D11*
%TO.P,MK1,GND*%
%TO.N,GND*%
X144850000Y-77510000D03*
%TO.P,MK1,OUT*%
%TO.N,Net-(U7-IN+)*%
X144850000Y-79410000D03*
%TD*%
D12*
%TO.P,R32,1*%
%TO.N,/ESP32-C3-02/MIC_OUT*%
X168350000Y-81290000D03*
%TO.P,R32,2*%
X168350000Y-78750000D03*
%TO.P,R32,3*%
%TO.N,Net-(R28-Pad1)*%
X168350000Y-76210000D03*
%TD*%
D13*
%TO.P,J5,1,Pin_1*%
%TO.N,+3.3V*%
X135250000Y-93980000D03*
D14*
%TO.P,J5,2,Pin_2*%
%TO.N,/ESP32-C3-02/GPIO8*%
X135250000Y-96520000D03*
%TO.P,J5,3,Pin_3*%
%TO.N,/ESP32-C3-02/GPIO18*%
X135250000Y-99060000D03*
%TO.P,J5,4,Pin_4*%
%TO.N,/ESP32-C3-02/GPIO19*%
X135250000Y-101600000D03*
%TO.P,J5,5,Pin_5*%
%TO.N,GND*%
X135250000Y-104140000D03*
%TD*%
D15*
%TO.P,J1,B1,GNDB1*%
%TO.N,GND*%
X171050000Y-116870000D03*
%TO.P,J1,B2,SSTXP2*%
%TO.N,unconnected-(J1-SSTXP2-PadB2)*%
X170650000Y-117580000D03*
%TO.P,J1,B3,SSTXN2*%
%TO.N,unconnected-(J1-SSTXN2-PadB3)*%
X169850000Y-117580000D03*
%TO.P,J1,B4,VBUSB1*%
%TO.N,/vBUS*%
X169450000Y-116870000D03*
%TO.P,J1,B5,CC2*%
%TO.N,Net-(J1-CC2)*%
X169050000Y-117580000D03*
%TO.P,J1,B6,DP2*%
%TO.N,/USB_DP*%
X168650000Y-116870000D03*
%TO.P,J1,B7,DN2*%
%TO.N,/USB_DN*%
X167850000Y-116870000D03*
%TO.P,J1,B8,SBU2*%
%TO.N,unconnected-(J1-SBU2-PadB8)*%
X167450000Y-117580000D03*
%TO.P,J1,B9,VBUSB2*%
%TO.N,/vBUS*%
X167050000Y-116870000D03*
%TO.P,J1,B10,SSRXN1*%
%TO.N,unconnected-(J1-SSRXN1-PadB10)*%
X166650000Y-117580000D03*
%TO.P,J1,B11,SSRXP1*%
%TO.N,unconnected-(J1-SSRXP1-PadB11)*%
X165850000Y-117580000D03*
%TO.P,J1,B12,GNDB2*%
%TO.N,GND*%
X165450000Y-116870000D03*
%TO.P,J1,G1,GND/SHIELD*%
X170250000Y-116870000D03*
%TO.P,J1,G2,GND/SHIELD*%
X166250000Y-116870000D03*
D16*
%TO.P,J1,S1,GND/SHIELD*%
X163980000Y-118020000D03*
%TO.P,J1,S2,GND/SHIELD*%
X172520000Y-118020000D03*
%TO.P,J1,S3,GND/SHIELD*%
X163980000Y-122750000D03*
%TO.P,J1,S4,GND/SHIELD*%
X172520000Y-122750000D03*
%TD*%
D17*
%TO.P,U3,21,GND*%
%TO.N,Net-(U3-GND-Pad12)*%
X171000000Y-98527500D03*
X171450000Y-98077500D03*
X171450000Y-98527500D03*
D18*
X171450000Y-98527500D03*
D17*
X171450000Y-98977500D03*
X171900000Y-98527500D03*
%TD*%
D13*
%TO.P,J4,1,Pin_1*%
%TO.N,+3.3V*%
X135250000Y-81190000D03*
D14*
%TO.P,J4,2,Pin_2*%
%TO.N,/ESP32-C3-02/SDA*%
X135250000Y-83730000D03*
%TO.P,J4,3,Pin_3*%
%TO.N,/ESP32-C3-02/SCL*%
X135250000Y-86270000D03*
%TO.P,J4,4,Pin_4*%
%TO.N,GND*%
X135250000Y-88810000D03*
%TD*%
D19*
%TO.N,/+5v_USB*%
X146830331Y-105569669D03*
%TO.N,/ESP32-C3-02/CTS*%
X185549000Y-114350000D03*
X174148236Y-109998236D03*
X173374707Y-109074707D03*
X173545000Y-97377000D03*
%TO.N,/ESP32-C3-02/RTS*%
X173950000Y-96700000D03*
X182250000Y-115500000D03*
X181250000Y-113750000D03*
X179832000Y-112776000D03*
X179832000Y-112776000D03*
X175450000Y-108400000D03*
X173900000Y-108350000D03*
%TO.N,/ESP32-C3-02/EN*%
X204550000Y-84000000D03*
X198350000Y-85850000D03*
X195200000Y-92805000D03*
X179550000Y-115700000D03*
%TO.N,/ESP32-C3-02/BOOT*%
X200650000Y-92600000D03*
X198413909Y-94136091D03*
X196564225Y-94130620D03*
%TO.N,/ESP32-C3-02/GPIO8*%
X137700000Y-96550000D03*
%TO.N,/ESP32-C3-02/SCL*%
X177200000Y-75600000D03*
%TO.N,/ESP32-C3-02/SDA*%
X175900000Y-73500000D03*
D20*
%TO.N,+3.3V*%
X207600000Y-97850000D03*
X216650000Y-96500000D03*
D19*
%TO.N,+5V*%
X137600000Y-108450000D03*
X148200000Y-104550000D03*
X154900000Y-100000000D03*
%TO.N,GND*%
X178150000Y-79450000D03*
X147850000Y-77500000D03*
X147320000Y-124206000D03*
X213868000Y-86868000D03*
X213868000Y-88392000D03*
X178500000Y-78700000D03*
X147800000Y-116100000D03*
X218440000Y-99568000D03*
X217424000Y-100076000D03*
X137450000Y-88850000D03*
X174100000Y-74850000D03*
X147320000Y-123444000D03*
X201676000Y-100584000D03*
X203950000Y-93750000D03*
X183550000Y-94650000D03*
X213868000Y-87376000D03*
X142000000Y-99700000D03*
X219456000Y-100076000D03*
X213868000Y-87884000D03*
X219456000Y-99060000D03*
X154300000Y-95100000D03*
X201676000Y-99568000D03*
X189992000Y-121412000D03*
X187500000Y-106900000D03*
X190500000Y-125050000D03*
X150500000Y-112500000D03*
X154750000Y-76150000D03*
X201676000Y-100076000D03*
X165800000Y-93100000D03*
X167600000Y-100350000D03*
X158600000Y-83550000D03*
X147320000Y-124968000D03*
X213868000Y-89408000D03*
X213868000Y-88900000D03*
X186750000Y-107200000D03*
X182600000Y-125150000D03*
X146304000Y-111252000D03*
X217424000Y-99060000D03*
X137850000Y-110200000D03*
X137650000Y-104150000D03*
X187900000Y-101400000D03*
X197850000Y-85000000D03*
X167200000Y-105450000D03*
X151400000Y-103350000D03*
X166350000Y-105350000D03*
D20*
%TO.N,/vBUS*%
X159004000Y-118872000D03*
D19*
X160750000Y-113800000D03*
X162550000Y-95650000D03*
D20*
X161544000Y-119126000D03*
D19*
X171850000Y-113250000D03*
D20*
X160020000Y-119097979D03*
D19*
%TO.N,+3.3V*%
X144272000Y-94488000D03*
X166850000Y-103250000D03*
X156150000Y-77050000D03*
X180050000Y-92300000D03*
X146939710Y-97055231D03*
X148336000Y-93980000D03*
X192500000Y-89400000D03*
X175768000Y-79248000D03*
X155900000Y-84300000D03*
X143256000Y-94488000D03*
X176276000Y-79248000D03*
X167600000Y-103450000D03*
X143764000Y-94996000D03*
X180450000Y-78000000D03*
X146450000Y-98389560D03*
X175260000Y-79248000D03*
X146304000Y-96520000D03*
X189300000Y-103050000D03*
X182050000Y-78100000D03*
X148844000Y-95504000D03*
X188600000Y-102500000D03*
X195100000Y-95150000D03*
X137250000Y-81150000D03*
X176900000Y-95600000D03*
X148844000Y-94488000D03*
X176900000Y-96800000D03*
X170180000Y-100584000D03*
X180700000Y-115200000D03*
X192450000Y-90500000D03*
X146450000Y-97600000D03*
X164600000Y-77150000D03*
D20*
%TO.N,/+5v_USB*%
X157988000Y-124206000D03*
X157988000Y-123444000D03*
D21*
X154800000Y-116800000D03*
D19*
X144780000Y-106680000D03*
D20*
X157988000Y-122682000D03*
D19*
X144272000Y-106680000D03*
%TO.N,Net-(U3-VBUS)*%
X161600000Y-96012000D03*
X170500000Y-101450000D03*
X161036000Y-97536000D03*
%TO.N,Net-(C16-Pad2)*%
X158300000Y-76550000D03*
X151450000Y-83350000D03*
%TO.N,/ESP32-C3-02/MIC_OUT*%
X221300000Y-82400000D03*
X190000000Y-84950000D03*
%TO.N,/ESP32-C3-02/BOOT*%
X187250000Y-121000000D03*
X187650000Y-125500000D03*
%TO.N,Net-(U1-STAT2)*%
X147950000Y-106950000D03*
X141950000Y-114300000D03*
%TO.N,/ESP32-C3-02/SDA*%
X208150000Y-83150000D03*
X191008000Y-83820000D03*
%TO.N,Net-(J3-DAT0)*%
X199900000Y-97600000D03*
X197050000Y-94750000D03*
%TO.N,/ESP32-C3-02/SCL*%
X190532348Y-84263011D03*
X207550000Y-87450000D03*
%TO.N,/ESP32-C3-02/PHOTO_C*%
X221250000Y-83300000D03*
X188150000Y-98550000D03*
%TO.N,Net-(U7-IN+)*%
X163300000Y-82550000D03*
X149100000Y-80600000D03*
%TO.N,/ESP32-C3-02/SCLK*%
X195750000Y-92250000D03*
X202692000Y-101600000D03*
%TO.N,/ESP32-C3-02/CS*%
X179300000Y-91400000D03*
X214500000Y-93150000D03*
%TO.N,/USB_DN*%
X161200000Y-100150000D03*
X168656000Y-113792000D03*
%TO.N,/USB_DP*%
X168084136Y-114369000D03*
X167250000Y-95850000D03*
%TO.N,/ESP32-C3-02/RX_TX*%
X174244000Y-95504000D03*
X221000000Y-92600000D03*
%TO.N,/ESP32-C3-02/TX_RX*%
X173350000Y-95450000D03*
X221000000Y-90650000D03*
%TO.N,Net-(U7-IN-)*%
X160528000Y-76708000D03*
X158450000Y-80150000D03*
%TD*%
D22*
%TO.N,/ESP32-C3-02/RTS*%
X174122000Y-96872000D02*
X173950000Y-96700000D01*
X174122000Y-108128000D02*
X174122000Y-96872000D01*
X173900000Y-108350000D02*
X174122000Y-108128000D01*
D23*
%TO.N,GND*%
X170250000Y-116870000D02*
X171050000Y-116870000D01*
X165450000Y-116870000D02*
X166250000Y-116870000D01*
D24*
%TO.N,/+5v_USB*%
X145890331Y-105569669D02*
X144780000Y-106680000D01*
X146830331Y-105569669D02*
X145890331Y-105569669D01*
D22*
%TO.N,/ESP32-C3-02/CTS*%
X183722000Y-116278000D02*
X185650000Y-114350000D01*
X179310584Y-116278000D02*
X183722000Y-116278000D01*
X185650000Y-114350000D02*
X185549000Y-114350000D01*
X174148236Y-111115652D02*
X179310584Y-116278000D01*
X174148236Y-109998236D02*
X174148236Y-111115652D01*
X173322000Y-109022000D02*
X173374707Y-109074707D01*
X173322000Y-97600000D02*
X173322000Y-109022000D01*
X173545000Y-97377000D02*
X173322000Y-97600000D01*
%TO.N,/USB_DP*%
X173132057Y-96082000D02*
X172900057Y-95850000D01*
X174600000Y-96503468D02*
X174178532Y-96082000D01*
X174178532Y-96082000D02*
X173132057Y-96082000D01*
X174600000Y-96535994D02*
X174600000Y-96503468D01*
D23*
X168049000Y-114369000D02*
X168084136Y-114369000D01*
X168073000Y-114393000D02*
X168049000Y-114369000D01*
X168904943Y-114393000D02*
X168073000Y-114393000D01*
X174600000Y-108697943D02*
X168904943Y-114393000D01*
X174600000Y-96535994D02*
X174600000Y-108697943D01*
X167250000Y-95850000D02*
X172900057Y-95850000D01*
D22*
%TO.N,/ESP32-C3-02/RX_TX*%
X174752000Y-96012000D02*
X175670584Y-96012000D01*
X174752000Y-96012000D02*
X174244000Y-95504000D01*
X220022000Y-93678000D02*
X221100000Y-92600000D01*
X214281295Y-93678000D02*
X220022000Y-93678000D01*
X221100000Y-92600000D02*
X221000000Y-92600000D01*
X212253295Y-91650000D02*
X214281295Y-93678000D01*
X184100000Y-91650000D02*
X212253295Y-91650000D01*
X176682584Y-95000000D02*
X180750000Y-95000000D01*
X180750000Y-95000000D02*
X184100000Y-91650000D01*
X175670584Y-96012000D02*
X176682584Y-95000000D01*
%TO.N,/ESP32-C3-02/RTS*%
X181250000Y-114500000D02*
X182250000Y-115500000D01*
X181250000Y-113750000D02*
X181250000Y-114500000D01*
X179826000Y-112776000D02*
X179832000Y-112776000D01*
X175450000Y-108400000D02*
X179826000Y-112776000D01*
D23*
%TO.N,/ESP32-C3-02/EN*%
X200200000Y-84000000D02*
X204550000Y-84000000D01*
X198350000Y-85850000D02*
X200200000Y-84000000D01*
X185550000Y-99450000D02*
X192150000Y-92850000D01*
X192150000Y-92850000D02*
X195200000Y-92850000D01*
X179550000Y-114450000D02*
X185550000Y-108450000D01*
X179550000Y-115700000D02*
X179550000Y-114450000D01*
X185550000Y-108450000D02*
X185550000Y-99450000D01*
X195200000Y-92850000D02*
X195200000Y-92805000D01*
%TO.N,/ESP32-C3-02/BOOT*%
X199950000Y-92600000D02*
X200650000Y-92600000D01*
X198413909Y-94136091D02*
X199950000Y-92600000D01*
X196583605Y-94150000D02*
X196564225Y-94130620D01*
X196600000Y-94150000D02*
X196583605Y-94150000D01*
X186149000Y-99771768D02*
X191770768Y-94150000D01*
X191770768Y-94150000D02*
X196600000Y-94150000D01*
X186149000Y-119899000D02*
X186149000Y-99771768D01*
X187250000Y-121000000D02*
X186149000Y-119899000D01*
%TO.N,/ESP32-C3-02/SCL*%
X174000057Y-75600000D02*
X177200000Y-75600000D01*
X173259483Y-74859426D02*
X174000057Y-75600000D01*
X146150000Y-74859426D02*
X173259483Y-74859426D01*
X135250000Y-85759426D02*
X146150000Y-74859426D01*
X135250000Y-86270000D02*
X135250000Y-85759426D01*
%TO.N,/ESP32-C3-02/SDA*%
X145800000Y-73500000D02*
X175900000Y-73500000D01*
X135570000Y-83730000D02*
X145800000Y-73500000D01*
X135250000Y-83730000D02*
X135570000Y-83730000D01*
D22*
%TO.N,/USB_DN*%
X168041000Y-113791000D02*
X167333000Y-113083000D01*
X167844720Y-113791000D02*
X168041000Y-113791000D01*
X167506136Y-114608416D02*
X167506136Y-114129584D01*
X167850000Y-114952280D02*
X167506136Y-114608416D01*
X167850000Y-116870000D02*
X167850000Y-114952280D01*
X167506136Y-114129584D02*
X167844720Y-113791000D01*
%TO.N,/USB_DP*%
X168650000Y-114934864D02*
X168084136Y-114369000D01*
X168650000Y-116870000D02*
X168650000Y-114934864D01*
%TO.N,/USB_DN*%
X167333000Y-113083000D02*
X161200000Y-106950000D01*
D24*
%TO.N,+5V*%
X136600000Y-108050000D02*
X140100000Y-104550000D01*
X137000000Y-108450000D02*
X136600000Y-108050000D01*
X140100000Y-104550000D02*
X148150000Y-104550000D01*
X137600000Y-108450000D02*
X137000000Y-108450000D01*
%TO.N,/vBUS*%
X160750000Y-113800000D02*
X160750000Y-114807438D01*
X161330346Y-95361000D02*
X162261000Y-95361000D01*
X164000000Y-125300000D02*
X173900000Y-125300000D01*
X163054000Y-124354000D02*
X164000000Y-125300000D01*
X160385000Y-108185000D02*
X160385000Y-96306346D01*
X160750000Y-114807438D02*
X163054000Y-117111438D01*
X174700000Y-124500000D02*
X174700000Y-116100000D01*
X160385000Y-96306346D02*
X161330346Y-95361000D01*
X163054000Y-117111438D02*
X163054000Y-124354000D01*
X160750000Y-108550000D02*
X160385000Y-108185000D01*
X173900000Y-125300000D02*
X174700000Y-124500000D01*
X160750000Y-113800000D02*
X160750000Y-108550000D01*
X162261000Y-95361000D02*
X162550000Y-95650000D01*
X174700000Y-116100000D02*
X171850000Y-113250000D01*
D22*
%TO.N,Net-(U3-VBUS)*%
X161150000Y-97650000D02*
X161036000Y-97536000D01*
X170500000Y-101450000D02*
X163317416Y-101450000D01*
X163317416Y-101450000D02*
X161150000Y-99282584D01*
X161150000Y-99282584D02*
X161150000Y-97750000D01*
X161150000Y-97750000D02*
X161150000Y-97650000D01*
D23*
%TO.N,Net-(C16-Pad2)*%
X151450000Y-83350000D02*
X158250000Y-76550000D01*
X158250000Y-76550000D02*
X158300000Y-76550000D01*
%TO.N,/ESP32-C3-02/MIC_OUT*%
X190250000Y-85200000D02*
X190000000Y-84950000D01*
X198900000Y-88550000D02*
X195550000Y-85200000D01*
X221300000Y-82400000D02*
X221300000Y-82484000D01*
X221300000Y-82484000D02*
X221300000Y-82050000D01*
X221300000Y-82050000D02*
X213729232Y-82050000D01*
X195550000Y-85200000D02*
X190250000Y-85200000D01*
X207229232Y-88550000D02*
X198900000Y-88550000D01*
X213729232Y-82050000D02*
X207229232Y-88550000D01*
%TO.N,/ESP32-C3-02/BOOT*%
X187250000Y-121000000D02*
X187250000Y-125100000D01*
X187250000Y-125100000D02*
X187650000Y-125500000D01*
%TO.N,Net-(U1-STAT2)*%
X147950000Y-106950000D02*
X141950000Y-112950000D01*
X141950000Y-112950000D02*
X141950000Y-114300000D01*
%TO.N,/ESP32-C3-02/SDA*%
X196758000Y-83150000D02*
X196088000Y-83820000D01*
X208150000Y-83150000D02*
X196758000Y-83150000D01*
X196088000Y-83820000D02*
X191008000Y-83820000D01*
%TO.N,Net-(J3-DAT0)*%
X199900000Y-97600000D02*
X197050000Y-94750000D01*
%TO.N,/ESP32-C3-02/SCL*%
X195900000Y-84550000D02*
X198800000Y-87450000D01*
X190819337Y-84550000D02*
X195900000Y-84550000D01*
X190532348Y-84263011D02*
X190819337Y-84550000D01*
X198800000Y-87450000D02*
X207550000Y-87450000D01*
%TO.N,/ESP32-C3-02/PHOTO_C*%
X221550000Y-99750000D02*
X220623000Y-100677000D01*
X221250000Y-83300000D02*
X221550000Y-83600000D01*
X202463768Y-102151000D02*
X202141000Y-101828232D01*
X191428232Y-101828232D02*
X188150000Y-98550000D01*
X204394232Y-100677000D02*
X202920232Y-102151000D01*
X202920232Y-102151000D02*
X202463768Y-102151000D01*
X221550000Y-83600000D02*
X221550000Y-99750000D01*
X202141000Y-101828232D02*
X191428232Y-101828232D01*
X220623000Y-100677000D02*
X204394232Y-100677000D01*
%TO.N,Net-(U7-IN+)*%
X152151057Y-84901000D02*
X160949000Y-84901000D01*
X160949000Y-84901000D02*
X163300000Y-82550000D01*
X149100000Y-81849943D02*
X152151057Y-84901000D01*
X149100000Y-80600000D02*
X149100000Y-81849943D01*
%TO.N,/ESP32-C3-02/SCLK*%
X202692000Y-101600000D02*
X202692000Y-99192000D01*
X202692000Y-99192000D02*
X195750000Y-92250000D01*
%TO.N,/ESP32-C3-02/CS*%
X183700000Y-91100000D02*
X212450000Y-91100000D01*
X179400000Y-93950000D02*
X180850000Y-93950000D01*
X180850000Y-93950000D02*
X183700000Y-91100000D01*
X212450000Y-91100000D02*
X214500000Y-93150000D01*
X178800000Y-91900000D02*
X178800000Y-93350000D01*
X179300000Y-91400000D02*
X178800000Y-91900000D01*
X178800000Y-93350000D02*
X179400000Y-93950000D01*
D22*
%TO.N,/USB_DN*%
X168550000Y-113792000D02*
X168042000Y-113792000D01*
X168042000Y-113792000D02*
X167333000Y-113083000D01*
X161200000Y-106950000D02*
X161200000Y-100150000D01*
%TO.N,/ESP32-C3-02/TX_RX*%
X193000000Y-88800000D02*
X193400000Y-89200000D01*
X215050000Y-89950000D02*
X221072000Y-89950000D01*
X221072000Y-89950000D02*
X221122000Y-90000000D01*
X208950000Y-89200000D02*
X209736000Y-89986000D01*
X221122000Y-90650000D02*
X221000000Y-90650000D01*
X193400000Y-89200000D02*
X208950000Y-89200000D01*
X209736000Y-89986000D02*
X215014000Y-89986000D01*
X215014000Y-89986000D02*
X215050000Y-89950000D01*
X221122000Y-90000000D02*
X221122000Y-90650000D01*
X173350000Y-95450000D02*
X180000000Y-88800000D01*
X180000000Y-88800000D02*
X193000000Y-88800000D01*
D23*
%TO.N,Net-(U7-IN-)*%
X158450000Y-78786000D02*
X158450000Y-80150000D01*
X160528000Y-76708000D02*
X158450000Y-78786000D01*
%TD*%
M02*
