M48
; DRILL file {KiCad 9.0.4} date 2025-09-02T02:13:20+0530
; FORMAT={-:-/ absolute / metric / decimal}
; #@! TF.CreationDate,2025-09-02T02:13:20+05:30
; #@! TF.GenerationSoftware,Kicad,Pcbnew,9.0.4
; #@! TF.FileFunction,Plated,1,4,PTH
FMAT,2
METRIC
; #@! TA.AperFunction,Plated,PTH,ViaDrill
T1C0.300
; #@! TA.AperFunction,Plated,PTH,ComponentDrill
T2C0.300
; #@! TA.AperFunction,Plated,PTH,ComponentDrill
T3C0.450
; #@! TA.AperFunction,Plated,PTH,ViaDrill
T4C0.600
; #@! TA.AperFunction,Plated,PTH,ComponentDrill
T5C0.650
; #@! TA.AperFunction,Plated,PTH,ComponentDrill
T6C0.700
; #@! TA.AperFunction,Plated,PTH,ComponentDrill
T7C0.800
; #@! TA.AperFunction,Plated,PTH,ComponentDrill
T8C1.000
%
G90
G05
T1
X137.25Y-81.15
X137.45Y-88.85
X137.6Y-108.45
X137.65Y-104.15
X137.7Y-96.55
X137.85Y-110.2
X141.95Y-114.3
X142.0Y-99.7
X143.256Y-94.488
X143.764Y-94.996
X144.272Y-94.488
X144.272Y-106.68
X144.78Y-106.68
X146.304Y-96.52
X146.304Y-111.252
X146.45Y-97.6
X146.45Y-98.39
X146.83Y-105.57
X146.94Y-97.055
X147.32Y-123.444
X147.32Y-124.206
X147.32Y-124.968
X147.8Y-116.1
X147.85Y-77.5
X147.95Y-106.95
X148.2Y-104.55
X148.336Y-93.98
X148.844Y-94.488
X148.844Y-95.504
X149.1Y-80.6
X150.5Y-112.5
X151.4Y-103.35
X151.45Y-83.35
X154.3Y-95.1
X154.75Y-76.15
X154.9Y-100.0
X155.9Y-84.3
X156.15Y-77.05
X157.988Y-122.682
X157.988Y-123.444
X157.988Y-124.206
X158.3Y-76.55
X158.45Y-80.15
X158.6Y-83.55
X159.004Y-118.872
X160.02Y-119.098
X160.528Y-76.708
X160.75Y-113.8
X161.036Y-97.536
X161.2Y-100.15
X161.544Y-119.126
X161.6Y-96.012
X162.55Y-95.65
X163.3Y-82.55
X164.6Y-77.15
X165.8Y-93.1
X166.35Y-105.35
X166.85Y-103.25
X167.2Y-105.45
X167.25Y-95.85
X167.6Y-100.35
X167.6Y-103.45
X168.084Y-114.369
X168.656Y-113.792
X170.18Y-100.584
X170.5Y-101.45
X171.85Y-113.25
X173.35Y-95.45
X173.375Y-109.075
X173.545Y-97.377
X173.9Y-108.35
X173.95Y-96.7
X174.1Y-74.85
X174.148Y-109.998
X174.244Y-95.504
X175.26Y-79.248
X175.45Y-108.4
X175.768Y-79.248
X175.9Y-73.5
X176.276Y-79.248
X176.9Y-95.6
X176.9Y-96.8
X177.2Y-75.6
X178.15Y-79.45
X178.5Y-78.7
X179.3Y-91.4
X179.55Y-115.7
X179.832Y-112.776
X179.832Y-112.776
X180.05Y-92.3
X180.45Y-78.0
X180.7Y-115.2
X181.25Y-113.75
X182.05Y-78.1
X182.25Y-115.5
X182.6Y-125.15
X183.55Y-94.65
X185.549Y-114.35
X186.75Y-107.2
X187.25Y-121.0
X187.5Y-106.9
X187.65Y-125.5
X187.9Y-101.4
X188.15Y-98.55
X188.6Y-102.5
X189.3Y-103.05
X189.992Y-121.412
X190.0Y-84.95
X190.5Y-125.05
X190.532Y-84.263
X191.008Y-83.82
X192.45Y-90.5
X192.5Y-89.4
X195.1Y-95.15
X195.2Y-92.805
X195.75Y-92.25
X196.564Y-94.131
X197.05Y-94.75
X197.85Y-85.0
X198.35Y-85.85
X198.414Y-94.136
X199.9Y-97.6
X200.65Y-92.6
X201.676Y-99.568
X201.676Y-100.076
X201.676Y-100.584
X202.692Y-101.6
X203.95Y-93.75
X204.55Y-84.0
X207.55Y-87.45
X207.6Y-97.85
X208.15Y-83.15
X213.868Y-86.868
X213.868Y-87.376
X213.868Y-87.884
X213.868Y-88.392
X213.868Y-88.9
X213.868Y-89.408
X214.5Y-93.15
X216.65Y-96.5
X217.424Y-99.06
X217.424Y-100.076
X218.44Y-99.568
X219.456Y-99.06
X219.456Y-100.076
X221.0Y-90.65
X221.0Y-92.6
X221.25Y-83.3
X221.3Y-82.4
T2
X171.0Y-98.527
X171.45Y-98.078
X171.45Y-98.527
X171.45Y-98.977
X171.9Y-98.527
X210.75Y-87.4
X210.75Y-88.5
X211.3Y-86.85
X211.3Y-87.95
X211.3Y-89.05
X211.85Y-87.4
X211.85Y-88.5
X212.4Y-86.85
X212.4Y-87.95
X212.4Y-89.05
X212.95Y-87.4
X212.95Y-88.5
T3
X165.45Y-116.87
X165.85Y-117.58
X166.25Y-116.87
X166.65Y-117.58
X167.05Y-116.87
X167.45Y-117.58
X167.85Y-116.87
X168.65Y-116.87
X169.05Y-117.58
X169.45Y-116.87
X169.85Y-117.58
X170.25Y-116.87
X170.65Y-117.58
X171.05Y-116.87
T4
X154.8Y-116.8
T6
X144.85Y-77.51
X144.85Y-79.41
T7
X168.35Y-76.21
X168.35Y-78.75
X168.35Y-81.29
T8
X135.25Y-81.19
X135.25Y-83.73
X135.25Y-86.27
X135.25Y-88.81
X135.25Y-93.98
X135.25Y-96.52
X135.25Y-99.06
X135.25Y-101.6
X135.25Y-104.14
T5
G00X163.98Y-117.72
M15
G01X163.98Y-118.32
M16
G05
G00X163.98Y-122.45
M15
G01X163.98Y-123.05
M16
G05
G00X172.52Y-117.72
M15
G01X172.52Y-118.32
M16
G05
G00X172.52Y-122.45
M15
G01X172.52Y-123.05
M16
G05
M30
