%TF.GenerationSoftware,KiCad,Pcbnew,9.0.4*%
%TF.CreationDate,2025-09-02T02:13:18+05:30*%
%TF.ProjectId,ESP32 project,45535033-3220-4707-926f-6a6563742e6b,rev?*%
%TF.SameCoordinates,Original*%
%TF.FileFunction,Paste,Top*%
%TF.FilePolarity,Positive*%
%FSLAX46Y46*%
G04 Gerber Fmt 4.6, Leading zero omitted, Abs format (unit mm)*
G04 Created by KiCad (PCBNEW 9.0.4) date 2025-09-02 02:13:18*
%MOMM*%
%LPD*%
G01*
G04 APERTURE LIST*
G04 Aperture macros list*
%AMRoundRect*
0 Rectangle with rounded corners*
0 $1 Rounding radius*
0 $2 $3 $4 $5 $6 $7 $8 $9 X,Y pos of 4 corners*
0 Add a 4 corners polygon primitive as box body*
4,1,4,$2,$3,$4,$5,$6,$7,$8,$9,$2,$3,0*
0 Add four circle primitives for the rounded corners*
1,1,$1+$1,$2,$3*
1,1,$1+$1,$4,$5*
1,1,$1+$1,$6,$7*
1,1,$1+$1,$8,$9*
0 Add four rect primitives between the rounded corners*
20,1,$1+$1,$2,$3,$4,$5,0*
20,1,$1+$1,$4,$5,$6,$7,0*
20,1,$1+$1,$6,$7,$8,$9,0*
20,1,$1+$1,$8,$9,$2,$3,0*%
G04 Aperture macros list end*
%ADD10R,1.400000X1.000000*%
%ADD11R,1.500000X0.900000*%
%ADD12R,0.700000X0.700000*%
%ADD13R,1.230000X1.800000*%
%ADD14RoundRect,0.250000X-0.450000X0.262500X-0.450000X-0.262500X0.450000X-0.262500X0.450000X0.262500X0*%
%ADD15RoundRect,0.250000X0.262500X0.450000X-0.262500X0.450000X-0.262500X-0.450000X0.262500X-0.450000X0*%
%ADD16RoundRect,0.250000X-0.250000X-0.475000X0.250000X-0.475000X0.250000X0.475000X-0.250000X0.475000X0*%
%ADD17RoundRect,0.250000X0.475000X-0.250000X0.475000X0.250000X-0.475000X0.250000X-0.475000X-0.250000X0*%
%ADD18RoundRect,0.250000X0.450000X-0.262500X0.450000X0.262500X-0.450000X0.262500X-0.450000X-0.262500X0*%
%ADD19RoundRect,0.250000X-0.475000X0.250000X-0.475000X-0.250000X0.475000X-0.250000X0.475000X0.250000X0*%
%ADD20R,1.000000X1.400000*%
%ADD21RoundRect,0.250000X0.250000X0.475000X-0.250000X0.475000X-0.250000X-0.475000X0.250000X-0.475000X0*%
%ADD22O,1.600000X0.600000*%
%ADD23RoundRect,0.250000X-0.262500X-0.450000X0.262500X-0.450000X0.262500X0.450000X-0.262500X0.450000X0*%
%ADD24R,1.000000X1.500000*%
%ADD25R,0.700000X1.500000*%
%ADD26R,1.500000X2.800000*%
%ADD27R,0.300000X1.200000*%
%ADD28R,0.200000X1.000000*%
%ADD29R,1.000000X5.500000*%
%ADD30R,1.600000X3.000000*%
%ADD31R,1.100000X0.800000*%
%ADD32R,1.100000X1.000000*%
%ADD33RoundRect,0.056250X0.168750X-0.188750X0.168750X0.188750X-0.168750X0.188750X-0.168750X-0.188750X0*%
%ADD34R,0.540000X0.540000*%
%ADD35R,0.300000X0.300000*%
%ADD36R,0.900000X0.300000*%
%ADD37R,0.300000X0.900000*%
%ADD38RoundRect,0.250000X-0.255000X-0.255000X0.255000X-0.255000X0.255000X0.255000X-0.255000X0.255000X0*%
%ADD39RoundRect,0.062500X-0.350000X-0.062500X0.350000X-0.062500X0.350000X0.062500X-0.350000X0.062500X0*%
%ADD40RoundRect,0.062500X-0.062500X-0.350000X0.062500X-0.350000X0.062500X0.350000X-0.062500X0.350000X0*%
%ADD41RoundRect,0.218750X0.218750X0.381250X-0.218750X0.381250X-0.218750X-0.381250X0.218750X-0.381250X0*%
%ADD42R,2.810000X0.910000*%
%ADD43RoundRect,0.150000X0.512500X0.150000X-0.512500X0.150000X-0.512500X-0.150000X0.512500X-0.150000X0*%
%ADD44R,0.550000X0.570000*%
%ADD45R,1.800000X1.230000*%
%ADD46R,0.950000X2.150000*%
%ADD47R,3.250000X2.150000*%
%ADD48RoundRect,0.100000X0.100000X-0.495000X0.100000X0.495000X-0.100000X0.495000X-0.100000X-0.495000X0*%
%ADD49RoundRect,0.150000X0.150000X-0.587500X0.150000X0.587500X-0.150000X0.587500X-0.150000X-0.587500X0*%
G04 APERTURE END LIST*
D10*
%TO.C,LED5*%
X176000000Y-97200000D03*
X176000000Y-99000000D03*
%TD*%
%TO.C,LED6*%
X176000000Y-94810000D03*
X176000000Y-93010000D03*
%TD*%
D11*
%TO.C,U5*%
X202140000Y-81750000D03*
X202140000Y-83250000D03*
X202140000Y-84750000D03*
X202140000Y-86250000D03*
X202140000Y-87750000D03*
X202140000Y-89250000D03*
X202140000Y-90750000D03*
X202140000Y-92250000D03*
X202140000Y-93750000D03*
X219640000Y-93750000D03*
X219640000Y-92250000D03*
X219640000Y-90750000D03*
X219640000Y-89250000D03*
X219640000Y-87750000D03*
X219640000Y-86250000D03*
X219640000Y-84750000D03*
X219640000Y-83250000D03*
X219640000Y-81750000D03*
D12*
X210750000Y-86850000D03*
X211850000Y-86850000D03*
X212950000Y-86850000D03*
X210750000Y-87950000D03*
X211850000Y-87950000D03*
X212950000Y-87950000D03*
X210750000Y-89050000D03*
X211850000Y-89050000D03*
X212950000Y-89050000D03*
%TD*%
D13*
%TO.C,C8*%
X164250000Y-104457500D03*
X164250000Y-101837500D03*
%TD*%
D14*
%TO.C,R19*%
X213250000Y-96300000D03*
X213250000Y-98125000D03*
%TD*%
D15*
%TO.C,R3*%
X150287500Y-108425000D03*
X148462500Y-108425000D03*
%TD*%
D14*
%TO.C,R16*%
X200000000Y-85675000D03*
X200000000Y-87500000D03*
%TD*%
%TO.C,R15*%
X172250000Y-93175000D03*
X172250000Y-95000000D03*
%TD*%
D16*
%TO.C,C18*%
X155650000Y-82670000D03*
X157550000Y-82670000D03*
%TD*%
D17*
%TO.C,C3*%
X170000000Y-112862500D03*
X170000000Y-110962500D03*
%TD*%
D18*
%TO.C,R23*%
X163350000Y-76622500D03*
X163350000Y-74797500D03*
%TD*%
D19*
%TO.C,C22*%
X184250000Y-99300000D03*
X184250000Y-101200000D03*
%TD*%
D20*
%TO.C,LED4*%
X152975000Y-115175000D03*
X154775000Y-115175000D03*
%TD*%
D21*
%TO.C,C24*%
X153050000Y-74960000D03*
X151150000Y-74960000D03*
%TD*%
D22*
%TO.C,U4*%
X183650000Y-89545000D03*
X183650000Y-90815000D03*
X183650000Y-92085000D03*
X183650000Y-93355000D03*
X190850000Y-93355000D03*
X190850000Y-92085000D03*
X190850000Y-90815000D03*
X190850000Y-89545000D03*
%TD*%
D19*
%TO.C,C11*%
X200000000Y-82100000D03*
X200000000Y-84000000D03*
%TD*%
D21*
%TO.C,C6*%
X141025000Y-109175000D03*
X139125000Y-109175000D03*
%TD*%
D23*
%TO.C,R24*%
X151187500Y-81710000D03*
X153012500Y-81710000D03*
%TD*%
D15*
%TO.C,R7*%
X150512500Y-111175000D03*
X148687500Y-111175000D03*
%TD*%
D18*
%TO.C,R13*%
X173750000Y-105200000D03*
X173750000Y-103375000D03*
%TD*%
D23*
%TO.C,R30*%
X182500000Y-117000000D03*
X184325000Y-117000000D03*
%TD*%
D16*
%TO.C,C1*%
X148300000Y-103250000D03*
X150200000Y-103250000D03*
%TD*%
D14*
%TO.C,R14*%
X169750000Y-93087500D03*
X169750000Y-94912500D03*
%TD*%
D18*
%TO.C,R17*%
X200000000Y-91162500D03*
X200000000Y-89337500D03*
%TD*%
D17*
%TO.C,C10*%
X169250000Y-105287500D03*
X169250000Y-103387500D03*
%TD*%
D21*
%TO.C,C17*%
X153050000Y-79460000D03*
X151150000Y-79460000D03*
%TD*%
D20*
%TO.C,LED1*%
X152825000Y-108425000D03*
X154625000Y-108425000D03*
%TD*%
D24*
%TO.C,J3*%
X213125000Y-100250000D03*
X210625000Y-100250000D03*
X208125000Y-100250000D03*
X205625000Y-100250000D03*
X203125000Y-100250000D03*
X200625000Y-100250000D03*
X198200000Y-100250000D03*
X196500000Y-100250000D03*
X215625000Y-100250000D03*
D25*
X195200000Y-100250000D03*
D26*
X192600000Y-102050000D03*
X217700000Y-102050000D03*
X219900000Y-123550000D03*
X192600000Y-123550000D03*
D25*
X194000000Y-100250000D03*
%TD*%
D27*
%TO.C,J1*%
X165500000Y-115620000D03*
X166000000Y-115620000D03*
X166500000Y-115620000D03*
X167000000Y-115620000D03*
X167500000Y-115620000D03*
X168000000Y-115620000D03*
X168500000Y-115620000D03*
X169000000Y-115620000D03*
X169500000Y-115620000D03*
X170000000Y-115620000D03*
X170500000Y-115620000D03*
X171000000Y-115620000D03*
D28*
X168250000Y-120200000D03*
X168250000Y-123300000D03*
%TD*%
D29*
%TO.C,J2*%
X144037500Y-122425000D03*
X146037500Y-122425000D03*
D30*
X141637500Y-120175000D03*
X148437500Y-120175000D03*
%TD*%
D31*
%TO.C,Q1*%
X182740000Y-102950000D03*
X182740000Y-104050000D03*
D32*
X186250000Y-103500000D03*
%TD*%
D33*
%TO.C,U6*%
X175450000Y-74560000D03*
X176100000Y-74560000D03*
X176750000Y-74560000D03*
X177400000Y-74560000D03*
X177400000Y-76500000D03*
X176750000Y-76500000D03*
X176100000Y-76500000D03*
X175450000Y-76500000D03*
%TD*%
D15*
%TO.C,R29*%
X188000000Y-117000000D03*
X186175000Y-117000000D03*
%TD*%
D17*
%TO.C,C19*%
X188500000Y-123950000D03*
X188500000Y-122050000D03*
%TD*%
D34*
%TO.C,U3*%
X171000000Y-98077500D03*
X171000000Y-98977500D03*
X171900000Y-98077500D03*
X171900000Y-98977500D03*
D35*
X170200000Y-97277500D03*
D36*
X169900000Y-97777500D03*
X169900000Y-98277500D03*
X169900000Y-98777500D03*
X169900000Y-99277500D03*
D35*
X170200000Y-99777500D03*
D37*
X170700000Y-100077500D03*
X171200000Y-100077500D03*
X171700000Y-100077500D03*
X172200000Y-100077500D03*
D35*
X172700000Y-99777500D03*
D36*
X173000000Y-99277500D03*
X173000000Y-98777500D03*
X173000000Y-98277500D03*
X173000000Y-97777500D03*
D35*
X172700000Y-97277500D03*
D37*
X172200000Y-96977500D03*
X171700000Y-96977500D03*
X171200000Y-96977500D03*
X170700000Y-96977500D03*
%TD*%
D19*
%TO.C,C7*%
X171500000Y-103387500D03*
X171500000Y-105287500D03*
%TD*%
D38*
%TO.C,U1*%
X144000000Y-109050000D03*
X144000000Y-110300000D03*
X145250000Y-109050000D03*
X145250000Y-110300000D03*
D39*
X142687500Y-108675000D03*
X142687500Y-109175000D03*
X142687500Y-109675000D03*
X142687500Y-110175000D03*
X142687500Y-110675000D03*
D40*
X143625000Y-111612500D03*
X144125000Y-111612500D03*
X144625000Y-111612500D03*
X145125000Y-111612500D03*
X145625000Y-111612500D03*
D39*
X146562500Y-110675000D03*
X146562500Y-110175000D03*
X146562500Y-109675000D03*
X146562500Y-109175000D03*
X146562500Y-108675000D03*
D40*
X145625000Y-107737500D03*
X145125000Y-107737500D03*
X144625000Y-107737500D03*
X144125000Y-107737500D03*
X143625000Y-107737500D03*
%TD*%
D41*
%TO.C,FB1*%
X141312500Y-106875000D03*
X139187500Y-106875000D03*
%TD*%
D18*
%TO.C,R4*%
X144000000Y-115287500D03*
X144000000Y-113462500D03*
%TD*%
D20*
%TO.C,LED2*%
X139950000Y-94750000D03*
X141750000Y-94750000D03*
%TD*%
D14*
%TO.C,R8*%
X146250000Y-113425000D03*
X146250000Y-115250000D03*
%TD*%
D19*
%TO.C,C20*%
X177750000Y-121800000D03*
X177750000Y-123700000D03*
%TD*%
D15*
%TO.C,R31*%
X180750000Y-117000000D03*
X178925000Y-117000000D03*
%TD*%
D23*
%TO.C,R28*%
X159437500Y-78460000D03*
X161262500Y-78460000D03*
%TD*%
D42*
%TO.C,F1*%
X160250000Y-120130000D03*
X160250000Y-123370000D03*
%TD*%
D17*
%TO.C,C21*%
X188250000Y-105450000D03*
X188250000Y-103550000D03*
%TD*%
D23*
%TO.C,R11*%
X163925000Y-94587500D03*
X165750000Y-94587500D03*
%TD*%
D43*
%TO.C,U2*%
X168025000Y-98977500D03*
X168025000Y-98027500D03*
X168025000Y-97077500D03*
X165750000Y-97077500D03*
X165750000Y-98027500D03*
X165750000Y-98977500D03*
%TD*%
D44*
%TO.C,SW2*%
X182050000Y-124160000D03*
X179500000Y-124160000D03*
X182050000Y-123000000D03*
X179500000Y-123000000D03*
%TD*%
D45*
%TO.C,C4*%
X150750000Y-93500000D03*
X153370000Y-93500000D03*
%TD*%
D18*
%TO.C,R18*%
X198250000Y-98125000D03*
X198250000Y-96300000D03*
%TD*%
D20*
%TO.C,LED3*%
X153075000Y-111925000D03*
X154875000Y-111925000D03*
%TD*%
D14*
%TO.C,R25*%
X163350000Y-78297500D03*
X163350000Y-80122500D03*
%TD*%
D18*
%TO.C,R21*%
X181750000Y-76722500D03*
X181750000Y-74897500D03*
%TD*%
D46*
%TO.C,VR1*%
X144150000Y-100500000D03*
X146450000Y-100500000D03*
X148750000Y-100500000D03*
D47*
X146450000Y-94700000D03*
%TD*%
D16*
%TO.C,C16*%
X155400000Y-74960000D03*
X157300000Y-74960000D03*
%TD*%
D23*
%TO.C,R12*%
X187425000Y-95700000D03*
X189250000Y-95700000D03*
%TD*%
D14*
%TO.C,R22*%
X186500000Y-99425000D03*
X186500000Y-101250000D03*
%TD*%
D16*
%TO.C,C23*%
X184250000Y-106000000D03*
X186150000Y-106000000D03*
%TD*%
D18*
%TO.C,R1*%
X167750000Y-112662500D03*
X167750000Y-110837500D03*
%TD*%
D21*
%TO.C,C5*%
X146250000Y-103250000D03*
X144350000Y-103250000D03*
%TD*%
D44*
%TO.C,SW1*%
X183975000Y-122920000D03*
X186525000Y-122920000D03*
X183975000Y-124080000D03*
X186525000Y-124080000D03*
%TD*%
D23*
%TO.C,R27*%
X151187500Y-77210000D03*
X153012500Y-77210000D03*
%TD*%
%TO.C,k1*%
X148712500Y-114675000D03*
X150537500Y-114675000D03*
%TD*%
%TO.C,R5*%
X139050000Y-113925000D03*
X140875000Y-113925000D03*
%TD*%
%TO.C,R6*%
X139937500Y-97250000D03*
X141762500Y-97250000D03*
%TD*%
D48*
%TO.C,U7*%
X155950000Y-80170000D03*
X156600000Y-80170000D03*
X157250000Y-80170000D03*
X157250000Y-78250000D03*
X155950000Y-78250000D03*
%TD*%
D49*
%TO.C,Q3*%
X184137500Y-121187500D03*
X186037500Y-121187500D03*
X185087500Y-119312500D03*
%TD*%
D15*
%TO.C,R28*%
X161262500Y-74960000D03*
X159437500Y-74960000D03*
%TD*%
D14*
%TO.C,R10*%
X163000000Y-96925000D03*
X163000000Y-98750000D03*
%TD*%
D16*
%TO.C,C15*%
X175500000Y-78310000D03*
X177400000Y-78310000D03*
%TD*%
D19*
%TO.C,C9*%
X181500000Y-91800000D03*
X181500000Y-93700000D03*
%TD*%
D45*
%TO.C,C13*%
X205000000Y-97300000D03*
X202380000Y-97300000D03*
%TD*%
D13*
%TO.C,C2*%
X152750000Y-99870000D03*
X152750000Y-97250000D03*
%TD*%
%TO.C,C12*%
X195000000Y-83190000D03*
X195000000Y-85810000D03*
%TD*%
D19*
%TO.C,C14*%
X196250000Y-96400000D03*
X196250000Y-98300000D03*
%TD*%
D18*
%TO.C,R2*%
X165500000Y-112662500D03*
X165500000Y-110837500D03*
%TD*%
D23*
%TO.C,R9*%
X139162500Y-111675000D03*
X140987500Y-111675000D03*
%TD*%
D18*
%TO.C,R20*%
X179250000Y-76635000D03*
X179250000Y-74810000D03*
%TD*%
D15*
%TO.C,R26*%
X161512500Y-81960000D03*
X159687500Y-81960000D03*
%TD*%
D49*
%TO.C,Q2*%
X179800000Y-121187500D03*
X181700000Y-121187500D03*
X180750000Y-119312500D03*
%TD*%
M02*
